<?xml version="1.0" encoding="UTF-8"?>
<svg version="1.1" xmlns="http://www.w3.org/2000/svg" width="297" height="295">
<path d="M0 0 C2.01170504 -0.37259549 2.01170504 -0.37259549 4.54087257 -0.36914349 C5.98374639 -0.3781032 5.98374639 -0.3781032 7.45576918 -0.38724393 C9.05204683 -0.37413614 9.05204683 -0.37413614 10.68057251 -0.36076355 C11.80525826 -0.36332682 12.92994401 -0.3658901 14.08871114 -0.36853105 C17.88301397 -0.37349922 21.67692483 -0.35692579 25.47119141 -0.34057617 C28.18081415 -0.33806309 30.89042905 -0.34007145 33.60005188 -0.34190369 C39.44685602 -0.34347911 45.29355996 -0.3340419 51.1403389 -0.31719017 C59.59385239 -0.29284106 68.04731728 -0.2849991 76.50086205 -0.2812262 C90.21512042 -0.27465527 103.92932535 -0.25467677 117.64355469 -0.22631836 C130.96809623 -0.19879434 144.29262328 -0.17755266 157.6171875 -0.16479492 C158.84853501 -0.16361267 158.84853501 -0.16361267 160.10475822 -0.16240653 C164.22283645 -0.1584915 168.34091479 -0.15470036 172.4589932 -0.15097082 C206.63936726 -0.11985496 240.81967788 -0.06700177 275 0 C274.99962297 0.61383891 274.99924595 1.22767782 274.9988575 1.86011791 C274.99173871 16.79996229 275.01765199 31.73941155 275.0802784 46.67911053 C275.10976875 53.90390763 275.12810056 61.12841059 275.12011719 68.35327148 C275.11318675 74.65090434 275.1272402 80.94808198 275.16643608 87.24560291 C275.18645777 90.57995336 275.19287826 93.91342863 275.18042374 97.24783897 C275.16829607 100.97152607 275.19325523 104.6932344 275.22705078 108.41674805 C275.20871941 110.07291641 275.20871941 110.07291641 275.1900177 111.76254272 C275.12118112 117.07690742 275.12118112 117.07690742 277.31902695 121.70902443 C279.1084661 123.21857652 279.1084661 123.21857652 282 125 C284.8565269 129.79159351 285.42956032 133.46199092 284.57421875 138.8515625 C283.68231269 142.18862598 282.26704599 144.41808651 280 147 C278.35656515 147.72204164 276.69111099 148.39803169 275 149 C274.99091542 156.88420711 275.02817329 164.76721939 275.09765625 172.65112305 C275.11916522 175.33325163 275.12592938 178.01481626 275.12011719 180.69702148 C275.11726275 184.55265936 275.15255588 188.40635025 275.1953125 192.26171875 C275.1816716 194.06040657 275.1816716 194.06040657 275.16775513 195.89543152 C275.06958676 201.67764105 275.06958676 201.67764105 277.32098389 206.78408813 C279.10286594 208.29099758 279.10286594 208.29099758 282 210 C284.8565269 214.79159351 285.42956032 218.46199092 284.57421875 223.8515625 C283.68231269 227.18862598 282.26704599 229.41808651 280 232 C278.35 232.66 276.7 233.32 275 234 C275 247.86 275 261.72 275 276 C184.25 276 93.5 276 0 276 C0 262.14 0 248.28 0 234 C-1.32 233.34 -2.64 232.68 -4 232 C-7.3195809 228.30103843 -8.86414293 225.76614196 -9.25 220.75 C-8.89572401 215.43586017 -7.38057727 211.63159132 -3.9375 207.5625 C-2 206 -2 206 0 206 C0 187.19 0 168.38 0 149 C-1.32 148.34 -2.64 147.68 -4 147 C-7.3195809 143.30103843 -8.86414293 140.76614196 -9.25 135.75 C-8.89572401 130.43586017 -7.38057727 126.63159132 -3.9375 122.5625 C-2 121 -2 121 0 121 C0 105.16 0 89.32 0 73 C-1.32 72.34 -2.64 71.68 -4 71 C-7.29342789 67.33018035 -8.82634881 64.77124213 -9.3125 59.8125 C-8.93592607 55.21829802 -7.65447126 51.76869376 -5 48 C-4.32267822 47.64252686 -3.64535645 47.28505371 -2.94750977 46.91674805 C-0.60566195 45.00829159 -0.60566195 45.00829159 -0.5300293 41.23461914 C-0.52389939 39.66807425 -0.54007797 38.10134106 -0.57421875 36.53515625 C-0.57750687 35.70543808 -0.58079498 34.87571991 -0.58418274 34.02085876 C-0.59460375 32.26651163 -0.61455411 30.51219904 -0.64331055 28.75805664 C-0.68727637 26.0761414 -0.70473139 23.39512121 -0.71679688 20.71289062 C-0.7302261 19.00779963 -0.74515049 17.30271963 -0.76171875 15.59765625 C-0.77279915 14.39593529 -0.77279915 14.39593529 -0.78410339 13.16993713 C-0.81224112 9.00256802 -0.81224112 9.00256802 -1.63606262 4.94407654 C-2 3 -2 3 0 0 Z M14 14 C14 24.23 14 34.46 14 45 C15.98 46.65 17.96 48.3 20 50 C22.60400746 54.26110311 22.68190373 59.14351493 22 64 C20.69434281 67.49969969 19.06149997 70.29423764 15.88775635 72.40437317 C13.81032008 73.83454019 13.81032008 73.83454019 13.51898193 76.14506531 C13.52786438 76.97335342 13.53674683 77.80164154 13.54589844 78.6550293 C13.54620056 79.59577805 13.54650269 80.53652679 13.54681396 81.50578308 C13.56745911 82.51836685 13.58810425 83.53095062 13.609375 84.57421875 C13.61503479 85.61318802 13.62069458 86.65215729 13.62652588 87.72261047 C13.64893673 91.04470681 13.6991431 94.36572904 13.75 97.6875 C13.77005885 99.93813548 13.78831069 102.18878784 13.8046875 104.43945312 C13.8488168 109.9600026 13.91577579 115.47992457 14 121 C14.79921875 121.2784375 15.5984375 121.556875 16.421875 121.84375 C19 123 19 123 20.25 125.5 C20.4975 126.325 20.745 127.15 21 128 C21.33 128.66 21.66 129.32 22 130 C22.59106487 135.68331608 22.27243416 140.14777003 19 145 C18.14932449 145.59814514 17.29864899 146.19629028 16.42219543 146.81256104 C13.78507057 148.77257014 13.78507057 148.77257014 13.39872742 151.6449585 C13.40983047 152.64867493 13.42093353 153.65239136 13.43237305 154.68652344 C13.4327507 155.82740417 13.43312836 156.96828491 13.43351746 158.14373779 C13.4722271 159.98297821 13.4722271 159.98297821 13.51171875 161.859375 C13.51879349 163.11888977 13.52586823 164.37840454 13.53315735 165.67608643 C13.55640124 169.01735356 13.60128188 172.35690324 13.65667725 175.69769287 C13.70791791 179.10950916 13.73068144 182.5215032 13.75585938 185.93359375 C13.8110056 192.62286982 13.89469265 199.31133577 14 206 C14.79921875 206.2784375 15.5984375 206.556875 16.421875 206.84375 C19 208 19 208 20.25 210.5 C20.4975 211.325 20.745 212.15 21 213 C21.33 213.66 21.66 214.32 22 215 C22.59106487 220.68331608 22.27243416 225.14777003 19 230 C16.525 231.98 16.525 231.98 14 234 C14 243.24 14 252.48 14 262 C95.84 262 177.68 262 262 262 C262 252.76 262 243.52 262 234 C260.35 233.34 258.7 232.68 257 232 C255.75 229.5 255.75 229.5 255 227 C254.67 226.34 254.34 225.68 254 225 C253.2341498 218.13245802 253.89634989 213.58552376 258 208 C259.04556061 207.33232857 259.04556061 207.33232857 260.11224365 206.65116882 C262.23836061 205.13246843 262.23836061 205.13246843 262.48101807 202.51325989 C262.47213562 201.52508774 262.46325317 200.53691559 262.45410156 199.51879883 C262.45379944 198.39786331 262.45349731 197.2769278 262.45318604 196.12202454 C262.43254089 194.91257675 262.41189575 193.70312897 262.390625 192.45703125 C262.38213531 190.59893074 262.38213531 190.59893074 262.37347412 188.70329285 C262.35486224 185.41335722 262.31893668 182.12420519 262.2746582 178.83453369 C262.23370629 175.47637521 262.2154634 172.11810195 262.1953125 168.75976562 C262.15116388 162.17286987 262.08418959 155.58649904 262 149 C260.80117188 148.56494141 260.80117188 148.56494141 259.578125 148.12109375 C257 147 257 147 255.75 145.0625 C253.87490491 139.9059885 253.47604599 135.46658685 254 130 C255.5 127 255.5 127 257 125 C257 124.34 257 123.68 257 123 C259.475 122.01 259.475 122.01 262 121 C262 85.69 262 50.38 262 14 C180.16 14 98.32 14 14 14 Z " fill="#010101" transform="translate(10,8)"/>
<path d="M0 0 C4.62 0 9.24 0 14 0 C14 9.24 14 18.48 14 28 C95.84 28 177.68 28 262 28 C262 18.76 262 9.52 262 0 C266.29 0 270.58 0 275 0 C275 13.86 275 27.72 275 42 C184.25 42 93.5 42 0 42 C0 28.14 0 14.28 0 0 Z " fill="#010101" transform="translate(10,242)"/>
<path d="M0 0 C4.3295696 4.55744169 5.40553225 8.45035207 5.35546875 14.578125 C4.75132935 18.69423956 2.66717915 21.86700365 0 25 C-0.99 25.66 -1.98 26.32 -3 27 C-3.47517866 29.09247425 -3.47517866 29.09247425 -3.43237305 31.54150391 C-3.45216721 32.48232819 -3.47196136 33.42315247 -3.49235535 34.39248657 C-3.50194023 35.91910416 -3.50194023 35.91910416 -3.51171875 37.4765625 C-3.52966995 38.51694672 -3.54762115 39.55733093 -3.56611633 40.62924194 C-3.62041682 43.96111971 -3.65417853 47.29285266 -3.6875 50.625 C-3.72065561 52.88022858 -3.75514361 55.13543799 -3.79101562 57.390625 C-3.87615434 62.92695346 -3.94442022 68.46330021 -4 74 C-3.22269531 74.26683594 -2.44539063 74.53367187 -1.64453125 74.80859375 C1.48670949 76.21927089 2.71838461 77.90325045 4.2734375 80.9375 C6.02355537 85.90557652 5.56393491 90.42691841 3.8125 95.3125 C2 98 2 98 -0.57206726 99.81256104 C-3.20898717 101.77414142 -3.20898717 101.77414142 -3.63923645 104.6449585 C-3.64589828 105.64867493 -3.65256012 106.65239136 -3.65942383 107.68652344 C-3.67906693 108.82740417 -3.69871002 109.96828491 -3.71894836 111.14373779 C-3.71304939 112.98297821 -3.71304939 112.98297821 -3.70703125 114.859375 C-3.72215256 116.11888977 -3.73727386 117.37840454 -3.75285339 118.67608643 C-3.78855092 122.01702314 -3.80289202 125.35666424 -3.80688477 128.69769287 C-3.81622057 132.10982782 -3.85363663 135.52164302 -3.88867188 138.93359375 C-3.95165096 145.62240283 -3.98648352 152.31091802 -4 159 C-3.22269531 159.26683594 -2.44539063 159.53367188 -1.64453125 159.80859375 C1.48670949 161.21927089 2.71838461 162.90325045 4.2734375 165.9375 C6.02355537 170.90557652 5.56393491 175.42691841 3.8125 180.3125 C1.16047205 184.2448173 -1.49694559 186.49898186 -6 188 C-16.59026579 188.77183293 -16.59026579 188.77183293 -21 186 C-24.73988934 182.28142057 -26.83792574 179.10696536 -27.25 173.75 C-26.89572401 168.43586017 -25.38057727 164.63159132 -21.9375 160.5625 C-20 159 -20 159 -18 159 C-18 140.19 -18 121.38 -18 102 C-19.32 101.34 -20.64 100.68 -22 100 C-25.3195809 96.30103843 -26.86414293 93.76614196 -27.25 88.75 C-26.89572401 83.43586017 -25.38057727 79.63159132 -21.9375 75.5625 C-20 74 -20 74 -18 74 C-18 58.16 -18 42.32 -18 26 C-19.32 25.34 -20.64 24.68 -22 24 C-25.29342789 20.33018035 -26.82634881 17.77124213 -27.3125 12.8125 C-26.86100647 7.30427895 -24.99644959 2.93406054 -21 -0.9375 C-14.09587144 -4.6053183 -6.65845681 -3.71337014 0 0 Z " fill="#048B4A" transform="translate(28,55)"/>
<path d="M0 0 C4.30385093 2.3549373 6.19563203 4.8978692 8.625 9.0625 C9.99597904 14.54641615 9.10256977 19.26057724 6.5625 24.25 C4.17514197 26.96893553 2.64348404 27.62680204 -0.6875 28.8125 C-0.69658458 36.69670711 -0.65932671 44.57971939 -0.58984375 52.46362305 C-0.56833478 55.14575163 -0.56157062 57.82731626 -0.56738281 60.50952148 C-0.57023725 64.36515936 -0.53494412 68.21885025 -0.4921875 72.07421875 C-0.50128143 73.27334396 -0.51037537 74.47246918 -0.51974487 75.70793152 C-0.61791324 81.49014105 -0.61791324 81.49014105 1.63348389 86.59658813 C3.41536594 88.10349758 3.41536594 88.10349758 6.3125 89.8125 C9.16848665 94.60318729 9.75101522 98.2792533 8.87890625 103.66796875 C7.57918069 108.58899862 5.46459698 111.13479589 1.125 113.6875 C-4.85233581 115.45130401 -9.50277066 115.421359 -15.5 113.75 C-19.3675939 111.39910959 -21.33258499 109.06852715 -22.6875 104.8125 C-23.808413 98.31966432 -22.76594246 93.8163436 -19.07421875 88.40625 C-17.6875 86.8125 -17.6875 86.8125 -14.6875 84.8125 C-14.21014442 82.35268574 -14.21014442 82.35268574 -14.25512695 79.44482422 C-14.23533279 78.32381317 -14.21553864 77.20280212 -14.19514465 76.04782104 C-14.18555977 74.22590744 -14.18555977 74.22590744 -14.17578125 72.3671875 C-14.15783005 71.12703888 -14.13987885 69.88689026 -14.12138367 68.60916138 C-14.07630026 65.31133932 -14.04405106 62.01371493 -14.01794434 58.71569824 C-13.98817269 55.35069195 -13.94163089 51.98592267 -13.89648438 48.62109375 C-13.81131922 42.01833821 -13.74306371 35.41556736 -13.6875 28.8125 C-14.46480469 28.544375 -15.24210937 28.27625 -16.04296875 28 C-19.15603935 26.60210715 -20.41465609 24.95929623 -21.95703125 21.9375 C-23.77692442 16.64326533 -23.62195178 11.00202916 -21.1875 5.9375 C-16.27014019 -1.41247597 -7.96247831 -2.56418793 0 0 Z " fill="#048B4A" transform="translate(285.6875,128.1875)"/>
<path d="M0 0 C1.093125 0.00257812 2.18625 0.00515625 3.3125 0.0078125 C4.405625 0.00523438 5.49875 0.00265625 6.625 0 C9.3125 0.1328125 9.3125 0.1328125 10.3125 1.1328125 C10.40025605 3.27840077 10.41945219 5.42685671 10.41015625 7.57421875 C10.40765869 8.74927979 10.40516113 9.92434082 10.40258789 11.13500977 C10.39348389 12.63990967 10.38437988 14.14480957 10.375 15.6953125 C10.354375 20.4596875 10.33375 25.2240625 10.3125 30.1328125 C19.8825 30.1328125 29.4525 30.1328125 39.3125 30.1328125 C39.3125 34.4228125 39.3125 38.7128125 39.3125 43.1328125 C29.7425 43.1328125 20.1725 43.1328125 10.3125 43.1328125 C10.3125 52.7028125 10.3125 62.2728125 10.3125 72.1328125 C7.82495214 73.37658643 6.08594699 73.26587485 3.3125 73.2578125 C2.425625 73.26039063 1.53875 73.26296875 0.625 73.265625 C-1.6875 73.1328125 -1.6875 73.1328125 -3.6875 72.1328125 C-3.6875 62.5628125 -3.6875 52.9928125 -3.6875 43.1328125 C-13.2575 43.1328125 -22.8275 43.1328125 -32.6875 43.1328125 C-32.6875 38.8428125 -32.6875 34.5528125 -32.6875 30.1328125 C-23.1175 30.1328125 -13.5475 30.1328125 -3.6875 30.1328125 C-3.72709626 20.63388286 -3.72709626 20.63388286 -3.77758789 11.13500977 C-3.78008545 9.95994873 -3.78258301 8.7848877 -3.78515625 7.57421875 C-3.79039307 6.36451416 -3.79562988 5.15480957 -3.80102539 3.90844727 C-3.64854182 0.18030585 -3.64854182 0.18030585 0 0 Z " fill="#000000" transform="translate(144.6875,109.8671875)"/>
<path d="M0 0 C4.6148196 2.4380179 7.27161225 4.96176335 9.3125 9.75 C10.09921167 15.36936904 9.53452478 19.97251498 6.3125 24.75 C1.26704755 29.41704352 -2.61140568 30.00057988 -9.25390625 29.89453125 C-12.9815336 29.67314728 -15.37467401 29.0553455 -18.05859375 26.38671875 C-21.18835934 22.81364359 -22.57248476 20.24519812 -22.9375 15.5 C-22.61755532 10.70082979 -21.64031309 6.8201953 -18.2578125 3.234375 C-12.49945217 -1.75047424 -7.18262836 -2.43478927 0 0 Z " fill="#058A4A" transform="translate(23.6875,213.25)"/>
<path d="M0 0 C4.3295696 4.55744169 5.40553225 8.45035207 5.35546875 14.578125 C4.75132935 18.69423956 2.66717915 21.86700365 0 25 C-4.77116438 28.18077626 -9.32443767 28.39828508 -15 28 C-20.2590971 26.10672504 -22.79008594 23.40216785 -26 19 C-27.71747796 13.84756613 -27.54977708 9.64717236 -25.25 4.75 C-23.20879461 1.0341437 -21.25102894 -1.1156672 -17.25 -2.6875 C-10.63444217 -3.60632748 -5.92236101 -3.30285518 0 0 Z " fill="#058A4A" transform="translate(28,55)"/>
<path d="M0 0 C1.68222656 -0.00773438 1.68222656 -0.00773438 3.3984375 -0.015625 C7.9574076 0.35968973 10.65605955 1.22569152 13.8125 4.5625 C17.22292898 9.61934297 18.03585273 13.02786945 17.15625 19.03515625 C16.32539085 22.4991058 15.00767662 24.61651531 12.625 27.25 C7.35963663 30.34727257 2.58486077 30.99893826 -3.375 30.25 C-7.9466521 28.97593302 -9.85000592 27.90960795 -12.8125 24.1875 C-15.00904942 19.66069816 -15.27966314 15.16431419 -14.375 10.25 C-11.27963734 3.14956885 -7.9592919 -0.03642697 0 0 Z " fill="#048B4A" transform="translate(277.375,212.75)"/>
<path d="M0 0 C4.62 0 9.24 0 14 0 C14 18.48 14 36.96 14 56 C9.38 56 4.76 56 0 56 C0 37.52 0 19.04 0 0 Z " fill="#010201" transform="translate(10,157)"/>
<path d="M0 0 C4.29 0 8.58 0 13 0 C13.33 18.81 13.66 37.62 14 57 C7.07 56.505 7.07 56.505 0 56 C0 37.52 0 19.04 0 0 Z " fill="#010302" transform="translate(272,157)"/>
<path d="M0 0 C4.62 0 9.24 0 14 0 C14 15.18 14 30.36 14 46 C9.38 46 4.76 46 0 46 C0 30.82 0 15.64 0 0 Z " fill="#010302" transform="translate(10,82)"/>
<path d="M0 0 C4.57168607 0.17928181 6.48243851 0.49393987 9.8125 3.75 C13.54924143 9.30173013 14.23403409 12.4522017 13.484375 19.01171875 C13 21 13 21 11 23 C11.020625 21.989375 11.04125 20.97875 11.0625 19.9375 C11.00276915 16.17445627 10.73795348 12.68976739 10 9 C9.34 8.67 8.68 8.34 8 8 C7.7525 7.195625 7.505 6.39125 7.25 5.5625 C6.19044598 2.67628816 6.19044598 2.67628816 2.875 1.6875 C1.451875 1.3471875 1.451875 1.3471875 0 1 C0 0.67 0 0.34 0 0 Z " fill="#107E4E" transform="translate(281,213)"/>
<path d="M0 0 C-3.96 0 -7.92 0 -12 0 C-12 0.99 -12 1.98 -12 3 C-14.64 3.99 -17.28 4.98 -20 6 C-18.60440273 2.6273066 -17.1078412 0.91954898 -14 -1 C-9.19205163 -2.82370456 -4.26328106 -2.84218737 0 0 Z " fill="#107244" transform="translate(24,129)"/>
<path d="M0 0 C0.66 0 1.32 0 2 0 C2 1.32 2 2.64 2 4 C0.68 4.33 -0.64 4.66 -2 5 C-2.33 9.95 -2.66 14.9 -3 20 C-5.43907744 17.56092256 -5.34891288 16.74131058 -5.4375 13.375 C-5.35122867 7.97912075 -3.66837148 3.97962724 0 0 Z " fill="#187D4E" transform="translate(268,215)"/>
<path d="M0 0 C2.7098486 2.7098486 2.74967453 4.81226877 3.10546875 8.5390625 C2.9337347 12.54619036 1.3281662 15.77511961 -1 19 C-1.66 19.33 -2.32 19.66 -3 20 C-2.505 18.9790625 -2.505 18.9790625 -2 17.9375 C-0.82292346 14.47983765 -0.93392508 11.63412082 -1 8 C-0.6937566 6.66018514 -0.36548445 5.32488113 0 4 C0 2.68 0 1.36 0 0 Z " fill="#11794B" transform="translate(292,135)"/>
<path d="M0 0 C3.74670984 2.66213594 5.89541254 4.48123313 7 9 C7.24656465 12.0217285 7.40214013 14.98986285 7 18 C6.34 18.66 5.68 19.32 5 20 C4.97421875 19.20335938 4.9484375 18.40671875 4.921875 17.5859375 C4.57429444 11.09250069 4.12700194 7.05890561 0 2 C0 1.34 0 0.68 0 0 Z " fill="#147D4D" transform="translate(26,54)"/>
<path d="M0 0 C0.99 0.33 1.98 0.66 3 1 C3 1.66 3 2.32 3 3 C4.32 2.67 5.64 2.34 7 2 C7.33 2.99 7.66 3.98 8 5 C11.63 5.33 15.26 5.66 19 6 C19 6.33 19 6.66 19 7 C12.56451149 7.34961406 7.64805891 7.29470103 2 4 C0.5625 1.8125 0.5625 1.8125 0 0 Z " fill="#157A4C" transform="translate(265,151)"/>
<path d="M0 0 C0.8971875 0.5259375 0.8971875 0.5259375 1.8125 1.0625 C0.8225 1.5575 0.8225 1.5575 -0.1875 2.0625 C2.4525 2.3925 5.0925 2.7225 7.8125 3.0625 C7.8125 3.3925 7.8125 3.7225 7.8125 4.0625 C-2.74558656 4.4315205 -2.74558656 4.4315205 -7.1875 2.0625 C-4.72093412 -0.40406588 -3.34389711 -1.43309876 0 0 Z " fill="#0D804B" transform="translate(14.1875,153.9375)"/>
<path d="M0 0 C0.33 0 0.66 0 1 0 C1.07347656 1.37285156 1.07347656 1.37285156 1.1484375 2.7734375 C1.22320312 3.96195313 1.29796875 5.15046875 1.375 6.375 C1.44460938 7.55835938 1.51421875 8.74171875 1.5859375 9.9609375 C1.70217346 13.10562319 1.70217346 13.10562319 4 15 C3.67 15.99 3.34 16.98 3 18 C-0.72213059 13.30687882 -1.20947555 9.97005315 -1 4 C-0.5 1.5625 -0.5 1.5625 0 0 Z " fill="#17754B" transform="translate(2,221)"/>
<path d="M0 0 C-2.58118049 1.39813943 -5.17185223 2.41826363 -7.9375 3.375 C-11.53002093 4.68442352 -14.14564096 6.41323712 -17 9 C-15.50521886 5.19510255 -13.30557786 3.33809165 -10 1 C-6.52674819 -0.1577506 -3.63932552 -0.06866652 0 0 Z " fill="#0F6C41" transform="translate(20,212)"/>
<path d="M0 0 C4.82360189 -0.19294408 8.49646738 0.24252386 13 2 C11.02 2.99 11.02 2.99 9 4 C8.01 3.34 7.02 2.68 6 2 C4.0103005 1.60986284 2.00980131 1.26797351 0 1 C0 0.67 0 0.34 0 0 Z " fill="#0D6339" transform="translate(275,127)"/>
<path d="M0 0 C3 1 3 1 4 3 C4.99 3.33 5.98 3.66 7 4 C7 4.99 7 5.98 7 7 C4.625 6.3125 4.625 6.3125 2 5 C0.6875 2.375 0.6875 2.375 0 0 Z " fill="#1A7B4D" transform="translate(265,235)"/>
<path d="M0 0 C0.66 0 1.32 0 2 0 C0.9024777 2.99324263 0.32317108 3.84610901 -2.625 5.25 C-3.40875 5.4975 -4.1925 5.745 -5 6 C-4.34 4.68 -3.68 3.36 -3 2 C-2.01 2 -1.02 2 0 2 C0 1.34 0 0.68 0 0 Z " fill="#0F7F4B" transform="translate(28,151)"/>
<path d="M0 0 C1.9375 0.6875 1.9375 0.6875 4 2 C4.75 4.625 4.75 4.625 5 7 C3.29115995 5.37660195 1.62553283 3.70680947 0 2 C0 1.34 0 0.68 0 0 Z " fill="#117949" transform="translate(2,148)"/>
</svg>
