<?xml version="1.0" encoding="UTF-8"?>
<svg version="1.1" xmlns="http://www.w3.org/2000/svg" width="122" height="115">
<path d="M0 0 C40.26 0 80.52 0 122 0 C122 37.95 122 75.9 122 115 C81.74 115 41.48 115 0 115 C0 77.05 0 39.1 0 0 Z " fill="#FCFCFC" transform="translate(0,0)"/>
<path d="M0 0 C40.26 0 80.52 0 122 0 C122 37.95 122 75.9 122 115 C81.74 115 41.48 115 0 115 C0 77.05 0 39.1 0 0 Z M12 12 C12 25.86 12 39.72 12 54 C12.66 54.33 13.32 54.66 14 55 C15.425 62.3625 15.425 62.3625 13 66 C13 79.86 13 93.72 13 108 C44.35 108 75.7 108 108 108 C108 94.14 108 80.28 108 66 C106.515 65.505 106.515 65.505 105 65 C105.08708669 63.54054712 105.19526907 62.08234132 105.3125 60.625 C105.37050781 59.81289063 105.42851563 59.00078125 105.48828125 58.1640625 C106 56 106 56 109 54 C109 40.14 109 26.28 109 12 C76.99 12 44.98 12 12 12 Z " fill="#000000" transform="translate(0,0)"/>
<path d="M0 0 C40.26 0 80.52 0 122 0 C122 37.95 122 75.9 122 115 C120.35 115 118.7 115 117 115 C117 98.83 117 82.66 117 66 C117.99 65.67 118.98 65.34 120 65 C119.88590407 63.54077307 119.75834456 62.08259402 119.625 60.625 C119.52058594 59.40683594 119.52058594 59.40683594 119.4140625 58.1640625 C119.17107412 55.79665809 119.17107412 55.79665809 117 54 C117 37.5 117 21 117 4 C79.71 4 42.42 4 4 4 C4 20.5 4 37 4 54 C3.34 54.66 2.68 55.32 2 56 C1.681616 58.1398632 1.681616 58.1398632 1.75 60.5 C1.74484375 61.2940625 1.7396875 62.088125 1.734375 62.90625 C1.81060091 65.21892751 1.81060091 65.21892751 4 67 C4.24050903 69.06277466 4.24050903 69.06277466 4.22705078 71.63330078 C4.22689972 72.59414581 4.22674866 73.55499084 4.22659302 74.54495239 C4.21627045 75.58457123 4.20594788 76.62419006 4.1953125 77.6953125 C4.1924826 78.75789276 4.18965271 79.82047302 4.18673706 80.91525269 C4.17551639 84.31861499 4.15040837 87.72171686 4.125 91.125 C4.11497264 93.42838162 4.10584637 95.73176736 4.09765625 98.03515625 C4.07557093 103.69019345 4.04207489 109.34507813 4 115 C2.68 115 1.36 115 0 115 C0 77.05 0 39.1 0 0 Z " fill="#FEFEFE" transform="translate(0,0)"/>
<path d="M0 0 C2.31 0 4.62 0 7 0 C7 13.53 7 27.06 7 41 C39.01 41 71.02 41 104 41 C104 27.47 104 13.94 104 0 C106.31 0 108.62 0 111 0 C111 15.51 111 31.02 111 47 C74.37 47 37.74 47 0 47 C0 31.49 0 15.98 0 0 Z " fill="#000000" transform="translate(5,68)"/>
<path d="M0 0 C37.29 0 74.58 0 113 0 C113.33 16.5 113.66 33 114 50 C114.66 50.66 115.32 51.32 116 52 C116.1953125 54.1640625 116.1953125 54.1640625 116.125 56.625 C116.10695313 57.44226562 116.08890625 58.25953125 116.0703125 59.1015625 C116.04710938 59.72804687 116.02390625 60.35453125 116 61 C115.01 61.495 115.01 61.495 114 62 C113.67 78.17 113.34 94.34 113 111 C112.67 111 112.34 111 112 111 C112 95.49 112 79.98 112 64 C109.69 64 107.38 64 105 64 C105 77.53 105 91.06 105 105 C72.99 105 40.98 105 8 105 C8 91.47 8 77.94 8 64 C5.69 64 3.38 64 1 64 C1 79.51 1 95.02 1 111 C0.67 111 0.34 111 0 111 C-0.00808685 110.40309357 -0.01617371 109.80618713 -0.02450562 109.19119263 C-0.11037197 102.9945903 -0.20986693 96.79831452 -0.31738281 90.60205078 C-0.35573401 88.28765331 -0.3905759 85.97319498 -0.421875 83.65869141 C-0.4673924 80.33734336 -0.52540843 77.01641659 -0.5859375 73.6953125 C-0.59748871 72.65569366 -0.60903992 71.61607483 -0.62094116 70.54495239 C-0.6507457 69.10368484 -0.6507457 69.10368484 -0.68115234 67.63330078 C-0.69447601 66.78502716 -0.70779968 65.93675354 -0.7215271 65.06277466 C-0.81776158 62.77813881 -0.81776158 62.77813881 -3 61 C-3.265625 58.90625 -3.265625 58.90625 -3.25 56.5 C-3.25515625 55.7059375 -3.2603125 54.911875 -3.265625 54.09375 C-3 52 -3 52 -1 50 C-0.67 33.5 -0.34 17 0 0 Z M1 1 C1 16.84 1 32.68 1 49 C3.97 49.66 6.94 50.32 10 51 C11.25 58.625 11.25 58.625 9 62 C9 75.86 9 89.72 9 104 C40.35 104 71.7 104 104 104 C104 90.14 104 76.28 104 62 C102.515 61.505 102.515 61.505 101 61 C101.08708669 59.54054712 101.19526907 58.08234132 101.3125 56.625 C101.37050781 55.81289063 101.42851563 55.00078125 101.48828125 54.1640625 C102 52 102 52 105 50 C108.465 49.505 108.465 49.505 112 49 C112 33.16 112 17.32 112 1 C75.37 1 38.74 1 1 1 Z " fill="#486E48" transform="translate(4,4)"/>
<path d="M0 0 C0.99 0.66 1.98 1.32 3 2 C3.47730962 5.72301503 3.1387261 6.79191085 1 10 C1.66 10.66 2.32 11.32 3 12 C3.55829517 17.24797464 3.55829517 17.24797464 1.76171875 19.66796875 C-0.46138353 21.34885096 -1.73606622 21.40263934 -4.5 21.375 C-5.2734375 21.38273437 -6.046875 21.39046875 -6.84375 21.3984375 C-9.50475034 20.90673092 -10.39573741 20.15082524 -12 18 C-12.42098999 14.04269405 -12.09065618 11.39731629 -10 8 C-10.33 7.67 -10.66 7.34 -11 7 C-11.3125 4.625 -11.3125 4.625 -11 2 C-7.74538609 -1.90553669 -4.63102893 -1.09460684 0 0 Z " fill="#333333" transform="translate(96,49)"/>
<path d="M0 0 C1.734375 1.23046875 1.734375 1.23046875 3 3 C3.29296875 5.26171875 3.29296875 5.26171875 3.1875 7.6875 C3.16042969 8.49574219 3.13335937 9.30398437 3.10546875 10.13671875 C3.07066406 10.75160156 3.03585938 11.36648437 3 12 C2.01 12.495 2.01 12.495 1 13 C0.67 29.17 0.34 45.34 0 62 C-0.33 62 -0.66 62 -1 62 C-1 46.49 -1 30.98 -1 15 C-3.31 15 -5.62 15 -8 15 C-10.4375 14.0625 -10.4375 14.0625 -12 12 C-12.56012915 8.89907885 -12.55445043 6.10145709 -12 3 C-9.01178394 -1.10879708 -4.63838587 -0.44175103 0 0 Z " fill="#1D7F1D" transform="translate(117,53)"/>
<path d="M0 0 C0.66 0 1.32 0 2 0 C2 4.62 2 9.24 2 14 C2.66 14.33 3.32 14.66 4 15 C3.34 15 2.68 15 2 15 C2 16.98 2 18.96 2 21 C1.01 21 0.02 21 -1 21 C-1 19.35 -1 17.7 -1 16 C-4.3 16 -7.6 16 -11 16 C-9.89199153 11.56796614 -8.41379164 9.76571193 -5.5 6.3125 C-4.6853125 5.33925781 -3.870625 4.36601563 -3.03125 3.36328125 C-1 1 -1 1 0 0 Z " fill="#4A4A4A" transform="translate(32,53)"/>
<path d="M0 0 C1.65 0 3.3 0 5 0 C5.12381526 4.3415346 5.21443558 8.68212837 5.2746582 13.02490234 C5.29976737 14.50132146 5.33386255 15.97761668 5.37719727 17.45361328 C5.438018 19.5787614 5.46624209 21.70226394 5.48828125 23.828125 C5.51446533 25.1059082 5.54064941 26.38369141 5.56762695 27.70019531 C5 31 5 31 2.46948242 33.44824219 C1.65455322 33.96032227 0.83962402 34.47240234 0 35 C0.33 33.68 0.66 32.36 1 31 C1.66 31 2.32 31 3 31 C2.88590407 29.54077307 2.75834456 28.08259402 2.625 26.625 C2.55539063 25.81289063 2.48578125 25.00078125 2.4140625 24.1640625 C2.17107412 21.79665809 2.17107412 21.79665809 0 20 C-0.22705078 17.93701172 -0.22705078 17.93701172 -0.1953125 15.4296875 C-0.18886719 14.53378906 -0.18242188 13.63789062 -0.17578125 12.71484375 C-0.15902344 11.77769531 -0.14226562 10.84054688 -0.125 9.875 C-0.11597656 8.93011719 -0.10695313 7.98523437 -0.09765625 7.01171875 C-0.07404522 4.67422708 -0.04111516 2.33723877 0 0 Z " fill="#FCFDFC" transform="translate(117,34)"/>
<path d="M0 0 C1.32 0 2.64 0 4 0 C4.05790353 3.29159316 4.09356261 6.58305603 4.125 9.875 C4.14175781 10.81214844 4.15851562 11.74929687 4.17578125 12.71484375 C4.18222656 13.61074219 4.18867187 14.50664063 4.1953125 15.4296875 C4.20578613 16.25710449 4.21625977 17.08452148 4.22705078 17.93701172 C4 20 4 20 2 22 C1.59952556 24.32275177 1.2602896 26.65739357 1 29 C0.67 29 0.34 29 0 29 C0 19.43 0 9.86 0 0 Z " fill="#F4F9F4" transform="translate(0,34)"/>
<path d="M0 0 C3.5625 0.1875 3.5625 0.1875 5.5625 2.1875 C5.6875 4.8125 5.6875 4.8125 5.5625 7.1875 C2.58037087 8.67856457 -0.15359658 8.30691467 -3.4375 8.1875 C-4.4375 7.1875 -4.4375 7.1875 -4.5625 4.1875 C-4.38475711 -0.07832944 -4.34341423 0.2369135 0 0 Z " fill="#EFEFEF" transform="translate(91.4375,59.8125)"/>
<path d="M0 0 C2.5 0.25 2.5 0.25 4.5 2.25 C4.125 4.875 4.125 4.875 3.5 7.25 C1.19 7.25 -1.12 7.25 -3.5 7.25 C-4.125 4.875 -4.125 4.875 -4.5 2.25 C-2.5 0.25 -2.5 0.25 0 0 Z " fill="#E6E6E6" transform="translate(91.5,49.75)"/>
<path d="M0 0 C0.66 0 1.32 0 2 0 C2 2.97 2 5.94 2 9 C-0.31 9 -2.62 9 -5 9 C-4.42676569 5.13066838 -2.61046448 2.84777943 0 0 Z " fill="#D3D3D3" transform="translate(30,58)"/>
<path d="M0 0 C0.309375 0.639375 0.61875 1.27875 0.9375 1.9375 C1.8345163 3.93610821 1.8345163 3.93610821 3 5 C4.51928038 5.07179964 6.04167482 5.08392007 7.5625 5.0625 C8.38878906 5.05347656 9.21507813 5.04445313 10.06640625 5.03515625 C11.02353516 5.01775391 11.02353516 5.01775391 12 5 C12.66 3.68 13.32 2.36 14 1 C13.25 5.75 13.25 5.75 11 8 C8.90625 8.265625 8.90625 8.265625 6.5 8.25 C5.7059375 8.25515625 4.911875 8.2603125 4.09375 8.265625 C2 8 2 8 0 6 C-0.125 2.875 -0.125 2.875 0 0 Z " fill="#292929" transform="translate(85,62)"/>
<path d="M0 0 C0.33 0 0.66 0 1 0 C1.20086443 3.71599191 1.1519437 4.77208445 -1 8 C-0.34 9.32 0.32 10.64 1 12 C0.34 12.66 -0.32 13.32 -1 14 C-1.3403125 13.0409375 -1.3403125 13.0409375 -1.6875 12.0625 C-2.85250896 9.72806339 -2.85250896 9.72806339 -5.625 9.25 C-6.40875 9.1675 -7.1925 9.085 -8 9 C-8.33 8.01 -8.66 7.02 -9 6 C-8.071875 5.938125 -7.14375 5.87625 -6.1875 5.8125 C-2.80967689 5.31837701 -2.80967689 5.31837701 -1.1875 2.4375 C-0.795625 1.633125 -0.40375 0.82875 0 0 Z " fill="#626262" transform="translate(98,51)"/>
<path d="M0 0 C0.66 0 1.32 0 2 0 C2 4.29 2 8.58 2 13 C1.34 13 0.68 13 0 13 C0 10.03 0 7.06 0 4 C-0.66 4 -1.32 4 -2 4 C-1.34 2.68 -0.68 1.36 0 0 Z " fill="#3E3E3E" transform="translate(32,53)"/>
<path d="M0 0 C0.99 0.66 1.98 1.32 3 2 C2.236875 2.7425 1.47375 3.485 0.6875 4.25 C-1.4393702 6.4263323 -3.2559956 8.52167796 -5 11 C-5.66 10.34 -6.32 9.68 -7 9 C-4.69 6.03 -2.38 3.06 0 0 Z " fill="#5A5A5A" transform="translate(29,56)"/>
<path d="M0 0 C6.75 0.75 6.75 0.75 9 3 C8.625 5.125 8.625 5.125 8 7 C7.4121875 6.0409375 7.4121875 6.0409375 6.8125 5.0625 C4.61527704 2.56221181 3.24208567 2.35049575 0 2 C0 1.34 0 0.68 0 0 Z " fill="#333333" transform="translate(89,48)"/>
<path d="M0 0 C0.33 1.32 0.66 2.64 1 4 C-0.625 5.5625 -0.625 5.5625 -3 7 C-6.25 6.6875 -6.25 6.6875 -9 6 C-9 5.67 -9 5.34 -9 5 C-6.36 4.67 -3.72 4.34 -1 4 C-0.67 2.68 -0.34 1.36 0 0 Z " fill="#434343" transform="translate(98,63)"/>
<path d="M0 0 C0.33 0 0.66 0 1 0 C2.14507772 5.28497409 2.14507772 5.28497409 2 8 C-0.4375 10.5 -0.4375 10.5 -3 12 C-2.67 10.68 -2.34 9.36 -2 8 C-1.34 8 -0.68 8 0 8 C0 5.36 0 2.72 0 0 Z " fill="#C2E0C2" transform="translate(120,57)"/>
<path d="M0 0 C1.09658936 3.28976808 0.79953138 4.71303767 0 8 C-0.99 8.33 -1.98 8.66 -3 9 C-3.36923077 3.46153846 -3.36923077 3.46153846 -1.5 1.125 C-1.005 0.75375 -0.51 0.3825 0 0 Z " fill="#6A6A6A" transform="translate(87,58)"/>
</svg>
