<?xml version="1.0" encoding="UTF-8"?>
<svg version="1.1" xmlns="http://www.w3.org/2000/svg" width="127" height="123">
<path d="M0 0 C41.91 0 83.82 0 127 0 C127 40.59 127 81.18 127 123 C85.09 123 43.18 123 0 123 C0 82.41 0 41.82 0 0 Z " fill="#FDFDFD" transform="translate(0,0)"/>
<path d="M0 0 C41.91 0 83.82 0 127 0 C127 40.59 127 81.18 127 123 C85.09 123 43.18 123 0 123 C0 82.41 0 41.82 0 0 Z M15 13 C13.4 27.7 13.4 27.7 18 33 C18.20130447 35.88355049 17.60364915 38.12105788 17 41 C16.34 41.66 15.68 42.32 15 43 C14.78758231 45.96629497 14.6960442 48.83678109 14.69921875 51.8046875 C14.69493362 52.68021271 14.6906485 53.55573792 14.68623352 54.45779419 C14.68048441 56.31218602 14.67999422 58.16660041 14.68432617 60.02099609 C14.6874798 62.85683827 14.66405675 65.69163114 14.63867188 68.52734375 C14.63639829 70.32812368 14.63569566 72.12890642 14.63671875 73.9296875 C14.627509 74.77771942 14.61829926 75.62575134 14.60881042 76.4994812 C14.64408409 80.99631775 14.76280645 83.5969056 18 87 C18.20130447 89.88355049 17.60364915 92.12105788 17 95 C16.01 95.99 16.01 95.99 15 97 C15 102.28 15 107.56 15 113 C48 113 81 113 115 113 C116.37198868 98.31482249 116.37198868 98.31482249 112 92 C112.32142857 85.67857143 112.32142857 85.67857143 115 83 C115.35920966 80.04482808 115.35920966 80.04482808 115.3125 76.6875 C115.33763672 74.99173828 115.33763672 74.99173828 115.36328125 73.26171875 C114.96714322 69.70499561 113.8895199 67.97498877 112 65 C112.32142857 58.67857143 112.32142857 58.67857143 115 56 C115.35920966 53.04482808 115.35920966 53.04482808 115.3125 49.6875 C115.33763672 47.99173828 115.33763672 47.99173828 115.36328125 46.26171875 C114.96714322 42.70499561 113.8895199 40.97498877 112 38 C112.32142857 31.67857143 112.32142857 31.67857143 115 29 C115 23.72 115 18.44 115 13 C82 13 49 13 15 13 Z " fill="#000000" transform="translate(0,0)"/>
<path d="M0 0 C41.91 0 83.82 0 127 0 C127 10.89 127 21.78 127 33 C125.68 31.68 124.36 30.36 123 29 C123 21.08 123 13.16 123 5 C84.72 5 46.44 5 7 5 C7 12.92 7 20.84 7 29 C6.01 30.32 5.02 31.64 4 33 C3.79869553 35.88355049 4.39635085 38.12105788 5 41 C5.66 41.66 6.32 42.32 7 43 C7.21241769 45.96629497 7.3039558 48.83678109 7.30078125 51.8046875 C7.30506638 52.68021271 7.3093515 53.55573792 7.31376648 54.45779419 C7.31951559 56.31218602 7.32000578 58.16660041 7.31567383 60.02099609 C7.3125202 62.85683827 7.33594325 65.69163114 7.36132812 68.52734375 C7.36360171 70.32812368 7.36430434 72.12890642 7.36328125 73.9296875 C7.372491 74.77771942 7.38170074 75.62575134 7.39118958 76.4994812 C7.35591591 80.99631775 7.23719355 83.5969056 4 87 C3.79869553 89.88355049 4.39635085 92.12105788 5 95 C5.66 95.66 6.32 96.32 7 97 C7 104.92 7 112.84 7 121 C45.28 121 83.56 121 123 121 C123 113.08 123 105.16 123 97 C124.32 95.35 125.64 93.7 127 92 C127 102.23 127 112.46 127 123 C85.09 123 43.18 123 0 123 C0 82.41 0 41.82 0 0 Z " fill="#FDFEFD" transform="translate(0,0)"/>
<path d="M0 0 C2.64 0 5.28 0 8 0 C8.05607422 1.33804688 8.05607422 1.33804688 8.11328125 2.703125 C8.17902344 3.87359375 8.24476562 5.0440625 8.3125 6.25 C8.37050781 7.41015625 8.42851563 8.5703125 8.48828125 9.765625 C9.03138738 13.19838742 9.91233002 14.34809489 12 17 C12.20130447 19.88355049 11.60364915 22.12105788 11 25 C10.34 25.66 9.68 26.32 9 27 C8.67 34.92 8.34 42.84 8 51 C-30.28 51 -68.56 51 -108 51 C-108 43.08 -108 35.16 -108 27 C-105.36 27 -102.72 27 -100 27 C-100 32.28 -100 37.56 -100 43 C-67 43 -34 43 0 43 C0.31404494 28.3211768 0.31404494 28.3211768 -4 22 C-3.67857143 15.67857143 -3.67857143 15.67857143 -1 13 C-0.53513282 9.87803664 -0.53513282 9.87803664 -0.375 6.375 C-0.30023438 5.18648438 -0.22546875 3.99796875 -0.1484375 2.7734375 C-0.07496094 1.40058594 -0.07496094 1.40058594 0 0 Z " fill="#000000" transform="translate(115,70)"/>
<path d="M0 0 C2.90660244 3.10467703 3.37001199 5.21162328 3.34057617 9.41113281 C3.34034958 10.49195129 3.34012299 11.57276978 3.33988953 12.68634033 C3.32440567 13.84687927 3.30892181 15.00741821 3.29296875 16.203125 C3.28872391 17.39605164 3.28447906 18.58897827 3.28010559 19.8180542 C3.26331023 23.62893219 3.22565518 27.43928178 3.1875 31.25 C3.17245433 33.8333257 3.15876572 36.41665968 3.14648438 39 C3.11340381 45.33351368 3.06319524 51.66671909 3 58 C-0.95117188 54.40429688 -0.95117188 54.40429688 -1.390625 50.765625 C-1.34421875 49.60546875 -1.2978125 48.4453125 -1.25 47.25 C-1.21390625 46.07953125 -1.1778125 44.9090625 -1.140625 43.703125 C-1.09421875 42.81109375 -1.0478125 41.9190625 -1 41 C-2.0725 41.226875 -3.145 41.45375 -4.25 41.6875 C-8 42 -8 42 -10.375 41.0625 C-12.74429161 38.05532218 -13.40188356 34.80693335 -13 31 C-12.51402344 30.38898437 -12.02804688 29.77796875 -11.52734375 29.1484375 C-9.44297176 26.21645644 -9.60028023 24.12626734 -9.625 20.5625 C-9.61726563 19.45003906 -9.60953125 18.33757813 -9.6015625 17.19140625 C-10.03703628 13.70334664 -11.13966035 11.92621064 -13 9 C-12.93570637 5.2709695 -12.75712845 2.96912441 -10.4375 0 C-6.91795367 -1.44391644 -3.57144108 -1.34204049 0 0 Z " fill="#078207" transform="translate(124,29)"/>
<path d="M0 0 C2.64 0 5.28 0 8 0 C8.01458252 1.19077148 8.02916504 2.38154297 8.04418945 3.60839844 C8.10219235 8.02927577 8.17942515 12.44964481 8.26245117 16.87011719 C8.29569114 18.78279364 8.32372599 20.69556797 8.34643555 22.60839844 C8.37999869 25.35914794 8.43231489 28.10900132 8.48828125 30.859375 C8.49467117 31.71368103 8.5010611 32.56798706 8.50764465 33.44818115 C8.61863909 37.9370887 8.76564095 40.608101 12 44 C12.34795099 46.83253849 11.92455754 49.30622741 11 52 C8.06162832 54.85194898 6.46402564 55 2.375 55 C-1 54 -1 54 -3 51.875 C-4.28596488 48.17785097 -3.92518423 45.77190494 -3 42 C-2.34 41.34 -1.68 40.68 -1 40 C-0.75393985 36.99113276 -0.62619218 34.06782248 -0.5859375 31.0546875 C-0.56657135 30.1696756 -0.5472052 29.2846637 -0.5272522 28.37283325 C-0.46737277 25.54032084 -0.42103787 22.70776797 -0.375 19.875 C-0.33682789 17.95701332 -0.29777662 16.03904393 -0.2578125 14.12109375 C-0.16166445 9.41420252 -0.07766458 4.70723104 0 0 Z " fill="#000000" transform="translate(7,43)"/>
<path d="M0 0 C2.64 0 5.28 0 8 0 C8.03738281 0.89203125 8.07476562 1.7840625 8.11328125 2.703125 C8.17902344 3.87359375 8.24476562 5.0440625 8.3125 6.25 C8.39951172 7.99023438 8.39951172 7.99023438 8.48828125 9.765625 C9.03113504 13.1967925 9.89848491 14.35761239 12 17 C12.34795099 19.83253849 11.92455754 22.30622741 11 25 C8.06162832 27.85194898 6.46402564 28 2.375 28 C-1 27 -1 27 -3 24.875 C-4.28596488 21.17785097 -3.92518423 18.77190494 -3 15 C-2.34 14.34 -1.68 13.68 -1 13 C-0.53513282 9.87803664 -0.53513282 9.87803664 -0.375 6.375 C-0.30023438 5.18648438 -0.22546875 3.99796875 -0.1484375 2.7734375 C-0.09945312 1.85820313 -0.05046875 0.94296875 0 0 Z " fill="#078207" transform="translate(115,70)"/>
<path d="M0 0 C2.61254032 1.09857867 3.41497065 2.35602571 4.8671875 4.78515625 C5.20776367 7.71777344 5.20776367 7.71777344 5.16015625 11.08203125 C5.15048828 12.28730469 5.14082031 13.49257812 5.13085938 14.734375 C5.10572266 15.98863281 5.08058594 17.24289063 5.0546875 18.53515625 C5.03438477 20.43974609 5.03438477 20.43974609 5.01367188 22.3828125 C4.9783199 25.51735469 4.92896998 28.6510417 4.8671875 31.78515625 C0.91601562 28.18945312 0.91601562 28.18945312 0.4765625 24.55078125 C0.52296875 23.390625 0.569375 22.23046875 0.6171875 21.03515625 C0.65328125 19.8646875 0.689375 18.69421875 0.7265625 17.48828125 C0.77296875 16.59625 0.819375 15.70421875 0.8671875 14.78515625 C-0.2053125 15.01203125 -1.2778125 15.23890625 -2.3828125 15.47265625 C-6.1328125 15.78515625 -6.1328125 15.78515625 -8.5078125 14.84765625 C-10.96729243 11.72600865 -11.56129657 8.7256794 -11.1328125 4.78515625 C-8.01830374 -0.13777696 -5.40963382 -0.74724514 0 0 Z " fill="#078207" transform="translate(122.1328125,55.21484375)"/>
<path d="M0 0 C2.0625 1.5625 2.0625 1.5625 3 4 C3.17821261 6.85140177 2.92914963 9.292848 2 12 C-0.93837168 14.85194898 -2.53597436 15 -6.625 15 C-10 14 -10 14 -12 11.875 C-13.30782688 8.11499772 -13.06090617 5.81926223 -12 2 C-8.81688665 -2.07438508 -4.54417813 -1.38635943 0 0 Z " fill="#078207" transform="translate(16,83)"/>
<path d="M0 0 C2.0625 1.5625 2.0625 1.5625 3 4 C3.17821261 6.85140177 2.92914963 9.292848 2 12 C-0.93837168 14.85194898 -2.53597436 15 -6.625 15 C-10 14 -10 14 -12 11.875 C-13.30782688 8.11499772 -13.06090617 5.81926223 -12 2 C-8.81688665 -2.07438508 -4.54417813 -1.38635943 0 0 Z " fill="#078207" transform="translate(16,29)"/>
<path d="M0 0 C2.64 0 5.28 0 8 0 C8 4.29 8 8.58 8 13 C5.36 13 2.72 13 0 13 C0 8.71 0 4.42 0 0 Z " fill="#000200" transform="translate(115,70)"/>
<path d="M0 0 C2.64 0 5.28 0 8 0 C8 4.29 8 8.58 8 13 C5.36 13 2.72 13 0 13 C0 8.71 0 4.42 0 0 Z " fill="#000200" transform="translate(115,43)"/>
<path d="M0 0 C0.33 0 0.66 0 1 0 C1 7.26 1 14.52 1 22 C-3 18 -3 18 -3.49609375 14.94140625 C-3.47675781 13.82636719 -3.45742187 12.71132812 -3.4375 11.5625 C-3.43621094 10.45003906 -3.43492188 9.33757812 -3.43359375 8.19140625 C-2.96505857 4.74281849 -2.04711877 2.78679019 0 0 Z " fill="#FBFDFB" transform="translate(126,65)"/>
<path d="M0 0 C0.33 0 0.66 0 1 0 C1 7.26 1 14.52 1 22 C-3 18 -3 18 -3.49609375 14.94140625 C-3.47675781 13.82636719 -3.45742187 12.71132813 -3.4375 11.5625 C-3.43621094 10.45003906 -3.43492188 9.33757813 -3.43359375 8.19140625 C-2.96505857 4.74281849 -2.04711877 2.78679019 0 0 Z " fill="#FBFDFB" transform="translate(126,38)"/>
<path d="M0 0 C5.26170694 1.41167747 8.72171358 3.74850232 13 7 C11.73809862 10.78570414 10.45144185 11.21831571 7.0625 13.1875 C6.16660156 13.71730469 5.27070312 14.24710938 4.34765625 14.79296875 C2 16 2 16 0 16 C1.17744585 12.46766245 1.95605641 12.13691925 5.0625 10.3125 C6.16271484 9.65701172 6.16271484 9.65701172 7.28515625 8.98828125 C7.85105469 8.66214844 8.41695312 8.33601563 9 8 C8.3503125 7.59007812 7.700625 7.18015625 7.03125 6.7578125 C6.1959375 6.21898437 5.360625 5.68015625 4.5 5.125 C3.6646875 4.59132813 2.829375 4.05765625 1.96875 3.5078125 C1.3190625 3.01023438 0.669375 2.51265625 0 2 C0 1.34 0 0.68 0 0 Z " fill="#202020" transform="translate(91,31)"/>
<path d="M0 0 C0.33 0.99 0.66 1.98 1 3 C-1.97 4.65 -4.94 6.3 -8 8 C-5.14623384 11.06329525 -5.14623384 11.06329525 -1.8125 13.0625 C-0.884375 13.701875 0.04375 14.34125 1 15 C1 15.66 1 16.32 1 17 C-3.77609498 15.35821735 -7.79382904 12.73453298 -12 10 C-10.52041491 6.0884532 -8.46042529 4.7725476 -4.875 2.75 C-3.96492188 2.22921875 -3.05484375 1.7084375 -2.1171875 1.171875 C-1.41851562 0.78515625 -0.71984375 0.3984375 0 0 Z " fill="#1D1D1D" transform="translate(103,84)"/>
</svg>
