<?xml version="1.0" encoding="UTF-8"?>
<svg version="1.1" xmlns="http://www.w3.org/2000/svg" width="603" height="603">
<path d="M0 0 C198.99 0 397.98 0 603 0 C603 198.99 603 397.98 603 603 C404.01 603 205.02 603 0 603 C0 404.01 0 205.02 0 0 Z " fill="#FEFEFE" transform="translate(0,0)"/>
<path d="M0 0 C4.56944444 2.13888889 4.56944444 2.13888889 6 5 C55.5 5.495 55.5 5.495 106 6 C106.33 5.01 106.66 4.02 107 3 C110.57750399 0.07295128 113.59121765 -0.46606928 118.06640625 -0.296875 C120.89011354 0.1366639 122.77655654 1.24819606 125 3 C125.33 3.66 125.66 4.32 126 5 C175.5 5.495 175.5 5.495 226 6 C226.33 5.01 226.66 4.02 227 3 C230.57750399 0.07295128 233.59121765 -0.46606928 238.06640625 -0.296875 C240.89011354 0.1366639 242.77655654 1.24819606 245 3 C245.33 3.66 245.66 4.32 246 5 C284.28 5.33 322.56 5.66 362 6 C362.1875 63.625 362.1875 63.625 362.20776367 81.81103516 C362.23764454 87.19708868 362.23764454 87.19708868 362.27412415 92.58309937 C362.28719103 94.97946999 362.29046075 97.37590632 362.28596497 99.77230835 C362.28105977 103.40554145 362.30737332 107.037352 362.34057617 110.67041016 C362.33195399 111.73555155 362.32333181 112.80069294 362.31444836 113.89811134 C362.41654068 120.45931048 363.26744853 123.41050035 368 128 C368.6640625 130.125 368.6640625 130.125 368.625 132 C368.63789062 132.61875 368.65078125 133.2375 368.6640625 133.875 C368 136 368 136 365.49971008 138.42471313 C361.7568912 142.85979468 362.29549151 147.77288602 362.34057617 153.32958984 C362.33009247 154.46188019 362.31960876 155.59417053 362.30880737 156.76077271 C362.28006133 160.49443986 362.28634895 164.22717952 362.29296875 167.9609375 C362.27985357 170.55312258 362.26454992 173.14529744 362.24714661 175.73745728 C362.21133726 181.85721107 362.19756092 187.97664921 362.1945222 194.09649527 C362.18982719 201.0663788 362.15688983 208.03604032 362.12162435 215.00582576 C362.04974147 229.33718264 362.01318136 243.66847492 362 258 C361.10878134 258.00219984 361.10878134 258.00219984 360.19955826 258.00444412 C345.744131 258.04149225 331.28891655 258.10048031 316.83368301 258.18390274 C309.84321964 258.22371597 302.85286922 258.25609674 295.86230469 258.27099609 C289.11889666 258.28538952 282.37588911 258.32047419 275.63262177 258.36830902 C273.0569945 258.38317266 270.48131729 258.39104385 267.90564728 258.39188385 C264.3042294 258.39424018 260.70378921 258.42121409 257.10253906 258.45410156 C255.49708221 258.44655602 255.49708221 258.44655602 253.85919189 258.43885803 C248.25047343 258.38096626 248.25047343 258.38096626 243.49359131 260.97161865 C243.00070618 261.6409845 242.50782104 262.31035034 242 263 C238.34711807 264.21762731 235.84245864 264.39075851 232 264 C231.13601593 263.18028214 230.27203186 262.36056427 229.38186646 261.51600647 C225.35038797 257.99654001 221.35358183 258.30251125 216.20263672 258.36889648 C215.23282867 258.36174118 214.26302063 258.35458588 213.26382446 258.34721375 C210.06862831 258.33034939 206.87483939 258.34971397 203.6796875 258.37109375 C201.45581954 258.37026498 199.23195164 258.36780531 197.00808716 258.36378479 C192.35269686 258.3609285 187.69778814 258.3756145 183.04248047 258.40307617 C177.07231295 258.43719782 171.10300427 258.43112569 165.13279533 258.4124136 C160.54315008 258.40185238 155.95370514 258.41077287 151.36407852 258.42579842 C149.16243204 258.43098444 146.96076469 258.43049336 144.75912094 258.42425346 C141.68514639 258.41881046 138.61240796 258.4391464 135.53857422 258.46655273 C134.62730774 258.46002686 133.71604126 258.45350098 132.77716064 258.44677734 C127.77043352 258.45037176 127.77043352 258.45037176 123.59133911 260.97084045 C123.0661972 261.6404631 122.5410553 262.31008575 122 263 C118.34711807 264.21762731 115.84245864 264.39075851 112 264 C111.13601593 263.18028214 110.27203186 262.36056427 109.38186646 261.51600647 C105.35038797 257.99654001 101.35358183 258.30251125 96.20263672 258.36889648 C95.23282867 258.36174118 94.26302063 258.35458588 93.26382446 258.34721375 C90.06862831 258.33034939 86.87483939 258.34971397 83.6796875 258.37109375 C81.45581954 258.37026498 79.23195164 258.36780531 77.00808716 258.36378479 C72.35269686 258.3609285 67.69778814 258.3756145 63.04248047 258.40307617 C57.07231295 258.43719782 51.10300427 258.43112569 45.13279533 258.4124136 C40.54315008 258.40185238 35.95370514 258.41077287 31.36407852 258.42579842 C29.16243204 258.43098444 26.96076469 258.43049336 24.75912094 258.42425346 C21.68514639 258.41881046 18.61240796 258.4391464 15.53857422 258.46655273 C14.62730774 258.46002686 13.71604126 258.45350098 12.77716064 258.44677734 C7.77043352 258.45037176 7.77043352 258.45037176 3.59133911 260.97084045 C3.0661972 261.6404631 2.5410553 262.31008575 2 263 C-1.65288193 264.21762731 -4.15754136 264.39075851 -8 264 C-8.8323819 263.18086624 -9.66476379 262.36173248 -10.52236938 261.51777649 C-14.88302962 257.7161394 -19.80225147 258.29572977 -25.32958984 258.34057617 C-26.46188019 258.33009247 -27.59417053 258.31960876 -28.76077271 258.30880737 C-32.49443986 258.28006133 -36.22717952 258.28634895 -39.9609375 258.29296875 C-42.55312258 258.27985357 -45.14529744 258.26454992 -47.73745728 258.24714661 C-53.85721107 258.21133726 -59.97664921 258.19756092 -66.09649527 258.1945222 C-73.0663788 258.18982719 -80.03604032 258.15688983 -87.00582576 258.12162435 C-101.33718264 258.04974147 -115.66847492 258.01318136 -130 258 C-130.00219984 257.10878134 -130.00219984 257.10878134 -130.00444412 256.19955826 C-130.04149225 241.744131 -130.10048031 227.28891655 -130.18390274 212.83368301 C-130.22371597 205.84321964 -130.25609674 198.85286922 -130.27099609 191.86230469 C-130.28538952 185.11889666 -130.32047419 178.37588911 -130.36830902 171.63262177 C-130.38317266 169.0569945 -130.39104385 166.48131729 -130.39188385 163.90564728 C-130.39424018 160.3042294 -130.42121409 156.70378921 -130.45410156 153.10253906 C-130.4490712 152.0322345 -130.44404083 150.96192993 -130.43885803 149.85919189 C-130.38096626 144.25047343 -130.38096626 144.25047343 -132.97161865 139.49359131 C-133.6409845 139.00070618 -134.31035034 138.50782104 -135 138 C-136.53784153 133.3864754 -136.74741859 129.56278431 -134.625 125.125 C-133 123 -133 123 -131 122 C-130.67 83.72 -130.34 45.44 -130 6 C-91.72 6 -53.44 6 -14 6 C-13.67 5.01 -13.34 4.02 -13 3 C-8.93224052 -0.32816685 -5.05456688 -0.77605471 0 0 Z " fill="#FDFDFD" transform="translate(187,170)"/>
<path d="M0 0 C4.56944444 2.13888889 4.56944444 2.13888889 6 5 C55.5 5.495 55.5 5.495 106 6 C106.33 5.01 106.66 4.02 107 3 C110.57750399 0.07295128 113.59121765 -0.46606928 118.06640625 -0.296875 C120.89011354 0.1366639 122.77655654 1.24819606 125 3 C125.33 3.66 125.66 4.32 126 5 C175.5 5.495 175.5 5.495 226 6 C226.33 5.01 226.66 4.02 227 3 C230.57750399 0.07295128 233.59121765 -0.46606928 238.06640625 -0.296875 C240.89011354 0.1366639 242.77655654 1.24819606 245 3 C245.33 3.66 245.66 4.32 246 5 C284.28 5.33 322.56 5.66 362 6 C362.1875 63.625 362.1875 63.625 362.20776367 81.81103516 C362.23764454 87.19708868 362.23764454 87.19708868 362.27412415 92.58309937 C362.28719103 94.97946999 362.29046075 97.37590632 362.28596497 99.77230835 C362.28105977 103.40554145 362.30737332 107.037352 362.34057617 110.67041016 C362.33195399 111.73555155 362.32333181 112.80069294 362.31444836 113.89811134 C362.41654068 120.45931048 363.26744853 123.41050035 368 128 C368.6640625 130.125 368.6640625 130.125 368.625 132 C368.63789062 132.61875 368.65078125 133.2375 368.6640625 133.875 C368 136 368 136 365.49971008 138.42471313 C361.7568912 142.85979468 362.29549151 147.77288602 362.34057617 153.32958984 C362.33009247 154.46188019 362.31960876 155.59417053 362.30880737 156.76077271 C362.28006133 160.49443986 362.28634895 164.22717952 362.29296875 167.9609375 C362.27985357 170.55312258 362.26454992 173.14529744 362.24714661 175.73745728 C362.21133726 181.85721107 362.19756092 187.97664921 362.1945222 194.09649527 C362.18982719 201.0663788 362.15688983 208.03604032 362.12162435 215.00582576 C362.04974147 229.33718264 362.01318136 243.66847492 362 258 C361.10878134 258.00219984 361.10878134 258.00219984 360.19955826 258.00444412 C345.744131 258.04149225 331.28891655 258.10048031 316.83368301 258.18390274 C309.84321964 258.22371597 302.85286922 258.25609674 295.86230469 258.27099609 C289.11889666 258.28538952 282.37588911 258.32047419 275.63262177 258.36830902 C273.0569945 258.38317266 270.48131729 258.39104385 267.90564728 258.39188385 C264.3042294 258.39424018 260.70378921 258.42121409 257.10253906 258.45410156 C255.49708221 258.44655602 255.49708221 258.44655602 253.85919189 258.43885803 C248.25047343 258.38096626 248.25047343 258.38096626 243.49359131 260.97161865 C243.00070618 261.6409845 242.50782104 262.31035034 242 263 C238.34711807 264.21762731 235.84245864 264.39075851 232 264 C231.13601593 263.18028214 230.27203186 262.36056427 229.38186646 261.51600647 C225.35038797 257.99654001 221.35358183 258.30251125 216.20263672 258.36889648 C215.23282867 258.36174118 214.26302063 258.35458588 213.26382446 258.34721375 C210.06862831 258.33034939 206.87483939 258.34971397 203.6796875 258.37109375 C201.45581954 258.37026498 199.23195164 258.36780531 197.00808716 258.36378479 C192.35269686 258.3609285 187.69778814 258.3756145 183.04248047 258.40307617 C177.07231295 258.43719782 171.10300427 258.43112569 165.13279533 258.4124136 C160.54315008 258.40185238 155.95370514 258.41077287 151.36407852 258.42579842 C149.16243204 258.43098444 146.96076469 258.43049336 144.75912094 258.42425346 C141.68514639 258.41881046 138.61240796 258.4391464 135.53857422 258.46655273 C134.62730774 258.46002686 133.71604126 258.45350098 132.77716064 258.44677734 C127.77043352 258.45037176 127.77043352 258.45037176 123.59133911 260.97084045 C123.0661972 261.6404631 122.5410553 262.31008575 122 263 C118.34711807 264.21762731 115.84245864 264.39075851 112 264 C111.13601593 263.18028214 110.27203186 262.36056427 109.38186646 261.51600647 C105.35038797 257.99654001 101.35358183 258.30251125 96.20263672 258.36889648 C95.23282867 258.36174118 94.26302063 258.35458588 93.26382446 258.34721375 C90.06862831 258.33034939 86.87483939 258.34971397 83.6796875 258.37109375 C81.45581954 258.37026498 79.23195164 258.36780531 77.00808716 258.36378479 C72.35269686 258.3609285 67.69778814 258.3756145 63.04248047 258.40307617 C57.07231295 258.43719782 51.10300427 258.43112569 45.13279533 258.4124136 C40.54315008 258.40185238 35.95370514 258.41077287 31.36407852 258.42579842 C29.16243204 258.43098444 26.96076469 258.43049336 24.75912094 258.42425346 C21.68514639 258.41881046 18.61240796 258.4391464 15.53857422 258.46655273 C14.62730774 258.46002686 13.71604126 258.45350098 12.77716064 258.44677734 C7.77043352 258.45037176 7.77043352 258.45037176 3.59133911 260.97084045 C3.0661972 261.6404631 2.5410553 262.31008575 2 263 C-1.65288193 264.21762731 -4.15754136 264.39075851 -8 264 C-8.8323819 263.18086624 -9.66476379 262.36173248 -10.52236938 261.51777649 C-14.88302962 257.7161394 -19.80225147 258.29572977 -25.32958984 258.34057617 C-26.46188019 258.33009247 -27.59417053 258.31960876 -28.76077271 258.30880737 C-32.49443986 258.28006133 -36.22717952 258.28634895 -39.9609375 258.29296875 C-42.55312258 258.27985357 -45.14529744 258.26454992 -47.73745728 258.24714661 C-53.85721107 258.21133726 -59.97664921 258.19756092 -66.09649527 258.1945222 C-73.0663788 258.18982719 -80.03604032 258.15688983 -87.00582576 258.12162435 C-101.33718264 258.04974147 -115.66847492 258.01318136 -130 258 C-130.00219984 257.10878134 -130.00219984 257.10878134 -130.00444412 256.19955826 C-130.04149225 241.744131 -130.10048031 227.28891655 -130.18390274 212.83368301 C-130.22371597 205.84321964 -130.25609674 198.85286922 -130.27099609 191.86230469 C-130.28538952 185.11889666 -130.32047419 178.37588911 -130.36830902 171.63262177 C-130.38317266 169.0569945 -130.39104385 166.48131729 -130.39188385 163.90564728 C-130.39424018 160.3042294 -130.42121409 156.70378921 -130.45410156 153.10253906 C-130.4490712 152.0322345 -130.44404083 150.96192993 -130.43885803 149.85919189 C-130.38096626 144.25047343 -130.38096626 144.25047343 -132.97161865 139.49359131 C-133.6409845 139.00070618 -134.31035034 138.50782104 -135 138 C-136.53784153 133.3864754 -136.74741859 129.56278431 -134.625 125.125 C-133 123 -133 123 -131 122 C-130.67 83.72 -130.34 45.44 -130 6 C-91.72 6 -53.44 6 -14 6 C-13.67 5.01 -13.34 4.02 -13 3 C-8.93224052 -0.32816685 -5.05456688 -0.77605471 0 0 Z M-118 18 C-118.11585406 31.456199 -118.20469572 44.91227933 -118.25906086 58.3688755 C-118.28515358 64.61735273 -118.32054689 70.86548871 -118.37719727 77.11376953 C-118.43152683 83.14381641 -118.46142298 89.17353508 -118.47438622 95.20380783 C-118.48362425 97.50433901 -118.50166403 99.80485224 -118.52865028 102.10524368 C-118.56495176 105.32788143 -118.56994469 108.54916331 -118.56762695 111.77197266 C-118.58560333 112.72287781 -118.60357971 113.67378296 -118.62210083 114.65350342 C-118.57322164 120.93517703 -117.45589831 123.56626791 -113 128 C-112.3359375 130.125 -112.3359375 130.125 -112.375 132 C-112.36210938 132.61875 -112.34921875 133.2375 -112.3359375 133.875 C-113 136 -113 136 -115.50602722 138.49356079 C-119.05350363 142.6933128 -118.6675289 146.94346605 -118.56762695 152.22802734 C-118.56835709 153.24327484 -118.56908722 154.25852234 -118.56983948 155.30453491 C-118.56636552 158.64888568 -118.52751148 161.99183106 -118.48828125 165.3359375 C-118.47895249 167.65906005 -118.47183668 169.98219246 -118.46684265 172.30532837 C-118.44777807 178.41130873 -118.39868082 184.51669172 -118.34332275 190.62243652 C-118.29211928 196.85628173 -118.26932619 203.09022374 -118.24414062 209.32421875 C-118.19056246 221.54974122 -118.10525532 233.77482088 -118 246 C-104.50922588 246.09260248 -91.01852713 246.16371565 -77.52750015 246.20724869 C-71.26333659 246.22814037 -64.99939015 246.2564874 -58.73535156 246.30175781 C-52.6923585 246.34515836 -46.64957454 246.36912519 -40.60643768 246.37950897 C-38.29869036 246.38691069 -35.99095472 246.40136418 -33.6832962 246.42292023 C-30.45560299 246.45187649 -27.22877836 246.45595916 -24.00097656 246.45410156 C-22.56383301 246.47567322 -22.56383301 246.47567322 -21.09765625 246.49768066 C-15.8954606 246.54812294 -15.8954606 246.54812294 -11.49993896 244.03411865 C-11.00495911 243.3628595 -10.50997925 242.69160034 -10 242 C-5.99634744 239.99817372 -1.25018975 240.65420284 2.9375 241.8125 C5 243 5 243 6 246 C18.96923649 246.0926089 31.93839455 246.16371889 44.90789413 246.20724869 C50.92992568 246.22813898 56.9517313 246.25648342 62.97363281 246.30175781 C68.78320797 246.3451634 74.59256558 246.36912624 80.40229034 246.37950897 C82.62072424 246.3869098 84.839146 246.40136157 87.05748749 246.42292023 C90.16065871 246.45188334 93.26292668 246.4559589 96.36621094 246.45410156 C97.74725006 246.47567322 97.74725006 246.47567322 99.15618896 246.49768066 C104.21652386 246.53225954 104.21652386 246.53225954 108.47711182 244.03411865 C108.97966492 243.3628595 109.48221802 242.69160034 110 242 C114.00365256 239.99817372 118.74981025 240.65420284 122.9375 241.8125 C125 243 125 243 126 246 C138.96923649 246.0926089 151.93839455 246.16371889 164.90789413 246.20724869 C170.92992568 246.22813898 176.9517313 246.25648342 182.97363281 246.30175781 C188.78320797 246.3451634 194.59256558 246.36912624 200.40229034 246.37950897 C202.62072424 246.3869098 204.839146 246.40136157 207.05748749 246.42292023 C210.16065871 246.45188334 213.26292668 246.4559589 216.36621094 246.45410156 C217.74725006 246.47567322 217.74725006 246.47567322 219.15618896 246.49768066 C224.21652386 246.53225954 224.21652386 246.53225954 228.47711182 244.03411865 C228.97966492 243.3628595 229.48221802 242.69160034 230 242 C234.00365256 239.99817372 238.74981025 240.65420284 242.9375 241.8125 C245 243 245 243 246 246 C280.32 246 314.64 246 350 246 C350.0825 228.9225 350.165 211.845 350.25 194.25 C350.28641602 188.85688477 350.32283203 183.46376953 350.36035156 177.90722656 C350.37372894 173.07468162 350.37372894 173.07468162 350.3817749 168.24212646 C350.38791901 166.0889353 350.40199105 163.93575794 350.42230225 161.78265381 C350.45152628 158.52185134 350.45562599 155.26189011 350.45410156 152.00097656 C350.47569021 150.56110067 350.47569021 150.56110067 350.497715 149.09213638 C350.56095703 143.91120416 350.56095703 143.91120416 348.03411865 139.56243896 C347.3628595 139.04683411 346.69160034 138.53122925 346 138 C344.60731724 133.82195172 344.33596339 129.88995034 345.8125 125.6875 C347 124 347 124 350 122 C350.44511473 120.06832896 350.44511473 120.06832896 350.36076355 117.81124878 C350.36488754 116.93342743 350.36901154 116.05560608 350.3732605 115.15118408 C350.35708176 113.7032547 350.35708176 113.7032547 350.34057617 112.22607422 C350.34123329 110.70407913 350.34123329 110.70407913 350.34190369 109.15133667 C350.33980772 105.7855936 350.31643831 102.42034393 350.29296875 99.0546875 C350.28737568 96.72584302 350.28310422 94.39699502 350.28010559 92.06814575 C350.26863413 85.92940579 350.23914705 79.79087773 350.20599365 73.65222168 C350.17534237 67.39187487 350.16161083 61.13149392 350.14648438 54.87109375 C350.11427964 42.58063591 350.06305547 30.29033555 350 18 C336.50922588 17.90739752 323.01852713 17.83628435 309.52750015 17.79275131 C303.26333659 17.77185963 296.99939015 17.7435126 290.73535156 17.69824219 C284.6923585 17.65484164 278.64957454 17.63087481 272.60643768 17.62049103 C270.29869036 17.61308931 267.99095472 17.59863582 265.6832962 17.57707977 C262.45560299 17.54812351 259.22877836 17.54404084 256.00097656 17.54589844 C255.04288086 17.53151733 254.08478516 17.51713623 253.09765625 17.50231934 C247.91369848 17.43842619 247.91369848 17.43842619 243.56243896 19.96588135 C243.04683411 20.6371405 242.53122925 21.30839966 242 22 C238.34711807 23.21762731 235.84245864 23.39075851 232 23 C231.13601593 22.18028214 230.27203186 21.36056427 229.38186646 20.51600647 C225.35038797 16.99654001 221.35358183 17.30251125 216.20263672 17.36889648 C215.23282867 17.36174118 214.26302063 17.35458588 213.26382446 17.34721375 C210.06862831 17.33034939 206.87483939 17.34971397 203.6796875 17.37109375 C201.45581954 17.37026498 199.23195164 17.36780531 197.00808716 17.36378479 C192.35269686 17.3609285 187.69778814 17.3756145 183.04248047 17.40307617 C177.07231295 17.43719782 171.10300427 17.43112569 165.13279533 17.4124136 C160.54315008 17.40185238 155.95370514 17.41077287 151.36407852 17.42579842 C149.16243204 17.43098444 146.96076469 17.43049336 144.75912094 17.42425346 C141.68514639 17.41881046 138.61240796 17.4391464 135.53857422 17.46655273 C134.62730774 17.46002686 133.71604126 17.45350098 132.77716064 17.44677734 C127.77043352 17.45037176 127.77043352 17.45037176 123.59133911 19.97084045 C123.0661972 20.6404631 122.5410553 21.31008575 122 22 C118.34711807 23.21762731 115.84245864 23.39075851 112 23 C111.13601593 22.18028214 110.27203186 21.36056427 109.38186646 20.51600647 C105.35038797 16.99654001 101.35358183 17.30251125 96.20263672 17.36889648 C95.23282867 17.36174118 94.26302063 17.35458588 93.26382446 17.34721375 C90.06862831 17.33034939 86.87483939 17.34971397 83.6796875 17.37109375 C81.45581954 17.37026498 79.23195164 17.36780531 77.00808716 17.36378479 C72.35269686 17.3609285 67.69778814 17.3756145 63.04248047 17.40307617 C57.07231295 17.43719782 51.10300427 17.43112569 45.13279533 17.4124136 C40.54315008 17.40185238 35.95370514 17.41077287 31.36407852 17.42579842 C29.16243204 17.43098444 26.96076469 17.43049336 24.75912094 17.42425346 C21.68514639 17.41881046 18.61240796 17.4391464 15.53857422 17.46655273 C14.62730774 17.46002686 13.71604126 17.45350098 12.77716064 17.44677734 C7.77043352 17.45037176 7.77043352 17.45037176 3.59133911 19.97084045 C2.80362625 20.97527443 2.80362625 20.97527443 2 22 C-1.65288193 23.21762731 -4.15754136 23.39075851 -8 23 C-8.85510162 22.17897293 -9.71020325 21.35794586 -10.59121704 20.51203918 C-14.72189123 16.90749576 -18.96780273 17.33293117 -24.22802734 17.43237305 C-25.24327484 17.43164291 -26.25852234 17.43091278 -27.30453491 17.43016052 C-30.64888568 17.43363448 -33.99183106 17.47248852 -37.3359375 17.51171875 C-39.65906005 17.52104751 -41.98219246 17.52816332 -44.30532837 17.53315735 C-50.41130873 17.55222193 -56.51669172 17.60131918 -62.62243652 17.65667725 C-68.85628173 17.70788072 -75.09022374 17.73067381 -81.32421875 17.75585938 C-93.54974122 17.80943754 -105.77482088 17.89474468 -118 18 Z " fill="#010101" transform="translate(187,170)"/>
<path d="M0 0 C4.56944444 2.13888889 4.56944444 2.13888889 6 5 C44.28 5.33 82.56 5.66 122 6 C122.1875 63.625 122.1875 63.625 122.20776367 81.81103516 C122.23764454 87.19708868 122.23764454 87.19708868 122.27412415 92.58309937 C122.28719103 94.97946999 122.29046075 97.37590632 122.28596497 99.77230835 C122.28105977 103.40554145 122.30737332 107.037352 122.34057617 110.67041016 C122.33195399 111.73555155 122.32333181 112.80069294 122.31444836 113.89811134 C122.41654068 120.45931048 123.26744853 123.41050035 128 128 C128.6640625 130.125 128.6640625 130.125 128.625 132 C128.63789062 132.61875 128.65078125 133.2375 128.6640625 133.875 C128 136 128 136 125.49971008 138.42471313 C121.7568912 142.85979468 122.29549151 147.77288602 122.34057617 153.32958984 C122.33009247 154.46188019 122.31960876 155.59417053 122.30880737 156.76077271 C122.28006133 160.49443986 122.28634895 164.22717952 122.29296875 167.9609375 C122.27985357 170.55312258 122.26454992 173.14529744 122.24714661 175.73745728 C122.21133726 181.85721107 122.19756092 187.97664921 122.1945222 194.09649527 C122.18936626 201.75063819 122.15039769 209.40456166 122.11132812 217.05859375 C122.04181561 230.7057919 122.02330376 244.35247106 122 258 C84.05 258 46.1 258 7 258 C7 254.04 7 250.08 7 246 C40.99 246 74.98 246 110 246 C109.93839254 227.6131278 109.93839254 227.6131278 109.83984375 209.2265625 C109.79145518 201.72948951 109.74743088 194.23256586 109.72900391 186.73535156 C109.71388102 180.69219243 109.67951293 174.64942345 109.63169098 168.60643768 C109.61683209 166.29875831 109.60895642 163.99102326 109.60811615 161.6832962 C109.60575835 158.45543113 109.57877347 155.22865472 109.54589844 152.00097656 C109.5509288 151.04288086 109.55595917 150.08478516 109.56114197 149.09765625 C109.57138309 143.9117387 109.57138309 143.9117387 107.02838135 139.56243896 C106.3590155 139.04683411 105.68964966 138.53122925 105 138 C103.46215847 133.3864754 103.25258141 129.56278431 105.375 125.125 C107 123 107 123 109 122 C109.495 70.52 109.495 70.52 110 18 C92.9225 18.0825 75.845 18.165 58.25 18.25 C52.85688477 18.26579102 47.46376953 18.28158203 41.90722656 18.29785156 C37.07465614 18.3310698 37.07465614 18.3310698 32.24212646 18.36956787 C30.08900608 18.38418612 27.93582374 18.39095348 25.78265381 18.39154053 C22.52167869 18.39395149 19.26176783 18.42123809 16.00097656 18.45410156 C15.0410593 18.44907749 14.08114204 18.44405342 13.09213638 18.43887711 C7.90924613 18.42925227 7.90924613 18.42925227 3.56243896 20.97161865 C3.04683411 21.6409845 2.53122925 22.31035034 2 23 C-1.65288193 24.21762731 -4.15754136 24.39075851 -8 24 C-9.29685226 22.77129936 -9.29685226 22.77129936 -10.61990356 21.51777649 C-14.64273063 18.00546089 -18.62635918 18.29151476 -23.76904297 18.34057617 C-24.73552261 18.33009247 -25.70200226 18.31960876 -26.69776917 18.30880737 C-29.87957016 18.28009814 -33.06028039 18.2863443 -36.2421875 18.29296875 C-38.4532304 18.27985128 -40.66426132 18.2645469 -42.87527466 18.24714661 C-48.68512288 18.20728998 -54.49465765 18.19710567 -60.30462646 18.19311523 C-66.23703524 18.18378516 -72.16925975 18.1463723 -78.1015625 18.11132812 C-89.73436639 18.04674531 -101.36703252 18.01351083 -113 18 C-113 14.04 -113 10.08 -113 6 C-80.33 6 -47.66 6 -14 6 C-13.67 5.01 -13.34 4.02 -13 3 C-8.93224052 -0.32816685 -5.05456688 -0.77605471 0 0 Z " fill="#010101" transform="translate(427,170)"/>
<path d="M0 0 C4.56944444 2.13888889 4.56944444 2.13888889 6 5 C55.5 5.495 55.5 5.495 106 6 C106.33 5.01 106.66 4.02 107 3 C110.57750399 0.07295128 113.59121765 -0.46606928 118.06640625 -0.296875 C120.89011354 0.1366639 122.77655654 1.24819606 125 3 C125.33 3.66 125.66 4.32 126 5 C175.5 5.495 175.5 5.495 226 6 C226.33 5.01 226.66 4.02 227 3 C230.57713827 0.0732505 233.59683095 -0.47909207 238.07421875 -0.28515625 C242.09689007 0.31049285 244.27924909 2.13012821 246.8125 5.1875 C248.37546015 8.88924773 248.92904786 12.09947365 248 16 C245.63797469 19.86985908 243.33807509 22.55397497 239 24 C235.6875 24.375 235.6875 24.375 232 24 C231.13601593 23.18028214 230.27203186 22.36056427 229.38186646 21.51600647 C225.35038797 17.99654001 221.35358183 18.30251125 216.20263672 18.36889648 C215.23282867 18.36174118 214.26302063 18.35458588 213.26382446 18.34721375 C210.06862831 18.33034939 206.87483939 18.34971397 203.6796875 18.37109375 C201.45581954 18.37026498 199.23195164 18.36780531 197.00808716 18.36378479 C192.35269686 18.3609285 187.69778814 18.3756145 183.04248047 18.40307617 C177.07231295 18.43719782 171.10300427 18.43112569 165.13279533 18.4124136 C160.54315008 18.40185238 155.95370514 18.41077287 151.36407852 18.42579842 C149.16243204 18.43098444 146.96076469 18.43049336 144.75912094 18.42425346 C141.68514639 18.41881046 138.61240796 18.4391464 135.53857422 18.46655273 C134.62730774 18.46002686 133.71604126 18.45350098 132.77716064 18.44677734 C127.77043352 18.45037176 127.77043352 18.45037176 123.59133911 20.97084045 C123.0661972 21.6404631 122.5410553 22.31008575 122 23 C118.34711807 24.21762731 115.84245864 24.39075851 112 24 C111.13601593 23.18028214 110.27203186 22.36056427 109.38186646 21.51600647 C105.35038797 17.99654001 101.35358183 18.30251125 96.20263672 18.36889648 C95.23282867 18.36174118 94.26302063 18.35458588 93.26382446 18.34721375 C90.06862831 18.33034939 86.87483939 18.34971397 83.6796875 18.37109375 C81.45581954 18.37026498 79.23195164 18.36780531 77.00808716 18.36378479 C72.35269686 18.3609285 67.69778814 18.3756145 63.04248047 18.40307617 C57.07231295 18.43719782 51.10300427 18.43112569 45.13279533 18.4124136 C40.54315008 18.40185238 35.95370514 18.41077287 31.36407852 18.42579842 C29.16243204 18.43098444 26.96076469 18.43049336 24.75912094 18.42425346 C21.68514639 18.41881046 18.61240796 18.4391464 15.53857422 18.46655273 C14.62730774 18.46002686 13.71604126 18.45350098 12.77716064 18.44677734 C7.77043352 18.45037176 7.77043352 18.45037176 3.59133911 20.97084045 C3.0661972 21.6404631 2.5410553 22.31008575 2 23 C-1.70602135 24.23534045 -4.09753614 24.45528745 -8 24 C-11.82209946 21.61307623 -14.56170311 19.31489068 -16 15 C-16.36945059 10.01241703 -16.18227193 6.95040654 -13 3 C-8.96041352 -0.34708594 -5.05274676 -0.77577526 0 0 Z " fill="#020202" transform="translate(187,410)"/>
<path d="M0 0 C3.96 0 7.92 0 12 0 C12 33.99 12 67.98 12 103 C45.99 103 79.98 103 115 103 C115 106.96 115 110.92 115 115 C77.05 115 39.1 115 0 115 C0 77.05 0 39.1 0 0 Z " fill="#010101" transform="translate(57,313)"/>
<path d="M0 0 C3.96 0 7.92 0 12 0 C12 37.95 12 75.9 12 115 C-25.95 115 -63.9 115 -103 115 C-103 111.04 -103 107.08 -103 103 C-69.01 103 -35.02 103 0 103 C0 69.01 0 35.02 0 0 Z " fill="#010101" transform="translate(537,313)"/>
<path d="M0 0 C4.16636339 1.75913121 6.24086879 3.83363661 8 8 C8.59554195 12.10262231 8.93026368 14.47588875 6.7578125 18.03515625 C3.34614421 22.16819719 1.18378613 23.75277893 -4.3125 24.375 C-8 24 -8 24 -10.61990356 21.51777649 C-14.64273063 18.00546089 -18.62635918 18.29151476 -23.76904297 18.34057617 C-24.73552261 18.33009247 -25.70200226 18.31960876 -26.69776917 18.30880737 C-29.87957016 18.28009814 -33.06028039 18.2863443 -36.2421875 18.29296875 C-38.4532304 18.27985128 -40.66426132 18.2645469 -42.87527466 18.24714661 C-48.68512288 18.20728998 -54.49465765 18.19710567 -60.30462646 18.19311523 C-66.23703524 18.18378516 -72.16925975 18.1463723 -78.1015625 18.11132812 C-89.73436639 18.04674531 -101.36703252 18.01351083 -113 18 C-113 14.04 -113 10.08 -113 6 C-80.33 6 -47.66 6 -14 6 C-13.67 5.01 -13.34 4.02 -13 3 C-8.91626022 -0.34124164 -5.06825955 -0.75047251 0 0 Z " fill="#020202" transform="translate(427,410)"/>
<path d="M0 0 C32.34 0 64.68 0 98 0 C98 3.96 98 7.92 98 12 C65.66 12 33.32 12 0 12 C0 8.04 0 4.08 0 0 Z " fill="#020202" transform="translate(314,176)"/>
<path d="M0 0 C3.2607935 2.14262868 6.23692953 4.47385906 8 8 C8.37393649 12.75681995 8.38398088 17.3634929 6.9375 21.9375 C5.6769246 24.99755733 5.6769246 24.99755733 7 28 C6.05125 27.814375 5.1025 27.62875 4.125 27.4375 C1.10131207 26.71313368 1.10131207 26.71313368 -1 28 C-5.70777 28.39231417 -8.07079697 28.47336758 -12.3125 26.3125 C-15.90897445 23.21785919 -17.65357682 21.25699953 -18.38671875 16.48046875 C-18.69781933 11.42681263 -18.55412831 7.92754862 -15.25 3.9375 C-10.7456152 -0.71475602 -6.28755806 -2.0452094 0 0 Z " fill="#F5F5F5" transform="translate(309,287)"/>
<path d="M0 0 C3.76846251 2.21479814 6.33309947 4.94965798 8 9 C9.08236205 15.0612275 7.80670871 19.29530614 4.484375 24.37109375 C2.23984104 26.83417444 0.11713194 27.80704085 -3.1484375 28.37109375 C-7.32711479 28.49572097 -10.1177444 28.39550702 -13.4375 25.6875 C-18.13883641 20.75683011 -18.54922285 17.63817259 -18.453125 11.0234375 C-17.76435345 6.42766869 -15.63477628 3.78443871 -12 1 C-7.97279904 -1.43076074 -4.4475859 -1.33427577 0 0 Z " fill="#F7F7F7" transform="translate(269,287)"/>
<path d="M0 0 C4.16636339 1.75913121 6.24086879 3.83363661 8 8 C8.59554195 12.10262231 8.93026368 14.47588875 6.7578125 18.03515625 C3.3635687 22.14708841 1.18910548 23.70531272 -4.25 24.4375 C-9.1843364 23.86182742 -11.79803186 21.71753928 -15 18 C-16.50186547 13.49440359 -16.71589695 9.65786663 -14.8125 5.25 C-10.69747531 0.14169349 -6.29515894 -0.93214321 0 0 Z " fill="#048004" transform="translate(427,410)"/>
<path d="M0 0 C4.16636339 1.75913121 6.24086879 3.83363661 8 8 C8.59554195 12.10262231 8.93026368 14.47588875 6.7578125 18.03515625 C3.3635687 22.14708841 1.18910548 23.70531272 -4.25 24.4375 C-9.1843364 23.86182742 -11.79803186 21.71753928 -15 18 C-16.50186547 13.49440359 -16.71589695 9.65786663 -14.8125 5.25 C-10.69747531 0.14169349 -6.29515894 -0.93214321 0 0 Z " fill="#048004" transform="translate(307,410)"/>
<path d="M0 0 C4.16636339 1.75913121 6.24086879 3.83363661 8 8 C8.59554195 12.10262231 8.93026368 14.47588875 6.7578125 18.03515625 C3.3635687 22.14708841 1.18910548 23.70531272 -4.25 24.4375 C-9.1843364 23.86182742 -11.79803186 21.71753928 -15 18 C-16.50186547 13.49440359 -16.71589695 9.65786663 -14.8125 5.25 C-10.69747531 0.14169349 -6.29515894 -0.93214321 0 0 Z " fill="#048004" transform="translate(187,410)"/>
<path d="M0 0 C4.16636339 1.75913121 6.24086879 3.83363661 8 8 C8.59554195 12.10262231 8.93026368 14.47588875 6.7578125 18.03515625 C3.3635687 22.14708841 1.18910548 23.70531272 -4.25 24.4375 C-9.1843364 23.86182742 -11.79803186 21.71753928 -15 18 C-16.50186547 13.49440359 -16.71589695 9.65786663 -14.8125 5.25 C-10.69747531 0.14169349 -6.29515894 -0.93214321 0 0 Z " fill="#048004" transform="translate(427,170)"/>
<path d="M0 0 C4.16636339 1.75913121 6.24086879 3.83363661 8 8 C8.59554195 12.10262231 8.93026368 14.47588875 6.7578125 18.03515625 C3.3635687 22.14708841 1.18910548 23.70531272 -4.25 24.4375 C-9.1843364 23.86182742 -11.79803186 21.71753928 -15 18 C-16.50186547 13.49440359 -16.71589695 9.65786663 -14.8125 5.25 C-10.69747531 0.14169349 -6.29515894 -0.93214321 0 0 Z " fill="#048004" transform="translate(307,170)"/>
<path d="M0 0 C4.16636339 1.75913121 6.24086879 3.83363661 8 8 C8.59554195 12.10262231 8.93026368 14.47588875 6.7578125 18.03515625 C3.3635687 22.14708841 1.18910548 23.70531272 -4.25 24.4375 C-9.1843364 23.86182742 -11.79803186 21.71753928 -15 18 C-16.50186547 13.49440359 -16.71589695 9.65786663 -14.8125 5.25 C-10.69747531 0.14169349 -6.29515894 -0.93214321 0 0 Z " fill="#048004" transform="translate(187,170)"/>
<path d="M0 0 C4.09206332 1.808121 6.69807584 4.16345973 9 8 C9.66861666 12.1454233 9.95469912 14.44075786 7.75390625 18.03515625 C4.36534205 22.15044494 2.18673684 23.70563158 -3.25 24.4375 C-8.1843364 23.86182742 -10.79803186 21.71753928 -14 18 C-15.50186547 13.49440359 -15.71589695 9.65786663 -13.8125 5.25 C-9.87317521 0.35980371 -6.1922734 -0.66345786 0 0 Z " fill="#038003" transform="translate(546,290)"/>
<path d="M0 0 C4.09206332 1.808121 6.69807584 4.16345973 9 8 C9.66861666 12.1454233 9.95469912 14.44075786 7.75390625 18.03515625 C4.36534205 22.15044494 2.18673684 23.70563158 -3.25 24.4375 C-8.1843364 23.86182742 -10.79803186 21.71753928 -14 18 C-15.50186547 13.49440359 -15.71589695 9.65786663 -13.8125 5.25 C-9.87317521 0.35980371 -6.1922734 -0.66345786 0 0 Z " fill="#038003" transform="translate(66,290)"/>
<path d="M0 0 C4.11286243 1.81731131 6.35301213 3.79103099 8 8 C7.98634128 11.81761187 7.42983603 15.48179711 6.390625 19.15234375 C5.78215339 21.08309787 5.78215339 21.08309787 7 23 C6.195625 22.814375 5.39125 22.62875 4.5625 22.4375 C3.2940625 22.2209375 3.2940625 22.2209375 2 22 C1.67 22.33 1.34 22.66 1 23 C-6.09359606 23.70935961 -6.09359606 23.70935961 -9.875 20.75 C-13.29389463 16.32554813 -14.58261835 13.70965984 -14 8 C-11.22067254 1.70994311 -6.83146591 -0.85393324 0 0 Z " fill="#F5F5F5" transform="translate(447,210)"/>
<path d="M0 0 C4.11286243 1.81731131 6.35301213 3.79103099 8 8 C7.98634128 11.81761187 7.42983603 15.48179711 6.390625 19.15234375 C5.78215339 21.08309787 5.78215339 21.08309787 7 23 C6.195625 22.814375 5.39125 22.62875 4.5625 22.4375 C3.2940625 22.2209375 3.2940625 22.2209375 2 22 C1.67 22.33 1.34 22.66 1 23 C-6.09359606 23.70935961 -6.09359606 23.70935961 -9.875 20.75 C-13.29389463 16.32554813 -14.58261835 13.70965984 -14 8 C-11.22067254 1.70994311 -6.83146591 -0.85393324 0 0 Z " fill="#F5F5F5" transform="translate(208,210)"/>
<path d="M0 0 C4.11286243 1.81731131 6.35301213 3.79103099 8 8 C8.30951154 13.00680433 7.74684614 16.10378464 4.5 20 C3.675 20.66 2.85 21.32 2 22 C1.67 22.33 1.34 22.66 1 23 C-6.09359606 23.70935961 -6.09359606 23.70935961 -9.875 20.75 C-13.29389463 16.32554813 -14.58261835 13.70965984 -14 8 C-11.22067254 1.70994311 -6.83146591 -0.85393324 0 0 Z " fill="#F6F6F6" transform="translate(483,290)"/>
<path d="M0 0 C11.55555556 0 11.55555556 0 16 3 C18.96266844 7.44400266 18.76945894 11.78901077 18 17 C15.7984026 19.89683868 14.21405538 21.39297231 11 23 C7.37 23 3.74 23 0 23 C0 15.41 0 7.82 0 0 Z " fill="#F3F3F3" transform="translate(393,210)"/>
<path d="M0 0 C2.8100346 1.79363911 4.50940468 3.01880935 6 6 C6 7.98 6 9.96 6 12 C0.39 12 -5.22 12 -11 12 C-9.66436384 16.94463635 -9.66436384 16.94463635 -7 18 C-3.5 18.25 -3.5 18.25 0 18 C0.66 17.34 1.32 16.68 2 16 C2.99 16.33 3.98 16.66 5 17 C2.14192664 19.85807336 0.01893158 21.31732129 -4 21.5 C-8.03457024 21.30170354 -10.16443325 19.92149301 -13 17 C-14.72869779 13.54260443 -14.48966895 9.78024432 -14 6 C-10.38599231 0.2175877 -6.68966949 -0.96115941 0 0 Z " fill="#5A5A5A" transform="translate(406,294)"/>
<path d="M0 0 C2.9375 2.4375 2.9375 2.4375 5 5 C5.33 5.33 5.66 5.66 6 6 C6 7.98 6 9.96 6 12 C0.39 12 -5.22 12 -11 12 C-9.66436384 16.94463635 -9.66436384 16.94463635 -7 18 C-2.77853434 18.28143104 0.17291493 17.80098121 4 16 C2.25 19.875 2.25 19.875 0 21 C-7.08958838 21.5811138 -7.08958838 21.5811138 -10.9375 19.125 C-14.47635175 15.47891032 -14.46656527 12.41906708 -14.40234375 7.48828125 C-13.96124571 4.76032538 -13.49130169 3.7475791 -11.5 1.875 C-6.96669713 -0.55355511 -5.07511305 -0.8055735 0 0 Z " fill="#1D1D1D" transform="translate(359,294)"/>
<path d="M0 0 C11 0 11 0 14.1875 1.625 C16 4 16 4 16.5625 6.9375 C15.88971155 10.60045935 14.5249075 12.31728578 12 15 C12.66 15.94875 13.32 16.8975 14 17.875 C16 21 16 21 16 23 C15.01 22.67 14.02 22.34 13 22 C12.4225 20.845 11.845 19.69 11.25 18.5 C10.31577159 16.57371266 10.31577159 16.57371266 9 15 C5.36852515 13.9434891 5.36852515 13.9434891 2 14 C2 16.97 2 19.94 2 23 C1.34 23 0.68 23 0 23 C0 15.41 0 7.82 0 0 Z " fill="#151515" transform="translate(276,210)"/>
<path d="M0 0 C11 0 11 0 14.25 2.0625 C16 5 16 5 16.0625 8.625 C15 12 15 12 13.5 13.9375 C9.71687979 15.54532609 6.05279715 15.23381522 2 15 C2 17.64 2 20.28 2 23 C1.34 23 0.68 23 0 23 C0 15.41 0 7.82 0 0 Z " fill="#191919" transform="translate(440,370)"/>
<path d="M0 0 C3.2607935 2.14262868 6.23692953 4.47385906 8 8 C8.37393649 12.75681995 8.38398088 17.3634929 6.9375 21.9375 C5.6769246 24.99755733 5.6769246 24.99755733 7 28 C6.05125 27.814375 5.1025 27.62875 4.125 27.4375 C1.10131207 26.71313368 1.10131207 26.71313368 -1 28 C-5.70777 28.39231417 -8.07079697 28.47336758 -12.3125 26.3125 C-15.90897445 23.21785919 -17.65357682 21.25699953 -18.38671875 16.48046875 C-18.69781933 11.42681263 -18.55412831 7.92754862 -15.25 3.9375 C-10.7456152 -0.71475602 -6.28755806 -2.0452094 0 0 Z M-14 7 C-14.33 7.33 -14.66 7.66 -15 8 C-15.52263424 12.38266144 -16.02371348 17.01751008 -13.953125 21.02734375 C-12.19144959 23.14653564 -10.47364152 24.76317924 -8 26 C-3.94857881 26.25860135 -2.45662331 26.30441554 1 24 C0.34 22.68 -0.32 21.36 -1 20 C-0.34 19.67 0.32 19.34 1 19 C1.33 19.99 1.66 20.98 2 22 C2.66 21.67 3.32 21.34 4 21 C5.44649088 16.66052737 5.66468908 12.53000056 5 8 C2.80977082 5.17575712 1.16982793 3.58491397 -2 2 C-8.02389334 1.31804981 -10.15498309 2.36336196 -14 7 Z " fill="#212121" transform="translate(309,287)"/>
<path d="M0 0 C3.76846251 2.21479814 6.33309947 4.94965798 8 9 C9.08236205 15.0612275 7.80670871 19.29530614 4.484375 24.37109375 C2.23984104 26.83417444 0.11713194 27.80704085 -3.1484375 28.37109375 C-7.32711479 28.49572097 -10.1177444 28.39550702 -13.4375 25.6875 C-18.13883641 20.75683011 -18.54922285 17.63817259 -18.453125 11.0234375 C-17.76435345 6.42766869 -15.63477628 3.78443871 -12 1 C-7.97279904 -1.43076074 -4.4475859 -1.33427577 0 0 Z M-14 6 C-15.98141781 9.96283561 -15.55820645 14.69210238 -15 19 C-13.35551311 22.17852316 -11.24396473 24.37801764 -8 26 C-4.22839349 26.41906739 -2.49029866 26.31200824 0.75 24.25 C4.01140821 20.98859179 5.29989702 18.23874701 5.4375 13.625 C5.37412829 10.13379495 4.84329291 8.20906567 2.625 5.5 C-0.44454979 2.57661925 -1.1268067 2.08237673 -5.3125 1.6875 C-9.57536111 2.04875942 -11.01992054 3.01992054 -14 6 Z " fill="#1B1B1B" transform="translate(269,287)"/>
<path d="M0 0 C4.06124391 1.35374797 4.60315649 3.26258828 6.6875 6.9375 C7.31011719 8.01902344 7.93273437 9.10054688 8.57421875 10.21484375 C10 13 10 13 10 15 C10.66 15 11.32 15 12 15 C12.20625 14.195625 12.4125 13.39125 12.625 12.5625 C14.40707639 7.94530207 16.86171712 3.83757417 20 0 C20.66 0 21.32 0 22 0 C22 7.59 22 15.18 22 23 C21.34 23 20.68 23 20 23 C19.67 17.39 19.34 11.78 19 6 C16.69 10.29 14.38 14.58 12 19 C11.34 19 10.68 19 10 19 C7.4486377 15.12100573 5.2774523 11.04880409 3 7 C2.67 12.28 2.34 17.56 2 23 C1.34 23 0.68 23 0 23 C0 15.41 0 7.82 0 0 Z " fill="#272727" transform="translate(412,370)"/>
<path d="M0 0 C3.62539533 1.81269767 4.68845066 2.49170845 7.015625 5.4765625 C7.54414063 6.146875 8.07265625 6.8171875 8.6171875 7.5078125 C9.42542969 8.55582031 9.42542969 8.55582031 10.25 9.625 C11.08144531 10.68460938 11.08144531 10.68460938 11.9296875 11.765625 C13.29313903 13.50520109 14.64747004 15.25191883 16 17 C16.33 11.39 16.66 5.78 17 0 C17.66 0 18.32 0 19 0 C19 7.59 19 15.18 19 23 C15.43818751 21.21909375 14.43309154 20.66238178 12.203125 17.7421875 C11.47802734 16.80439453 11.47802734 16.80439453 10.73828125 15.84765625 C10.00158203 14.87119141 10.00158203 14.87119141 9.25 13.875 C8.49009766 12.88693359 8.49009766 12.88693359 7.71484375 11.87890625 C6.46969142 10.25785888 5.23391431 8.62961787 4 7 C3.67 12.28 3.34 17.56 3 23 C2.01 23 1.02 23 0 23 C0 15.41 0 7.82 0 0 Z " fill="#303030" transform="translate(171,210)"/>
<path d="M0 0 C4.11286243 1.81731131 6.35301213 3.79103099 8 8 C7.98634128 11.81761187 7.42983603 15.48179711 6.390625 19.15234375 C5.78215339 21.08309787 5.78215339 21.08309787 7 23 C6.195625 22.814375 5.39125 22.62875 4.5625 22.4375 C3.2940625 22.2209375 3.2940625 22.2209375 2 22 C1.67 22.33 1.34 22.66 1 23 C-6.09359606 23.70935961 -6.09359606 23.70935961 -9.875 20.75 C-13.29389463 16.32554813 -14.58261835 13.70965984 -14 8 C-11.22067254 1.70994311 -6.83146591 -0.85393324 0 0 Z M-8.9375 3.875 C-11.32275018 7.48901542 -11.73991328 9.58797078 -11.484375 13.83984375 C-10.6726873 17.45970907 -9.0140178 18.96881409 -6 21 C-2.87237733 21.58442963 -2.87237733 21.58442963 0 21 C0.66 20.34 1.32 19.68 2 19 C1.34 18.01 0.68 17.02 0 16 C0.639375 16.185625 1.27875 16.37125 1.9375 16.5625 C2.9584375 16.7790625 2.9584375 16.7790625 4 17 C5.56941198 15.43058802 5.2449847 13.85865006 5.3125 11.6875 C5.2618014 8.49855778 5.16223774 7.25958038 3.4375 4.5 C-1.06989242 1.72622005 -4.36858792 0.95867314 -8.9375 3.875 Z " fill="#2F2F2F" transform="translate(447,210)"/>
<path d="M0 0 C4.11286243 1.81731131 6.35301213 3.79103099 8 8 C7.98634128 11.81761187 7.42983603 15.48179711 6.390625 19.15234375 C5.78215339 21.08309787 5.78215339 21.08309787 7 23 C6.195625 22.814375 5.39125 22.62875 4.5625 22.4375 C3.2940625 22.2209375 3.2940625 22.2209375 2 22 C1.67 22.33 1.34 22.66 1 23 C-6.09359606 23.70935961 -6.09359606 23.70935961 -9.875 20.75 C-13.29389463 16.32554813 -14.58261835 13.70965984 -14 8 C-11.22067254 1.70994311 -6.83146591 -0.85393324 0 0 Z M-8.9375 3.875 C-11.32275018 7.48901542 -11.73991328 9.58797078 -11.484375 13.83984375 C-10.6726873 17.45970907 -9.0140178 18.96881409 -6 21 C-2.87237733 21.58442963 -2.87237733 21.58442963 0 21 C0.66 20.34 1.32 19.68 2 19 C1.34 18.01 0.68 17.02 0 16 C0.639375 16.185625 1.27875 16.37125 1.9375 16.5625 C2.9584375 16.7790625 2.9584375 16.7790625 4 17 C5.56941198 15.43058802 5.2449847 13.85865006 5.3125 11.6875 C5.2618014 8.49855778 5.16223774 7.25958038 3.4375 4.5 C-1.06989242 1.72622005 -4.36858792 0.95867314 -8.9375 3.875 Z " fill="#2F2F2F" transform="translate(208,210)"/>
<path d="M0 0 C0.99 0 1.98 0 3 0 C3.06058594 1.13179688 3.12117188 2.26359375 3.18359375 3.4296875 C3.26799917 4.91147145 3.35264717 6.3932416 3.4375 7.875 C3.47681641 8.62136719 3.51613281 9.36773437 3.55664062 10.13671875 C3.71573624 14.19986864 3.71573624 14.19986864 5 18 C10.01535052 17.67039784 10.01535052 17.67039784 14 15 C14.30599063 12.43083343 14.51087087 9.95241616 14.625 7.375 C14.68300781 6.31539063 14.68300781 6.31539063 14.7421875 5.234375 C14.83647724 3.49001476 14.91932891 1.74504309 15 0 C15.99 0 16.98 0 18 0 C18.33 6.93 18.66 13.86 19 21 C18.01 21 17.02 21 16 21 C16 19.68 16 18.36 16 17 C15.34 17 14.68 17 14 17 C13.67 17.99 13.34 18.98 13 20 C9.89138092 21.55430954 6.34175253 21.88672245 3 21 C-0.51972981 16.95152154 -0.36540117 12.79189516 -0.1875 7.6875 C-0.17396484 6.94693359 -0.16042969 6.20636719 -0.14648438 5.44335938 C-0.11135979 3.62858925 -0.05755972 1.81419712 0 0 Z " fill="#1F1F1F" transform="translate(369,294)"/>
<path d="M0 0 C0.99 0 1.98 0 3 0 C3.06058594 1.21558594 3.12117188 2.43117188 3.18359375 3.68359375 C3.26798332 5.26824228 3.3526321 6.85287702 3.4375 8.4375 C3.47681641 9.23994141 3.51613281 10.04238281 3.55664062 10.86914062 C3.4054296 14.75239561 3.4054296 14.75239561 5 18 C8.48055874 17.82432642 8.48055874 17.82432642 12 17 C14.42479736 13.36280395 14.38662577 11.14296518 14.625 6.8125 C14.69976562 5.54019531 14.77453125 4.26789063 14.8515625 2.95703125 C14.90054687 1.98121094 14.94953125 1.00539063 15 0 C15.99 0 16.98 0 18 0 C18 6.93 18 13.86 18 21 C17.01 20.67 16.02 20.34 15 20 C14.67 19.34 14.34 18.68 14 18 C13.67 18.495 13.34 18.99 13 19.5 C10.29716212 21.52712841 8.23611393 21.40238313 4.9375 21.49609375 C3 21 3 21 1.26171875 19.51953125 C-0.60850801 15.7848679 -0.32046037 12.36154375 -0.1875 8.25 C-0.17396484 7.45722656 -0.16042969 6.66445313 -0.14648438 5.84765625 C-0.11125223 3.89814436 -0.05744821 1.94898374 0 0 Z " fill="#262626" transform="translate(322,294)"/>
<path d="M0 0 C0.99 0 1.98 0 3 0 C3.03738281 1.19238281 3.07476562 2.38476562 3.11328125 3.61328125 C3.17894032 5.179719 3.24538768 6.74612384 3.3125 8.3125 C3.33505859 9.09818359 3.35761719 9.88386719 3.38085938 10.69335938 C3.41630859 11.45068359 3.45175781 12.20800781 3.48828125 12.98828125 C3.51446533 13.68477783 3.54064941 14.38127441 3.56762695 15.09887695 C4.12642384 17.55587943 5.01859956 18.47676736 7 20 C11.10924066 20.54290343 11.10924066 20.54290343 14.65551758 18.72729492 C16.2618781 16.66355773 16.41438752 15.57729197 16.51171875 12.98828125 C16.54716797 12.23095703 16.58261719 11.47363281 16.61914062 10.69335938 C16.64169922 9.90767578 16.66425781 9.12199219 16.6875 8.3125 C16.72166016 7.51521484 16.75582031 6.71792969 16.79101562 5.89648438 C16.87338104 3.93148096 16.93837067 1.96576304 17 0 C17.99 0 18.98 0 20 0 C20.0816082 2.37570543 20.14077222 4.74855841 20.1875 7.125 C20.21263672 7.79015625 20.23777344 8.4553125 20.26367188 9.140625 C20.3332236 13.87014242 19.53781286 17.01285346 17 21 C13.32705125 23.4486325 10.26731035 23.83183438 6 23 C2.78045355 20.46546343 1.29567565 18.88702695 0 15 C-0.07029121 12.42734182 -0.09370832 9.88358569 -0.0625 7.3125 C-0.05798828 6.61060547 -0.05347656 5.90871094 -0.04882812 5.18554688 C-0.03706927 3.45699462 -0.01913454 1.72848635 0 0 Z " fill="#444444" transform="translate(164,370)"/>
<path d="M0 0 C5.94 0 11.88 0 18 0 C18 0.66 18 1.32 18 2 C13.05 2 8.1 2 3 2 C3 5.63 3 9.26 3 13 C7.29 13 11.58 13 16 13 C16 13.66 16 14.32 16 15 C11.71 15 7.42 15 3 15 C3 19.29 3 23.58 3 28 C2.01 28 1.02 28 0 28 C0 18.76 0 9.52 0 0 Z " fill="#1A1A1A" transform="translate(196,287)"/>
<path d="M0 0 C4.11286243 1.81731131 6.35301213 3.79103099 8 8 C8.30951154 13.00680433 7.74684614 16.10378464 4.5 20 C3.675 20.66 2.85 21.32 2 22 C1.67 22.33 1.34 22.66 1 23 C-6.09359606 23.70935961 -6.09359606 23.70935961 -9.875 20.75 C-13.29389463 16.32554813 -14.58261835 13.70965984 -14 8 C-11.22067254 1.70994311 -6.83146591 -0.85393324 0 0 Z M-8.9375 3.875 C-11.32275018 7.48901542 -11.73991328 9.58797078 -11.484375 13.83984375 C-10.6726873 17.45970907 -9.0140178 18.96881409 -6 21 C-3 21.83333333 -3 21.83333333 0 21 C3.02883418 18.95882914 4.70071921 17.46257223 5.44921875 13.8046875 C5.62850477 10.05822794 5.44653469 7.71445551 3.4375 4.5 C-1.06989242 1.72622005 -4.36858792 0.95867314 -8.9375 3.875 Z " fill="#2F2F2F" transform="translate(483,290)"/>
<path d="M0 0 C11.55555556 0 11.55555556 0 16 3 C18.96266844 7.44400266 18.76945894 11.78901077 18 17 C15.7984026 19.89683868 14.21405538 21.39297231 11 23 C7.37 23 3.74 23 0 23 C0 15.41 0 7.82 0 0 Z M2 2 C2 8.27 2 14.54 2 21 C10.33636879 21.80196257 10.33636879 21.80196257 14.0625 19.0625 C16.64425257 14.98166529 16.97792124 11.7134042 16 7 C14.12379387 4.49839182 12.76108697 3.38054348 10 2 C7.36 2 4.72 2 2 2 Z " fill="#111111" transform="translate(393,210)"/>
<path d="M0 0 C4.95 0 9.9 0 15 0 C15 0.66 15 1.32 15 2 C10.71 2 6.42 2 2 2 C2 4.64 2 7.28 2 10 C5.63 10 9.26 10 13 10 C13 10.66 13 11.32 13 12 C9.37 12 5.74 12 2 12 C2 14.97 2 17.94 2 21 C6.29 21 10.58 21 15 21 C15 21.66 15 22.32 15 23 C10.05 23 5.1 23 0 23 C0 15.41 0 7.82 0 0 Z " fill="#181818" transform="translate(416,210)"/>
<path d="M0 0 C4.95 0 9.9 0 15 0 C15 0.66 15 1.32 15 2 C10.71 2 6.42 2 2 2 C2 4.64 2 7.28 2 10 C5.63 10 9.26 10 13 10 C13 10.66 13 11.32 13 12 C9.37 12 5.74 12 2 12 C2 14.97 2 17.94 2 21 C6.29 21 10.58 21 15 21 C15 21.66 15 22.32 15 23 C10.05 23 5.1 23 0 23 C0 15.41 0 7.82 0 0 Z " fill="#181818" transform="translate(152,210)"/>
<path d="M0 0 C1.423125 -0.061875 2.84625 -0.12375 4.3125 -0.1875 C5.51326172 -0.23970703 5.51326172 -0.23970703 6.73828125 -0.29296875 C9 0 9 0 10.76953125 1.35546875 C12 3 12 3 12.375 5.5 C11.92687984 8.48746775 11.36602774 9.1876123 9 11 C6.73828125 11.29296875 6.73828125 11.29296875 4.3125 11.1875 C2.889375 11.125625 1.46625 11.06375 0 11 C0 7.37 0 3.74 0 0 Z " fill="#EBEBEB" transform="translate(278,212)"/>
<path d="M0 0 C1.258125 -0.04125 2.51625 -0.0825 3.8125 -0.125 C4.52019531 -0.14820313 5.22789062 -0.17140625 5.95703125 -0.1953125 C8 0 8 0 11 2 C11.3125 5.5 11.3125 5.5 11 9 C9 11 9 11 6.8359375 11.1953125 C4.55729167 11.13020833 2.27864583 11.06510417 0 11 C0 7.37 0 3.74 0 0 Z " fill="#EEEEEE" transform="translate(442,372)"/>
<path d="M0 0 C5.94 0 11.88 0 18 0 C18 0.66 18 1.32 18 2 C12.72 2 7.44 2 2 2 C2 5.63 2 9.26 2 13 C6.29 13 10.58 13 15 13 C15 13.66 15 14.32 15 15 C10.71 15 6.42 15 2 15 C2 19.29 2 23.58 2 28 C1.34 28 0.68 28 0 28 C0 18.76 0 9.52 0 0 Z " fill="#0A0A0A" transform="translate(230,287)"/>
<path d="M0 0 C2.4375 1 2.4375 1 4 2 C4 2.66 4 3.32 4 4 C3.30132812 3.91621094 2.60265625 3.83242187 1.8828125 3.74609375 C0.97273438 3.64425781 0.06265625 3.54242188 -0.875 3.4375 C-1.77992188 3.33308594 -2.68484375 3.22867188 -3.6171875 3.12109375 C-6.01653057 2.80325148 -6.01653057 2.80325148 -8 4 C-7.67 5.65 -7.34 7.3 -7 9 C-6.30132812 9.19335938 -5.60265625 9.38671875 -4.8828125 9.5859375 C-3.97273438 9.84632813 -3.06265625 10.10671875 -2.125 10.375 C-1.22007812 10.63023437 -0.31515625 10.88546875 0.6171875 11.1484375 C3 12 3 12 5 14 C5.375 16.9375 5.375 16.9375 5 20 C3.5 21.875 3.5 21.875 1 23 C-4.43948065 23.51804578 -7.50241928 23.37318554 -12 20 C-11.01 19.67 -10.02 19.34 -9 19 C-8.34 19.33 -7.68 19.66 -7 20 C-5.62657169 20.0689472 -4.24997898 20.08467708 -2.875 20.0625 C-1.59625 20.041875 -0.3175 20.02125 1 20 C1.33 18.35 1.66 16.7 2 15 C1.31292969 14.81824219 0.62585938 14.63648438 -0.08203125 14.44921875 C-0.98308594 14.19785156 -1.88414062 13.94648438 -2.8125 13.6875 C-3.70582031 13.44386719 -4.59914063 13.20023438 -5.51953125 12.94921875 C-8.10371937 11.96030897 -9.38599601 11.23477475 -11 9 C-10.875 5.4375 -10.875 5.4375 -10 2 C-6.29873141 -0.46751239 -4.37776468 -0.30721156 0 0 Z " fill="#202020" transform="translate(307,210)"/>
<path d="M0 0 C3.2607935 2.14262868 6.23692953 4.47385906 8 8 C8.06996014 9.70702735 8.08440154 11.41668003 8.0625 13.125 C8.05347656 14.03507812 8.04445313 14.94515625 8.03515625 15.8828125 C8.02355469 16.58148438 8.01195312 17.28015625 8 18 C6 16 6 16 5.125 12.125 C4.26624799 8.36966384 3.10412717 6.42509935 0 4 C-3.13871188 2.43064406 -5.53855822 2.64798897 -9 3 C-13.22462382 5.81641588 -14.33177041 8.5110114 -15.3125 13.3125 C-15.56066909 14.87209473 -15.79626547 16.43398089 -16 18 C-16.66 17.67 -17.32 17.34 -18 17 C-18.4875607 13.01825426 -18.85106072 9.4851844 -16.8046875 5.9140625 C-12.02158288 0.21760122 -7.54294445 -2.45356 0 0 Z " fill="#262626" transform="translate(309,287)"/>
<path d="M0 0 C4.95 0 9.9 0 15 0 C15 0.66 15 1.32 15 2 C10.71 2 6.42 2 2 2 C2.33 4.64 2.66 7.28 3 10 C6.3 10.33 9.6 10.66 13 11 C13 11.33 13 11.66 13 12 C9.37 12 5.74 12 2 12 C2 14.97 2 17.94 2 21 C6.62 21 11.24 21 16 21 C16 21.66 16 22.32 16 23 C10.72 23 5.44 23 0 23 C0 15.41 0 7.82 0 0 Z " fill="#1C1C1C" transform="translate(392,370)"/>
<path d="M0 0 C0.66 0 1.32 0 2 0 C2.33 3.96 2.66 7.92 3 12 C4.258125 10.7625 5.51625 9.525 6.8125 8.25 C7.52019531 7.55390625 8.22789062 6.8578125 8.95703125 6.140625 C10.82275879 4.18571355 12.43169642 2.19661447 14 0 C14.99 0.33 15.98 0.66 17 1 C14.36 3.64 11.72 6.28 9 9 C10.56530824 12.9132706 11.64528238 15.13199262 14.125 18.3125 C14.66382813 19.00988281 15.20265625 19.70726562 15.7578125 20.42578125 C16.16773438 20.94527344 16.57765625 21.46476562 17 22 C16.01 22 15.02 22 14 22 C12.17578125 20.03125 12.17578125 20.03125 10.3125 17.5 C9.68988281 16.6646875 9.06726563 15.829375 8.42578125 14.96875 C7.72001953 13.99421875 7.72001953 13.99421875 7 13 C4.9692697 13.70210243 4.9692697 13.70210243 3 15 C2.30367785 16.95365445 2.30367785 16.95365445 2.25 19.125 C2.1675 20.40375 2.085 21.6825 2 23 C1.34 23 0.68 23 0 23 C0 15.41 0 7.82 0 0 Z " fill="#272727" transform="translate(316,370)"/>
<path d="M0 0 C1.17369141 0.10054688 1.17369141 0.10054688 2.37109375 0.203125 C4.95262962 0.84735855 5.95243756 1.65847194 7.5625 3.75 C7.5625 4.41 7.5625 5.07 7.5625 5.75 C7.046875 5.440625 6.53125 5.13125 6 4.8125 C2.7176467 3.38173061 0.15591426 2.81304236 -3.4375 2.75 C-6.64403576 4.45611088 -6.64403576 4.45611088 -8.4375 7.75 C-8.76804783 11.68902827 -8.55033331 15.30072871 -6.09375 18.5 C-3.31008342 20.60088044 -0.7826273 20.1084065 2.5625 19.75 C4.37726003 18.35414215 4.37726003 18.35414215 5.5625 16.75 C6.2225 16.75 6.8825 16.75 7.5625 16.75 C6.19266497 19.91115776 5.5734362 20.7427092 2.5625 22.75 C-1.54886265 23.20681807 -3.70252493 23.20731782 -7.25 21 C-10.65076859 17.5020666 -11.31991387 15.79147717 -11.875 10.875 C-11.77647037 6.08287732 -9.79572174 4.02826408 -6.4375 0.75 C-3.98972161 -0.4738892 -2.70359459 -0.266364 0 0 Z " fill="#222222" transform="translate(285.4375,370.25)"/>
<path d="M0 0 C2.875 2.3125 2.875 2.3125 5 5 C5 5.99 5 6.98 5 8 C-0.28 8 -5.56 8 -11 8 C-10 3 -10 3 -8.3125 1.1875 C-5.21737291 -0.40188959 -3.43979993 -0.56159999 0 0 Z " fill="#E2E2E2" transform="translate(358,296)"/>
<path d="M0 0 C0.99 0 1.98 0 3 0 C3 6.93 3 13.86 3 21 C7.29 21 11.58 21 16 21 C16 21.66 16 22.32 16 23 C10.72 23 5.44 23 0 23 C0 15.41 0 7.82 0 0 Z " fill="#333333" transform="translate(207,370)"/>
<path d="M0 0 C0.66 0 1.32 0 2 0 C2 0.99 2 1.98 2 3 C2.515625 2.484375 3.03125 1.96875 3.5625 1.4375 C6.99168004 -0.58483695 9.21291618 0.14254706 13 1 C14 2 14 2 14.09765625 5.37890625 C14.09098369 6.77347077 14.07902532 8.16801743 14.0625 9.5625 C14.05798828 10.27341797 14.05347656 10.98433594 14.04882812 11.71679688 C14.03700864 13.47790013 14.01907263 15.23896036 14 17 C13.34 17 12.68 17 12 17 C11.67 12.71 11.34 8.42 11 4 C6.38605543 2.48886331 6.38605543 2.48886331 4.23046875 4.08203125 C2.58575759 6.64569214 2.49049376 8.66160615 2.3125 11.6875 C2.21388672 13.17830078 2.21388672 13.17830078 2.11328125 14.69921875 C2.05720703 15.83810547 2.05720703 15.83810547 2 17 C1.34 17 0.68 17 0 17 C0 11.39 0 5.78 0 0 Z " fill="#222222" transform="translate(92,296)"/>
<path d="M0 0 C0.66 0 1.32 0 2 0 C2.33 5.61 2.66 11.22 3 17 C2.01 17 1.02 17 0 17 C-0.33 16.34 -0.66 15.68 -1 15 C-1.99 15.66 -2.98 16.32 -4 17 C-7.0625 17.25 -7.0625 17.25 -10 17 C-12 15 -12 15 -12.1953125 11.7421875 C-12.17210937 10.46601563 -12.14890625 9.18984375 -12.125 7.875 C-12.10695313 6.59367187 -12.08890625 5.31234375 -12.0703125 3.9921875 C-12.04710937 3.00476563 -12.02390625 2.01734375 -12 1 C-11.34 1 -10.68 1 -10 1 C-9.67 5.29 -9.34 9.58 -9 14 C-7.02 14 -5.04 14 -3 14 C-0.31907309 11.31907309 -0.61329743 9.60832637 -0.375 5.875 C-0.30023438 4.77929688 -0.22546875 3.68359375 -0.1484375 2.5546875 C-0.09945313 1.71164062 -0.05046875 0.86859375 0 0 Z " fill="#191919" transform="translate(507,296)"/>
<path d="M0 0 C2.375 1.25 2.375 1.25 4 3 C4 4.32 4 5.64 4 7 C-0.62 7 -5.24 7 -10 7 C-9.67 5.35 -9.34 3.7 -9 2 C-5.51131349 -0.32579101 -4.10281481 -0.41865457 0 0 Z " fill="#F3F3F3" transform="translate(405,296)"/>
<path d="M0 0 C0.99 0 1.98 0 3 0 C3 1.65 3 3.3 3 5 C4.32 5 5.64 5 7 5 C7 5.66 7 6.32 7 7 C5.68 7 4.36 7 3 7 C3 11.29 3 15.58 3 20 C4.32 20 5.64 20 7 20 C7 20.66 7 21.32 7 22 C4.625 22.125 4.625 22.125 2 22 C0 20 0 20 -0.1953125 16.9609375 C-0.17210937 15.77757812 -0.14890625 14.59421875 -0.125 13.375 C-0.10695313 12.18648438 -0.08890625 10.99796875 -0.0703125 9.7734375 C-0.04710937 8.85820312 -0.02390625 7.94296875 0 7 C-0.66 7 -1.32 7 -2 7 C-2 6.34 -2 5.68 -2 5 C-1.34 5 -0.68 5 0 5 C0 3.35 0 1.7 0 0 Z " fill="#424242" transform="translate(514,291)"/>
<path d="M0 0 C4.95 0 9.9 0 15 0 C15 0.66 15 1.32 15 2 C10.71 2 6.42 2 2 2 C2 4.97 2 7.94 2 11 C5.3 11 8.6 11 12 11 C12 11.33 12 11.66 12 12 C8.7 12 5.4 12 2 12 C2 15.63 2 19.26 2 23 C1.34 23 0.68 23 0 23 C0 15.41 0 7.82 0 0 Z " fill="#151515" transform="translate(146,370)"/>
<path d="M0 0 C5.94 0 11.88 0 18 0 C18 0.66 18 1.32 18 2 C15.36 2 12.72 2 10 2 C10 8.93 10 15.86 10 23 C9.34 23 8.68 23 8 23 C8 16.07 8 9.14 8 2 C5.36 2 2.72 2 0 2 C0 1.34 0 0.68 0 0 Z " fill="#1E1E1E" transform="translate(314,210)"/>
<path d="M0 0 C0.66 0 1.32 0 2 0 C2 6.93 2 13.86 2 21 C6.62 21 11.24 21 16 21 C16 21.66 16 22.32 16 23 C10.72 23 5.44 23 0 23 C0 15.41 0 7.82 0 0 Z " fill="#1F1F1F" transform="translate(297,370)"/>
<path d="M0 0 C2.9375 1.5625 2.9375 1.5625 5 4 C5.33 6.31 5.66 8.62 6 11 C0.39 11 -5.22 11 -11 11 C-11 10.67 -11 10.34 -11 10 C-6.05 10 -1.1 10 4 10 C1.83333333 4.16666667 1.83333333 4.16666667 -1 3 C-4.01263762 2.58918578 -6.11455633 2.42706586 -8.7265625 4.1171875 C-10.20110211 5.35412357 -11.60628788 6.67265513 -13 8 C-13.33 7.34 -13.66 6.68 -14 6 C-9.7677183 0.49803379 -7.05081466 -0.94551154 0 0 Z " fill="#131313" transform="translate(406,294)"/>
<path d="M0 0 C0.66 0 1.32 0 2 0 C2 6.93 2 13.86 2 21 C6.29 21 10.58 21 15 21 C15 21.66 15 22.32 15 23 C10.05 23 5.1 23 0 23 C0 15.41 0 7.82 0 0 Z " fill="#101010" transform="translate(189,370)"/>
<path d="M0 0 C6.5027492 0.3363491 9.42563427 1.3167208 14 6 C15.86758967 9.02221436 16.22881039 11.22044665 16.125 14.75 C16.10695313 15.54921875 16.08890625 16.3484375 16.0703125 17.171875 C16.04710937 17.77515625 16.02390625 18.3784375 16 19 C13 17 13 17 12.4453125 14.9765625 C12.33960938 14.20054687 12.23390625 13.42453125 12.125 12.625 C11.44462049 8.97089283 11.22934373 8.21296203 8.375 5.5625 C7.59125 5.046875 6.8075 4.53125 6 4 C6 3.34 6 2.68 6 2 C4.02 2 2.04 2 0 2 C0 1.34 0 0.68 0 0 Z " fill="#292929" transform="translate(261,286)"/>
<path d="M0 0 C0.268125 0.556875 0.53625 1.11375 0.8125 1.6875 C3.06711799 6.62575086 3.06711799 6.62575086 7 10 C8.99960012 10.039992 11.00047242 10.04346799 13 10 C13 8.68 13 7.36 13 6 C15.97 6.495 15.97 6.495 19 7 C19.33 8.98 19.66 10.96 20 13 C19.195625 12.814375 18.39125 12.62875 17.5625 12.4375 C16.2940625 12.2209375 16.2940625 12.2209375 15 12 C14.67 12.33 14.34 12.66 14 13 C6.88056206 13.71194379 6.88056206 13.71194379 3.0625 10.625 C0.03758155 6.77510379 -0.1054671 4.85148682 0 0 Z " fill="#1E1E1E" transform="translate(434,220)"/>
<path d="M0 0 C0.268125 0.556875 0.53625 1.11375 0.8125 1.6875 C3.06711799 6.62575086 3.06711799 6.62575086 7 10 C8.99960012 10.039992 11.00047242 10.04346799 13 10 C13 8.68 13 7.36 13 6 C15.97 6.495 15.97 6.495 19 7 C19.33 8.98 19.66 10.96 20 13 C19.195625 12.814375 18.39125 12.62875 17.5625 12.4375 C16.2940625 12.2209375 16.2940625 12.2209375 15 12 C14.67 12.33 14.34 12.66 14 13 C6.88056206 13.71194379 6.88056206 13.71194379 3.0625 10.625 C0.03758155 6.77510379 -0.1054671 4.85148682 0 0 Z " fill="#1E1E1E" transform="translate(195,220)"/>
<path d="M0 0 C0.66 0 1.32 0 2 0 C2 7.59 2 15.18 2 23 C-1.71162994 21.14418503 -3.01775064 20.44285416 -5 17 C-4.505 15.515 -4.505 15.515 -4 14 C-3.01 14.99 -2.02 15.98 -1 17 C-0.67 11.39 -0.34 5.78 0 0 Z " fill="#222222" transform="translate(188,210)"/>
<path d="M0 0 C0.268125 0.556875 0.53625 1.11375 0.8125 1.6875 C3.06711799 6.62575086 3.06711799 6.62575086 7 10 C9.9157691 10.41702122 9.9157691 10.41702122 13 10 C15.29215045 8.20808968 15.29215045 8.20808968 17 6 C17.66 5.34 18.32 4.68 19 4 C19 8 19 8 17 10.75 C13.64153421 13.26884935 12.01838408 13.74709507 7.93359375 13.5 C4.65279768 12.65163253 3.03356261 10.5881706 1 8 C-0.35439668 5.29120665 -0.06501451 2.99066732 0 0 Z " fill="#252525" transform="translate(470,300)"/>
<path d="M0 0 C0.66 0 1.32 0 2 0 C2 7.59 2 15.18 2 23 C1.34 23 0.68 23 0 23 C-0.06058594 21.81921875 -0.12117188 20.6384375 -0.18359375 19.421875 C-0.26802582 17.8645723 -0.35267249 16.30728121 -0.4375 14.75 C-0.47681641 13.97269531 -0.51613281 13.19539063 -0.55664062 12.39453125 C-0.59853516 11.64042969 -0.64042969 10.88632812 -0.68359375 10.109375 C-0.72025146 9.41811523 -0.75690918 8.72685547 -0.79467773 8.01464844 C-0.93992587 5.95377245 -0.93992587 5.95377245 -1.64477539 3.86816406 C-1.76199951 3.25166992 -1.87922363 2.63517578 -2 2 C-1.34 1.34 -0.68 0.68 0 0 Z " fill="#181818" transform="translate(432,370)"/>
<path d="M0 0 C0 0.33 0 0.66 0 1 C-1.5778125 1.0928125 -1.5778125 1.0928125 -3.1875 1.1875 C-7.85425264 2.18205384 -9.23434828 3.1280876 -12 7 C-12.96928051 10.30161175 -13.5564607 13.59070534 -14 17 C-14.66 16.67 -15.32 16.34 -16 16 C-16.49303103 11.97357995 -16.86992855 8.4579358 -14.734375 4.87890625 C-9.73872498 -0.95339389 -7.44399713 -1.08058023 0 0 Z " fill="#1D1D1D" transform="translate(307,288)"/>
<path d="M0 0 C0.99 0 1.98 0 3 0 C3.33 5.61 3.66 11.22 4 17 C3.34 17 2.68 17 2 17 C1.67 17.66 1.34 18.32 1 19 C-0.25433458 15.23699626 -0.10695422 11.72789091 -0.0625 7.8125 C-0.05798828 7.06291016 -0.05347656 6.31332031 -0.04882812 5.54101562 C-0.03706354 3.69397617 -0.01912865 1.84697787 0 0 Z " fill="#2D2D2D" transform="translate(369,294)"/>
<path d="M0 0 C4.70491803 2.40983607 4.70491803 2.40983607 6 5 C6.62105646 10.50965805 7.01666673 14.63552624 3.625 19.1875 C1 21 1 21 -1 21 C-1 20.34 -1 19.68 -1 19 C-0.34 18.484375 0.32 17.96875 1 17.4375 C3.62028521 14.2440274 3.44035896 12.13286095 3.43359375 8.12109375 C2.90074419 5.51445133 2.00604604 4.69214153 0 3 C-0.66 2.34 -1.32 1.68 -2 1 C-1.34 0.67 -0.68 0.34 0 0 Z " fill="#2F2F2F" transform="translate(405,211)"/>
<path d="M0 0 C0 0.33 0 0.66 0 1 C-0.60328125 1.07476562 -1.2065625 1.14953125 -1.828125 1.2265625 C-6.18771849 1.94378594 -8.41341782 2.36942416 -11.5 5.6875 C-13.08643969 9.19088765 -13.55324305 12.20256589 -14 16 C-14.66 16.33 -15.32 16.66 -16 17 C-16.91473744 8.58102767 -16.91473744 8.58102767 -14.734375 4.8125 C-9.76133301 -0.98133533 -7.38452593 -1.07194731 0 0 Z " fill="#111111" transform="translate(267,288)"/>
<path d="M0 0 C0.99 0 1.98 0 3 0 C3.0809723 2.43816585 3.14046972 4.87364384 3.1875 7.3125 C3.22520508 8.34793945 3.22520508 8.34793945 3.26367188 9.40429688 C3.29296875 11.42578125 3.29296875 11.42578125 3 15 C2.01 15.99 1.02 16.98 0 18 C0 12.06 0 6.12 0 0 Z " fill="#484848" transform="translate(181,370)"/>
<path d="M0 0 C0.66 0 1.32 0 2 0 C2 4.29 2 8.58 2 13 C2.66 13.33 3.32 13.66 4 14 C3.67 14.33 3.34 14.66 3 15 C2.76924918 16.34747084 2.58846937 17.70377565 2.4375 19.0625 C2.293125 20.361875 2.14875 21.66125 2 23 C1.34 23 0.68 23 0 23 C0 15.41 0 7.82 0 0 Z " fill="#111111" transform="translate(316,370)"/>
<path d="M0 0 C0.99 0.66 1.98 1.32 3 2 C3 3.98 3 5.96 3 8 C-2.61 8 -8.22 8 -14 8 C-14.33 8.66 -14.66 9.32 -15 10 C-14.67 8.68 -14.34 7.36 -14 6 C-9.05 6 -4.1 6 1 6 C0.67 4.02 0.34 2.04 0 0 Z " fill="#393939" transform="translate(362,298)"/>
<path d="M0 0 C1.7265625 1.96875 1.7265625 1.96875 3.625 4.5 C4.25664062 5.3353125 4.88828125 6.170625 5.5390625 7.03125 C6.02117187 7.6809375 6.50328125 8.330625 7 9 C6.01 10.485 6.01 10.485 5 12 C2.69 9.03 0.38 6.06 -2 3 C-2.33 8.28 -2.66 13.56 -3 19 C-3.33 19 -3.66 19 -4 19 C-4 13.06 -4 7.12 -4 1 C-2 0 -2 0 0 0 Z " fill="#3E3E3E" transform="translate(177,214)"/>
<path d="M0 0 C2.5 2 2.5 2 4 4 C3.34 4.66 2.68 5.32 2 6 C2 5.34 2 4.68 2 4 C-4.24758596 2.63089378 -4.24758596 2.63089378 -9.9375 4.9375 C-10.618125 5.618125 -11.29875 6.29875 -12 7 C-12.66 7 -13.32 7 -14 7 C-11.30518208 0.48752337 -6.74666561 -1.31338777 0 0 Z " fill="#212121" transform="translate(359,294)"/>
<path d="M0 0 C0.66 0 1.32 0 2 0 C2.391875 0.495 2.78375 0.99 3.1875 1.5 C6.00993974 3.8358122 8.47262616 3.32067035 12 3 C12.66 2.34 13.32 1.68 14 1 C14.99 1.33 15.98 1.66 17 2 C14.15695013 4.84304987 11.99733936 6.32780773 8 6.5625 C4.45280713 6.40798213 3.94396284 5.95330237 1 3.5 C0.34 2.675 -0.32 1.85 -1 1 C-0.67 0.67 -0.34 0.34 0 0 Z " fill="#1D1D1D" transform="translate(394,309)"/>
<path d="M0 0 C0.33 0 0.66 0 1 0 C1.02578125 0.58007812 1.0515625 1.16015625 1.078125 1.7578125 C1.48567151 7.3708394 2.49364211 10.58877555 6 15 C5.01 15.33 4.02 15.66 3 16 C-0.69948187 12.65284974 -0.69948187 12.65284974 -2 10 C-1.84921291 6.50589908 -1.0336164 3.33127323 0 0 Z " fill="#3B3B3B" transform="translate(253,297)"/>
<path d="M0 0 C0.33 0 0.66 0 1 0 C1.33 2.31 1.66 4.62 2 7 C0.0373772 9.04795423 -1.4277307 9.94976638 -4.26953125 10.19921875 C-6.51954383 10.18858877 -8.75385562 10.12958525 -11 10 C-11 9.34 -11 8.68 -11 8 C-6.545 7.505 -6.545 7.505 -2 7 C-1.34 4.69 -0.68 2.38 0 0 Z " fill="#424242" transform="translate(453,375)"/>
<path d="M0 0 C0.99 0.33 1.98 0.66 3 1 C3.33 1.99 3.66 2.98 4 4 C3.01 4.33 2.02 4.66 1 5 C1 10.61 1 16.22 1 22 C0.67 22 0.34 22 0 22 C0 14.74 0 7.48 0 0 Z " fill="#0B0B0B" transform="translate(412,370)"/>
<path d="M0 0 C0.66 0 1.32 0 2 0 C2.06058594 0.91523438 2.12117188 1.83046875 2.18359375 2.7734375 C2.26738281 3.96195312 2.35117187 5.15046875 2.4375 6.375 C2.51871094 7.55835938 2.59992188 8.74171875 2.68359375 9.9609375 C2.81084936 12.91518901 2.81084936 12.91518901 4 15 C2.68 14.67 1.36 14.34 0 14 C0 9.38 0 4.76 0 0 Z " fill="#1F1F1F" transform="translate(495,297)"/>
<path d="M0 0 C0.66 0.33 1.32 0.66 2 1 C1 4 1 4 -2 6 C-4.04296875 6.1953125 -4.04296875 6.1953125 -6.1875 6.125 C-8.0746875 6.063125 -8.0746875 6.063125 -10 6 C-10 5.34 -10 4.68 -10 4 C-8.906875 3.896875 -7.81375 3.79375 -6.6875 3.6875 C-3.14440371 3.02692273 -2.06756277 2.7972908 0 0 Z " fill="#292929" transform="translate(180,387)"/>
<path d="M0 0 C2 1.125 2 1.125 4 3 C4.5 5.9375 4.5 5.9375 4 9 C2 11.375 2 11.375 0 13 C0.09539062 12.38511719 0.19078125 11.77023438 0.2890625 11.13671875 C0.39992188 10.32847656 0.51078125 9.52023438 0.625 8.6875 C0.74101562 7.88699219 0.85703125 7.08648437 0.9765625 6.26171875 C1.21533407 3.71276785 1.21533407 3.71276785 -1 1 C-0.67 0.67 -0.34 0.34 0 0 Z " fill="#232323" transform="translate(288,211)"/>
<path d="M0 0 C0.66 0.33 1.32 0.66 2 1 C1.67 2.32 1.34 3.64 1 5 C0.67 4.34 0.34 3.68 0 3 C-0.33 8.28 -0.66 13.56 -1 19 C-1.66 18.67 -2.32 18.34 -3 18 C-2.67 12.39 -2.34 6.78 -2 1 C-1.34 0.67 -0.68 0.34 0 0 Z " fill="#212121" transform="translate(415,374)"/>
<path d="M0 0 C0.33 0 0.66 0 1 0 C1 5.94 1 11.88 1 18 C0.67 18 0.34 18 0 18 C-0.33 14.04 -0.66 10.08 -1 6 C-1.99 6.495 -1.99 6.495 -3 7 C-1.125 1.125 -1.125 1.125 0 0 Z " fill="#CBCBCB" transform="translate(431,375)"/>
<path d="M0 0 C0.33 0 0.66 0 1 0 C1.61240935 7.2264303 1.61240935 7.2264303 -1.375 11 C-4 13 -4 13 -6 13 C-6 12.34 -6 11.68 -6 11 C-5.38125 10.443125 -4.7625 9.88625 -4.125 9.3125 C-1.46009841 6.41246003 -0.87514289 3.79228585 0 0 Z " fill="#1C1C1C" transform="translate(410,219)"/>
<path d="M0 0 C1.43861294 0.08746284 2.87597508 0.19565348 4.3125 0.3125 C5.11300781 0.37050781 5.91351563 0.42851562 6.73828125 0.48828125 C9.39066259 1.08838825 10.36503879 1.85708967 12 4 C12 4.66 12 5.32 12 6 C11.505 5.731875 11.01 5.46375 10.5 5.1875 C7.0763054 3.56124507 3.55867715 2.30484829 0 1 C0 0.67 0 0.34 0 0 Z " fill="#313131" transform="translate(281,370)"/>
<path d="M0 0 C0.268125 0.556875 0.53625 1.11375 0.8125 1.6875 C3.0476609 6.04018174 4.83431258 9.27075652 9 12 C6.1875 11.8125 6.1875 11.8125 3 11 C-0.05305441 7.43810319 -0.32046578 4.59334282 0 0 Z " fill="#161616" transform="translate(470,300)"/>
<path d="M0 0 C2.97 0.495 2.97 0.495 6 1 C6.33 2.98 6.66 4.96 7 7 C4.03 6.505 4.03 6.505 1 6 C0.67 4.02 0.34 2.04 0 0 Z " fill="#292929" transform="translate(447,226)"/>
<path d="M0 0 C2.97 0.495 2.97 0.495 6 1 C6.33 2.98 6.66 4.96 7 7 C4.03 6.505 4.03 6.505 1 6 C0.67 4.02 0.34 2.04 0 0 Z " fill="#292929" transform="translate(208,226)"/>
<path d="M0 0 C2.32590854 3.63423209 2.16265833 6.77088331 2 11 C1.34 11 0.68 11 0 11 C-1.62651522 7.74696956 -1.11453156 4.60774398 -1 1 C-0.67 0.67 -0.34 0.34 0 0 Z " fill="#0A0A0A" transform="translate(346,300)"/>
<path d="M0 0 C0.66 0 1.32 0 2 0 C2.33 5.61 2.66 11.22 3 17 C2.01 17 1.02 17 0 17 C0 11.39 0 5.78 0 0 Z " fill="#424242" transform="translate(507,296)"/>
<path d="M0 0 C-0.99 1.485 -0.99 1.485 -2 3 C-2.763125 2.79375 -3.52625 2.5875 -4.3125 2.375 C-7.21885944 1.66608797 -7.21885944 1.66608797 -10 4 C-10.33 3.34 -10.66 2.68 -11 2 C-7.374967 -1.625033 -4.81746234 -1.01907857 0 0 Z " fill="#2F2F2F" transform="translate(105,297)"/>
<path d="M0 0 C1.35015859 4.05047576 0.62084998 6.7920168 0 11 C-0.66 10.67 -1.32 10.34 -2 10 C-2 7.03 -2 4.06 -2 1 C-1.34 0.67 -0.68 0.34 0 0 Z " fill="#121212" transform="translate(293,294)"/>
<path d="M0 0 C0.99 0 1.98 0 3 0 C3 3.3 3 6.6 3 10 C-0.00617269 6.99382731 0.40414684 4.17618402 0 0 Z " fill="#151515" transform="translate(314,295)"/>
<path d="M0 0 C4.67692308 1.47692308 4.67692308 1.47692308 6.3125 4.125 C6.539375 4.74375 6.76625 5.3625 7 6 C6.01 6.495 6.01 6.495 5 7 C3.29115995 5.37660195 1.62553283 3.70680947 0 2 C0 1.34 0 0.68 0 0 Z " fill="#212121" transform="translate(404,294)"/>
<path d="M0 0 C0.33 0 0.66 0 1 0 C1.36923077 6.52307692 1.36923077 6.52307692 -0.5 8.9375 C-0.995 9.288125 -1.49 9.63875 -2 10 C-1.54177532 6.53058454 -1.10868317 3.32604951 0 0 Z " fill="#121212" transform="translate(275,300)"/>
<path d="M0 0 C0.66 0 1.32 0 2 0 C2 2.64 2 5.28 2 8 C1.01 8 0.02 8 -1 8 C-1.125 2.25 -1.125 2.25 0 0 Z " fill="#505050" transform="translate(470,296)"/>
<path d="M0 0 C0.66 0 1.32 0 2 0 C2 2.64 2 5.28 2 8 C1.01 8 0.02 8 -1 8 C-1.125 2.25 -1.125 2.25 0 0 Z " fill="#505050" transform="translate(434,216)"/>
<path d="M0 0 C0.66 0 1.32 0 2 0 C2 2.64 2 5.28 2 8 C1.01 8 0.02 8 -1 8 C-1.125 2.25 -1.125 2.25 0 0 Z " fill="#505050" transform="translate(195,216)"/>
<path d="M0 0 C0.33 0 0.66 0 1 0 C1.33 3.63 1.66 7.26 2 11 C1.01 10.67 0.02 10.34 -1 10 C-0.67 6.7 -0.34 3.4 0 0 Z " fill="#434343" transform="translate(314,297)"/>
</svg>
