<?xml version="1.0" encoding="UTF-8"?>
<svg version="1.1" xmlns="http://www.w3.org/2000/svg" width="74" height="74">
<path d="M0 0 C1.32 0 2.64 0 4 0 C4.01417969 0.66386719 4.02835938 1.32773437 4.04296875 2.01171875 C4.31826498 8.00781718 4.31826498 8.00781718 7.5625 12.9375 C8.366875 13.618125 9.17125 14.29875 10 15 C10 15.99 10 16.98 10 18 C8.02 18.66 6.04 19.32 4 20 C4 20.66 4 21.32 4 22 C4.94875 22.309375 5.8975 22.61875 6.875 22.9375 C10 24 10 24 12 25 C12 25.66 12 26.32 12 27 C6.25 30 6.25 30 4 30 C4 30.66 4 31.32 4 32 C4.94875 32.309375 5.8975 32.61875 6.875 32.9375 C10 34 10 34 12 35 C12 35.66 12 36.32 12 37 C6.25 40 6.25 40 4 40 C4 40.66 4 41.32 4 42 C4.94875 42.309375 5.8975 42.61875 6.875 42.9375 C10 44 10 44 12 45 C12 45.66 12 46.32 12 47 C6.25 50 6.25 50 4 50 C4 50.66 4 51.32 4 52 C5.65 52.66 7.3 53.32 9 54 C8.67 55.32 8.34 56.64 8 58 C1.97229862 57.52412884 -2.76678289 54.80277043 -8 52 C-8 51.34 -8 50.68 -8 50 C-2.25 47 -2.25 47 0 47 C0 46.34 0 45.68 0 45 C-0.94875 44.690625 -1.8975 44.38125 -2.875 44.0625 C-6 43 -6 43 -8 42 C-8 41.34 -8 40.68 -8 40 C-2.25 37 -2.25 37 0 37 C0 36.34 0 35.68 0 35 C-0.94875 34.690625 -1.8975 34.38125 -2.875 34.0625 C-6 33 -6 33 -8 32 C-8 31.34 -8 30.68 -8 30 C-2.25 27 -2.25 27 0 27 C0 26.34 0 25.68 0 25 C-0.94875 24.690625 -1.8975 24.38125 -2.875 24.0625 C-6 23 -6 23 -8 22 C-8 21.34 -8 20.68 -8 20 C-6.71086513 19.32845067 -5.41859796 18.66291141 -4.125 18 C-3.40570313 17.62875 -2.68640625 17.2575 -1.9453125 16.875 C0 16 0 16 2 16 C1.34 15.01 0.68 14.02 0 13 C-0.1953125 9.86328125 -0.1953125 9.86328125 -0.125 6.3125 C-0.10695313 5.13300781 -0.08890625 3.95351563 -0.0703125 2.73828125 C-0.04710937 1.83464844 -0.02390625 0.93101563 0 0 Z " fill="#000000" transform="translate(36,15)"/>
<path d="M0 0 C2.5 0.125 2.5 0.125 3.5 1.125 C3.625 3.625 3.625 3.625 3.5 6.125 C2.5 7.125 2.5 7.125 0 7.25 C-2.5 7.125 -2.5 7.125 -3.5 6.125 C-3.625 3.625 -3.625 3.625 -3.5 1.125 C-2.5 0.125 -2.5 0.125 0 0 Z " fill="#005A00" transform="translate(37.5,1.875)"/>
</svg>
