<?xml version="1.0" encoding="UTF-8"?>
<svg version="1.1" xmlns="http://www.w3.org/2000/svg" width="215" height="282">
<path d="M0 0 C70.95 0 141.9 0 215 0 C215 93.06 215 186.12 215 282 C144.05 282 73.1 282 0 282 C0 188.94 0 95.88 0 0 Z " fill="#FCFCFC" transform="translate(0,0)"/>
<path d="M0 0 C70.95 0 141.9 0 215 0 C215 93.06 215 186.12 215 282 C144.05 282 73.1 282 0 282 C0 188.94 0 95.88 0 0 Z M16 17 C16 98.51 16 180.02 16 264 C76.06 264 136.12 264 198 264 C198 247.17 198 230.34 198 213 C197.01 212.01 196.02 211.02 195 210 C194.34765625 207.9140625 194.34765625 207.9140625 194.0625 205.625 C193.89427734 204.49964844 193.89427734 204.49964844 193.72265625 203.3515625 C194 201 194 201 195.98632812 199.01953125 C198.95657431 194.56560245 198.55539111 190.57659101 198.49609375 185.3359375 C198.49754898 184.30691315 198.49900421 183.27788879 198.50050354 182.21768188 C198.49884658 180.04743613 198.48730815 177.87717838 198.46655273 175.70703125 C198.43754101 172.37970326 198.44595984 169.05396316 198.45898438 165.7265625 C198.45274857 163.61717974 198.44435887 161.50780201 198.43359375 159.3984375 C198.43652939 158.401539 198.43946503 157.4046405 198.44248962 156.37753296 C198.42346336 154.99061752 198.42346336 154.99061752 198.40405273 153.57568359 C198.39594826 152.35587296 198.39594826 152.35587296 198.38768005 151.11141968 C197.90976293 148.50854238 196.94319519 147.72377599 195 146 C194.34765625 143.9140625 194.34765625 143.9140625 194.0625 141.625 C193.95035156 140.87476563 193.83820313 140.12453125 193.72265625 139.3515625 C194 137 194 137 195.98895264 135.04829407 C199.01319993 130.4642175 198.52714661 126.25229472 198.45410156 120.87573242 C198.45482477 119.16497638 198.45482477 119.16497638 198.45556259 117.41965961 C198.45257922 113.73127753 198.42212855 110.04370602 198.390625 106.35546875 C198.3847432 104.07703033 198.38066289 101.79858651 198.37841797 99.5201416 C198.35745419 91.07584526 198.30160925 82.63166465 198.25 74.1875 C198.1675 55.315625 198.085 36.44375 198 17 C137.94 17 77.88 17 16 17 Z " fill="#040404" transform="translate(0,0)"/>
<path d="M0 0 C70.95 0 141.9 0 215 0 C215 93.06 215 186.12 215 282 C144.05 282 73.1 282 0 282 C0 188.94 0 95.88 0 0 Z M6 7 C6 95.11 6 183.22 6 274 C72.66 274 139.32 274 208 274 C208.495 243.805 208.495 243.805 209 213 C209.99 212.01 210.98 211.02 212 210 C212.72206746 207.90859495 212.72206746 207.90859495 212.9375 205.625 C213.10572266 204.49964844 213.10572266 204.49964844 213.27734375 203.3515625 C213.2247104 200.81436844 213.2247104 200.81436844 211.01367188 199.01953125 C208.04342569 194.56560245 208.44460889 190.57659101 208.50390625 185.3359375 C208.50245102 184.30691315 208.50099579 183.27788879 208.49949646 182.21768188 C208.50115342 180.04743613 208.51269185 177.87717838 208.53344727 175.70703125 C208.56245899 172.37970326 208.55404016 169.05396316 208.54101562 165.7265625 C208.54725143 163.61717974 208.55564113 161.50780201 208.56640625 159.3984375 C208.56347061 158.401539 208.56053497 157.4046405 208.55751038 156.37753296 C208.57019455 155.45292267 208.58287872 154.52831238 208.59594727 153.57568359 C208.60135025 152.7624765 208.60675323 151.94926941 208.61231995 151.11141968 C209.09023707 148.50854238 210.05680481 147.72377599 212 146 C212.72206746 143.90859495 212.72206746 143.90859495 212.9375 141.625 C213.10572266 140.49964844 213.10572266 140.49964844 213.27734375 139.3515625 C213.2318381 136.81863969 213.2318381 136.81863969 211.01678467 135.10566711 C207.88847946 130.28835828 208.42958266 125.58500097 208.45410156 119.95776367 C208.44370724 118.71813779 208.43331291 117.47851191 208.42260361 116.2013216 C208.39830013 112.85527972 208.39109028 109.51007855 208.39224243 106.16400909 C208.38969604 103.02155792 208.36558095 99.87930301 208.34326172 96.73693848 C208.29055642 87.55389095 208.27237709 78.37067151 208.25 69.1875 C208.1675 48.665625 208.085 28.14375 208 7 C141.34 7 74.68 7 6 7 Z " fill="#FEFEFE" transform="translate(0,0)"/>
<path d="M0 0 C3.3 0 6.6 0 10 0 C10 15.51 10 31.02 10 47 C6.7 47 3.4 47 0 47 C0 31.49 0 15.98 0 0 Z " fill="#000300" transform="translate(198,149)"/>
<path d="M0 0 C4.54971257 0.97493841 6.23050026 2.48050026 9.5 5.75 C10.7238892 8.19777839 10.516364 9.48390541 10.25 12.1875 C10.18296875 12.96996094 10.1159375 13.75242188 10.046875 14.55859375 C9.38712642 17.20230057 8.68609715 18.14257562 6.5 19.75 C2.30206748 20.9920849 -1.37075535 21.20650316 -5.4375 19.5625 C-8.5297082 16.84510492 -9.28470365 14.96104196 -10 10.9375 C-9.08227495 5.08700282 -5.80643285 1.24423561 0 0 Z " fill="#058005" transform="translate(202.5,129.25)"/>
<path d="M0 0 C2.625 2 2.625 2 4 5 C4.198097 8.89363059 4.10530695 12.52177794 1.71484375 15.71875 C-1.45650445 18.08823112 -5.13993294 18.11532714 -9 18 C-12.01891288 16.77958841 -13.41982327 15.80119643 -15.3125 13.1875 C-16.24084633 10.23367076 -16.37765935 8.084218 -16 5 C-11.80806002 -1.50473445 -7.09399776 -1.81504087 0 0 Z " fill="#058205" transform="translate(209,196)"/>
<path d="M0 0 C8 0 8 0 11 2 C11.33 1.34 11.66 0.68 12 0 C12.99 0 13.98 0 15 0 C17.1875 3 17.1875 3 19 6 C20.98 4.35 22.96 2.7 25 1 C24.690625 1.7425 24.38125 2.485 24.0625 3.25 C23.5365625 4.61125 23.5365625 4.61125 23 6 C22.566875 6.99 22.566875 6.99 22.125 8 C21.92573809 11.18819058 23.98779959 12.68292074 26 15 C26 15.66 26 16.32 26 17 C25.01 16.67 24.02 16.34 23 16 C21.8125 13.4375 21.8125 13.4375 21 11 C17.47618313 13.54604597 17.47618313 13.54604597 15 17 C12.6875 17.3125 12.6875 17.3125 10 17 C8.98133771 15.34467377 7.98189187 13.67739862 7 12 C4.40877257 11.11341534 4.40877257 11.11341534 2 11 C2 12.98 2 14.96 2 17 C1.34 17 0.68 17 0 17 C0 11.39 0 5.78 0 0 Z " fill="#E8E8E8" transform="translate(59,195)"/>
<path d="M0 0 C1.918125 -0.0825 3.83625 -0.165 5.8125 -0.25 C7.43091797 -0.31960937 7.43091797 -0.31960937 9.08203125 -0.390625 C12 0 12 0 13.8984375 1.82421875 C15.45319485 4.89514019 14.90171296 6.73996084 14 10 C13.01 11.485 13.01 11.485 12 13 C9.6171875 13.29296875 9.6171875 13.29296875 6.875 13.1875 C5.96492187 13.16042969 5.05484375 13.13335937 4.1171875 13.10546875 C3.41851562 13.07066406 2.71984375 13.03585938 2 13 C2 15.31 2 17.62 2 20 C1.34 20 0.68 20 0 20 C0 13.4 0 6.8 0 0 Z " fill="#282828" transform="translate(143,53)"/>
<path d="M0 0 C0.66 0 1.32 0 2 0 C2 1.32 2 2.64 2 4 C2.99 4 3.98 4 5 4 C5 2.68 5 1.36 5 0 C5.66 0 6.32 0 7 0 C7 1.65 7 3.3 7 5 C7.99 5 8.98 5 10 5 C8.979536 10.49313599 7.76814977 15.6955507 6 21 C5.62468554 23.32694964 5.28082798 25.65976685 5 28 C4.01 28 3.02 28 2 28 C1.87882812 27.15695313 1.75765625 26.31390625 1.6328125 25.4453125 C1.46523438 24.34960938 1.29765625 23.25390625 1.125 22.125 C0.96257813 21.03445312 0.80015625 19.94390625 0.6328125 18.8203125 C0.23743487 15.88067286 0.23743487 15.88067286 -2 14 C-2.4140625 11.8359375 -2.4140625 11.8359375 -2.625 9.375 C-2.69976562 8.55773438 -2.77453125 7.74046875 -2.8515625 6.8984375 C-2.90054688 6.27195312 -2.94953125 5.64546875 -3 5 C-2.01 4.67 -1.02 4.34 0 4 C0 2.68 0 1.36 0 0 Z " fill="#3C3148" transform="translate(35,49)"/>
<path d="M0 0 C2.375 1.5 2.375 1.5 4 4 C4.6293407 7.51440821 4.63147635 10.7370473 3 14 C-0.26205554 15.63102777 -3.43555389 15.51981506 -7 15 C-9 14 -9 14 -10 12 C-10.75912409 5.16788321 -10.75912409 5.16788321 -8.375 1.5 C-5.27859404 -0.45562482 -3.60146865 -0.60024477 0 0 Z " fill="#F5F5F5" transform="translate(170,58)"/>
<path d="M0 0 C5 2 5 2 7 3 C7 3.66 7 4.32 7 5 C8.11375 5.309375 9.2275 5.61875 10.375 5.9375 C14 7 14 7 16 8 C16 8.66 16 9.32 16 10 C12.44239635 12.61588503 9.35522853 13.49357808 5 14 C5 14.66 5 15.32 5 16 C3.35 16.33 1.7 16.66 0 17 C0 11.39 0 5.78 0 0 Z " fill="#272727" transform="translate(139,195)"/>
<path d="M0 0 C0 5.28 0 10.56 0 16 C-4.34459562 15.13108088 -6.51511336 14.48920474 -10 12 C-10 11.34 -10 10.68 -10 10 C-11.65 9.67 -13.3 9.34 -15 9 C-13.69331354 5.07994061 -12.21332305 4.71967958 -8.625 2.8125 C-7.15933594 2.01779297 -7.15933594 2.01779297 -5.6640625 1.20703125 C-3 0 -3 0 0 0 Z " fill="#212121" transform="translate(108,132)"/>
<path d="M0 0 C15.51 0 31.02 0 47 0 C47 0.99 47 1.98 47 3 C31.49 3 15.98 3 0 3 C0 2.01 0 1.02 0 0 Z " fill="#565656" transform="translate(91,203)"/>
<path d="M0 0 C8 0 8 0 10 1.125 C11.75591183 4.41733469 11.34538411 7.65683957 10.4375 11.1875 C9.77806294 13.2175204 9.77806294 13.2175204 11 16 C10.34 16 9.68 16 9 16 C8.773125 15.360625 8.54625 14.72125 8.3125 14.0625 C7.14749104 11.72806339 7.14749104 11.72806339 4.375 11.25 C3.59125 11.1675 2.8075 11.085 2 11 C2 12.98 2 14.96 2 17 C1.34 17 0.68 17 0 17 C0 11.39 0 5.78 0 0 Z " fill="#5C5C5C" transform="translate(59,195)"/>
<path d="M0 0 C1.27875 -0.061875 2.5575 -0.12375 3.875 -0.1875 C4.95394531 -0.23970703 4.95394531 -0.23970703 6.0546875 -0.29296875 C6.69664063 -0.19628906 7.33859375 -0.09960938 8 0 C10.26954631 3.40431947 10.36549949 5.16524202 10.625 9.1875 C10.69976562 10.27417969 10.77453125 11.36085938 10.8515625 12.48046875 C10.90054688 13.31191406 10.94953125 14.14335938 11 15 C9.02090602 15.02686553 7.04171029 15.04633375 5.0625 15.0625 C3.96035156 15.07410156 2.85820313 15.08570312 1.72265625 15.09765625 C-1 15 -1 15 -2 14 C-2.25 11.0625 -2.25 11.0625 -2 8 C1.6441774 5.5705484 3.71241272 5.83820425 8 6 C7.67 5.01 7.34 4.02 7 3 C4.36 3 1.72 3 -1 3 C-0.67 2.01 -0.34 1.02 0 0 Z " fill="#505050" transform="translate(113,58)"/>
<path d="M0 0 C2.4375 1.75 2.4375 1.75 4 4 C4 5.32 4 6.64 4 8 C-0.29 8 -4.58 8 -9 8 C-8.01 9.65 -7.02 11.3 -6 13 C-2.37400578 13.41725678 -2.37400578 13.41725678 1 13 C1 12.34 1 11.68 1 11 C1.66 11 2.32 11 3 11 C2.34 12.32 1.68 13.64 1 15 C-6.24942792 15.60411899 -6.24942792 15.60411899 -9.5625 12.9375 C-11.43625505 9.10852228 -11.12962701 7.06665724 -10 3 C-7.67133148 -1.01048467 -4.26353269 -0.52359173 0 0 Z " fill="#393939" transform="translate(88,58)"/>
<path d="M0 0 C2.41854446 -0.13536629 4.82949783 -0.23420279 7.25 -0.3125 C8.27287109 -0.3753418 8.27287109 -0.3753418 9.31640625 -0.43945312 C11.328125 -0.48828125 11.328125 -0.48828125 15 0 C17.484375 2.39453125 17.484375 2.39453125 19 5 C19 5.66 19 6.32 19 7 C19.66 7 20.32 7 21 7 C21.309375 6.38125 21.61875 5.7625 21.9375 5.125 C22.625 3.75 23.3125 2.375 24 1 C24.66 1 25.32 1 26 1 C25.690625 1.53625 25.38125 2.0725 25.0625 2.625 C23.76986318 5.51442348 23.19392546 7.83255089 23 11 C24.31673833 13.83658587 24.31673833 13.83658587 26 16 C23 15 23 15 21 12 C17.72226496 12.75150023 17.72226496 12.75150023 16 16 C15.34 15.67 14.68 15.34 14 15 C14.515625 14.46375 15.03125 13.9275 15.5625 13.375 C17.2978856 11.01548747 17.2978856 11.01548747 16.8125 7.875 C16.22389082 4.89845558 16.22389082 4.89845558 14 3 C11.67724823 2.59952556 9.34260643 2.2602896 7 2 C7 6.62 7 11.24 7 16 C6.67 16 6.34 16 6 16 C6 11.38 6 6.76 6 2 C4.02 2 2.04 2 0 2 C0 1.34 0 0.68 0 0 Z " fill="#535353" transform="translate(58,131)"/>
<path d="M0 0 C0.99 0.66 1.98 1.32 3 2 C2.67 2.66 2.34 3.32 2 4 C0.88625 3.814375 -0.2275 3.62875 -1.375 3.4375 C-4.82568861 2.68319343 -4.82568861 2.68319343 -7 4 C-7 5.32 -7 6.64 -7 8 C-6.21753906 8.27714844 -5.43507813 8.55429687 -4.62890625 8.83984375 C-3.61699219 9.20207031 -2.60507813 9.56429687 -1.5625 9.9375 C-0.55316406 10.29714844 0.45617187 10.65679687 1.49609375 11.02734375 C4 12 4 12 5 13 C5.4614486 17.38376168 5.4614486 17.38376168 3.765625 19.6484375 C1.52232798 21.36565159 0.29471061 21.34315702 -2.5 21.25 C-3.66015625 21.22679687 -3.66015625 21.22679687 -4.84375 21.203125 C-7 21 -7 21 -10 20 C-9.505 18.515 -9.505 18.515 -9 17 C-8.34 17.33 -7.68 17.66 -7 18 C-5.45976004 18.06950541 -3.91665012 18.08452357 -2.375 18.0625 C-1.55773437 18.05347656 -0.74046875 18.04445313 0.1015625 18.03515625 C0.72804688 18.02355469 1.35453125 18.01195313 2 18 C2.33 16.68 2.66 15.36 3 14 C2.22914062 13.80664062 1.45828125 13.61328125 0.6640625 13.4140625 C-0.33882812 13.15367188 -1.34171875 12.89328125 -2.375 12.625 C-3.37273437 12.36976562 -4.37046875 12.11453125 -5.3984375 11.8515625 C-8 11 -8 11 -10 9 C-9.8125 5.5 -9.8125 5.5 -9 2 C-5.53001271 -0.31332486 -4.07490752 -0.33957563 0 0 Z " fill="#353535" transform="translate(70,52)"/>
<path d="M0 0 C6.0546875 -0.1953125 6.0546875 -0.1953125 8 0 C10 2 10 2 10.25 5 C10 8 10 8 8 10 C5.31160615 10.26991906 2.70858064 10.08737357 0 10 C0 6.7 0 3.4 0 0 Z " fill="#EAEAEA" transform="translate(145,54)"/>
<path d="M0 0 C2.375 1.5 2.375 1.5 4 4 C4.6293407 7.51440821 4.63147635 10.7370473 3 14 C-0.26205554 15.63102777 -3.43555389 15.51981506 -7 15 C-9 14 -9 14 -10 12 C-10.75912409 5.16788321 -10.75912409 5.16788321 -8.375 1.5 C-5.27859404 -0.45562482 -3.60146865 -0.60024477 0 0 Z M-8 4 C-8.33333333 7.5 -8.33333333 7.5 -8 11 C-6.11499729 13.31563087 -6.11499729 13.31563087 -3 13.25 C0.11499729 13.31563087 0.11499729 13.31563087 2 11 C2.33333333 7.5 2.33333333 7.5 2 4 C0.11499729 1.68436913 0.11499729 1.68436913 -3 1.75 C-6.11499729 1.68436913 -6.11499729 1.68436913 -8 4 Z " fill="#3F3F3F" transform="translate(170,58)"/>
<path d="M0 0 C2.88437779 1.29299694 4.87219421 2.65941363 7 5 C8.65 3.35 10.3 1.7 12 0 C11.690625 0.7425 11.38125 1.485 11.0625 2.25 C10.711875 3.1575 10.36125 4.065 10 5 C9.566875 5.99 9.566875 5.99 9.125 7 C8.92573809 10.18819058 10.98779959 11.68292074 13 14 C13 14.66 13 15.32 13 16 C12.01 15.67 11.02 15.34 10 15 C8.8125 12.4375 8.8125 12.4375 8 10 C5.69 11.65 3.38 13.3 1 15 C1.309375 14.2575 1.61875 13.515 1.9375 12.75 C2.288125 11.8425 2.63875 10.935 3 10 C3.28875 9.34 3.5775 8.68 3.875 8 C4.22975836 5.71981346 4.22975836 5.71981346 2.0625 3.3125 C1.381875 2.549375 0.70125 1.78625 0 1 C0 0.67 0 0.34 0 0 Z " fill="#555555" transform="translate(72,196)"/>
<path d="M0 0 C0.66 0 1.32 0 2 0 C2 1.65 2 3.3 2 5 C2.99 5 3.98 5 5 5 C5 5.66 5 6.32 5 7 C4.01 7 3.02 7 2 7 C2 10.63 2 14.26 2 18 C3.32 18 4.64 18 6 18 C6 18.66 6 19.32 6 20 C4.33388095 20.042721 2.66617115 20.04063832 1 20 C0 19 0 19 -0.09765625 16.27734375 C-0.08605469 15.17519531 -0.07445312 14.07304688 -0.0625 12.9375 C-0.05347656 11.83277344 -0.04445312 10.72804688 -0.03515625 9.58984375 C-0.02355469 8.73519531 -0.01195312 7.88054688 0 7 C-0.66 7 -1.32 7 -2 7 C-2 6.34 -2 5.68 -2 5 C-1.34 5 -0.68 5 0 5 C0 3.35 0 1.7 0 0 Z " fill="#2B2B2B" transform="translate(189,53)"/>
<path d="M0 0 C4.29 0 8.58 0 13 0 C11.515 1.485 11.515 1.485 10 3 C10 3.66 10 4.32 10 5 C3.53104925 6.34261242 3.53104925 6.34261242 1.0625 4.75 C0 3 0 3 0 0 Z " fill="#D7D7D7" transform="translate(79,66)"/>
<path d="M0 0 C2 2 2 2 2 5 C-1.63 5 -5.26 5 -9 5 C-6.56337092 -1.0915727 -5.97057115 -1.64190707 0 0 Z " fill="#D4D4D4" transform="translate(88,60)"/>
<path d="M0 0 C0.66 0 1.32 0 2 0 C2 6.27 2 12.54 2 19 C2.99 19 3.98 19 5 19 C5 19.66 5 20.32 5 21 C3.35 21 1.7 21 0 21 C0 14.07 0 7.14 0 0 Z " fill="#444444" transform="translate(128,52)"/>
<path d="M0 0 C2.31 0 4.62 0 7 0 C7.38218767 1.65614657 7.71395102 3.32457024 8 5 C7 6 7 6 3.4375 6.0625 C2.303125 6.041875 1.16875 6.02125 0 6 C0 4.02 0 2.04 0 0 Z " fill="#F3F3F3" transform="translate(61,198)"/>
<path d="M0 0 C1.27875 -0.061875 2.5575 -0.12375 3.875 -0.1875 C4.95394531 -0.23970703 4.95394531 -0.23970703 6.0546875 -0.29296875 C6.69664063 -0.19628906 7.33859375 -0.09960938 8 0 C10.26954631 3.40431947 10.36549949 5.16524202 10.625 9.1875 C10.69976562 10.27417969 10.77453125 11.36085938 10.8515625 12.48046875 C10.90054688 13.31191406 10.94953125 14.14335938 11 15 C10.34 15 9.68 15 9 15 C7.78306124 12.56612247 7.68040104 10.58161154 7.4375 7.875 C7.35371094 6.96492188 7.26992187 6.05484375 7.18359375 5.1171875 C7.12300781 4.41851562 7.06242187 3.71984375 7 3 C4.36 3 1.72 3 -1 3 C-0.67 2.01 -0.34 1.02 0 0 Z " fill="#343434" transform="translate(113,58)"/>
<path d="M0 0 C1.134375 0.020625 2.26875 0.04125 3.4375 0.0625 C3.1075 1.7125 2.7775 3.3625 2.4375 5.0625 C0.4575 5.3925 -1.5225 5.7225 -3.5625 6.0625 C-3.94468767 4.40635343 -4.27645102 2.73792976 -4.5625 1.0625 C-3.5625 0.0625 -3.5625 0.0625 0 0 Z " fill="#EFEFEF" transform="translate(117.5625,65.9375)"/>
<path d="M0 0 C0.66 0 1.32 0 2 0 C2.33 0.66 2.66 1.32 3 2 C3.66 1.34 4.32 0.68 5 0 C5.99 0 6.98 0 8 0 C8 0.66 8 1.32 8 2 C7.195625 2.33 6.39125 2.66 5.5625 3 C2.7951968 4.72634103 2.7951968 4.72634103 2.4453125 7.41796875 C2.20957481 9.95036306 2.05247139 12.45752277 2 15 C1.34 15 0.68 15 0 15 C0 10.05 0 5.1 0 0 Z " fill="#333333" transform="translate(95,58)"/>
<path d="M0 0 C2.375 1.625 2.375 1.625 4 4 C4.25 7.25 4.25 7.25 4 10 C3.71125 9.401875 3.4225 8.80375 3.125 8.1875 C1.95257974 5.80672208 1.95257974 5.80672208 0 3 C-3.08365871 2.7497843 -3.08365871 2.7497843 -6 3 C-6.99 5.31 -7.98 7.62 -9 10 C-9.33 10 -9.66 10 -10 10 C-10.32152515 6.46322336 -10.4131192 4.6037896 -8.375 1.625 C-5.28813568 -0.48706506 -3.6717087 -0.61195145 0 0 Z " fill="#2D2D2D" transform="translate(170,58)"/>
<path d="M0 0 C2.33333333 0 4.66666667 0 7 0 C7 0.66 7 1.32 7 2 C6.03320312 2.32097656 6.03320312 2.32097656 5.046875 2.6484375 C2.72160885 3.8473523 2.72160885 3.8473523 2.390625 6.6015625 C2.34421875 7.59929687 2.2978125 8.59703125 2.25 9.625 C2.19328125 10.62789062 2.1365625 11.63078125 2.078125 12.6640625 C2.05234375 13.43492188 2.0265625 14.20578125 2 15 C1.34 15 0.68 15 0 15 C0 10.05 0 5.1 0 0 Z " fill="#363636" transform="translate(178,58)"/>
<path d="M0 0 C1.98 0 3.96 0 6 0 C6.625 2.375 6.625 2.375 7 5 C6.34 5.66 5.68 6.32 5 7 C2.525 6.01 2.525 6.01 0 5 C0 3.35 0 1.7 0 0 Z " fill="#564470" transform="translate(37,57)"/>
<path d="M0 0 C0.66 0 1.32 0 2 0 C2 1.32 2 2.64 2 4 C2.99 4 3.98 4 5 4 C5 2.68 5 1.36 5 0 C5.66 0 6.32 0 7 0 C7 1.65 7 3.3 7 5 C7.99 5.33 8.98 5.66 10 6 C1.42857143 6.28571429 1.42857143 6.28571429 -2 4 C-1.34 4 -0.68 4 0 4 C0 2.68 0 1.36 0 0 Z " fill="#B08E76" transform="translate(35,49)"/>
<path d="M0 0 C4.29 0.33 8.58 0.66 13 1 C13 1.33 13 1.66 13 2 C9.7 2 6.4 2 3 2 C2.67 4.31 2.34 6.62 2 9 C1.67 9 1.34 9 1 9 C0.67 6.03 0.34 3.06 0 0 Z " fill="#4D4453" transform="translate(32,54)"/>
<path d="M0 0 C-0.33 3.96 -0.66 7.92 -1 12 C-1.66 12 -2.32 12 -3 12 C-3 8.37 -3 4.74 -3 1 C-1 0 -1 0 0 0 Z " fill="#4D4753" transform="translate(41,65)"/>
<path d="M0 0 C-0.33 0.66 -0.66 1.32 -1 2 C-4.3 2 -7.6 2 -11 2 C-11 1.34 -11 0.68 -11 0 C-3.375 -1.125 -3.375 -1.125 0 0 Z " fill="#535353" transform="translate(156,64)"/>
<path d="M0 0 C0.99 0.66 1.98 1.32 3 2 C2.67 2.66 2.34 3.32 2 4 C-5.42857143 3 -5.42857143 3 -9 2 C-5.53001271 -0.31332486 -4.07490752 -0.33957563 0 0 Z " fill="#4A4A4A" transform="translate(70,52)"/>
<path d="M0 0 C0.33 0 0.66 0 1 0 C1 3.63 1 7.26 1 11 C2.32 11 3.64 11 5 11 C5 11.66 5 12.32 5 13 C3.35 13 1.7 13 0 13 C-1.36421031 10.27157939 -0.87807211 8.39046682 -0.5625 5.375 C-0.40974609 3.87066406 -0.40974609 3.87066406 -0.25390625 2.3359375 C-0.17011719 1.56507812 -0.08632812 0.79421875 0 0 Z " fill="#484848" transform="translate(190,60)"/>
<path d="M0 0 C3.125 -0.1875 3.125 -0.1875 6 0 C6 0.99 6 1.98 6 3 C3.36 3 0.72 3 -2 3 C-1.34 2.01 -0.68 1.02 0 0 Z " fill="#FBFBFB" transform="translate(83,61)"/>
<path d="M0 0 C1.125 1.75 1.125 1.75 2 4 C1.07451225 6.69933926 0.57626463 7.71186768 -2 9 C-3.67654729 8.72057545 -5.34608154 8.39171753 -7 8 C-7 7.67 -7 7.34 -7 7 C-5.02 6.34 -3.04 5.68 -1 5 C-0.67 3.35 -0.34 1.7 0 0 Z " fill="#575757" transform="translate(172,64)"/>
</svg>
