<?xml version="1.0" encoding="UTF-8"?>
<svg version="1.1" xmlns="http://www.w3.org/2000/svg" width="228" height="228">
<path d="M0 0 C2.5 0.125 2.5 0.125 3.5 1.125 C5.66480797 1.2239294 7.83293785 1.254711 10 1.25 C11.1859375 1.25257812 12.371875 1.25515625 13.59375 1.2578125 C16.39259422 1.45710219 16.39259422 1.45710219 17.5 0.125 C20 0 20 0 22.5 0.125 C22.83 0.455 23.16 0.785 23.5 1.125 C25.66480797 1.2239294 27.83293785 1.254711 30 1.25 C31.1859375 1.25257812 32.371875 1.25515625 33.59375 1.2578125 C36.39259422 1.45710219 36.39259422 1.45710219 37.5 0.125 C40 0 40 0 42.5 0.125 C42.83 0.455 43.16 0.785 43.5 1.125 C45.66480797 1.2239294 47.83293785 1.254711 50 1.25 C51.1859375 1.25257812 52.371875 1.25515625 53.59375 1.2578125 C56.39259422 1.45710219 56.39259422 1.45710219 57.5 0.125 C60 0 60 0 62.5 0.125 C62.83 0.455 63.16 0.785 63.5 1.125 C69.77 1.455 76.04 1.785 82.5 2.125 C82.5 22.915 82.5 43.705 82.5 65.125 C53.74579959 66.27516802 53.74579959 66.27516802 39.43725586 66.25439453 C37.79765281 66.25575729 36.15805007 66.25754203 34.51844788 66.25970459 C30.15481175 66.26417486 25.79119986 66.26253347 21.42756343 66.2593255 C16.80510705 66.25674735 12.1826524 66.25915427 7.56019592 66.26071167 C-0.19302737 66.26251757 -7.94624106 66.26016876 -15.69946289 66.25537109 C-24.59440985 66.24992963 -33.48933386 66.25169674 -42.38428026 66.2571975 C-50.09719951 66.26177176 -57.81011196 66.26235835 -65.52303213 66.25975883 C-70.09645966 66.2582198 -74.6698765 66.2579356 -79.2433033 66.26129532 C-83.54704776 66.26423764 -87.85076336 66.262085 -92.15450478 66.25640106 C-93.71023766 66.25510693 -95.26597308 66.25540835 -96.82170486 66.25766373 C-110.08467916 66.27508123 -123.22434561 65.67815227 -136.5 65.125 C-136.5 44.335 -136.5 23.545 -136.5 2.125 C-126.91066406 2.06441406 -117.32132813 2.00382812 -107.44140625 1.94140625 C-101.38476126 1.90093563 -95.32811968 1.86021548 -89.27148438 1.81835938 C-79.64739609 1.75189621 -70.0233085 1.68648393 -60.39916992 1.62768555 C-53.39124256 1.58486615 -46.38334811 1.53859392 -39.37547153 1.48812145 C-35.66258741 1.46150235 -31.9497099 1.43664892 -28.2367878 1.41592598 C-24.09864563 1.39276522 -19.96059627 1.36189796 -15.82250977 1.33032227 C-14.58245682 1.3245668 -13.34240387 1.31881134 -12.06477356 1.31288147 C-10.94431641 1.30309265 -9.82385925 1.29330383 -8.66944885 1.28321838 C-7.19964994 1.27353956 -7.19964994 1.27353956 -5.70015812 1.2636652 C-2.9829787 1.09241468 -2.81867789 0.14093389 0 0 Z " fill="#F9F9F9" transform="translate(142.5,81.875)"/>
<path d="M0 0 C27.06 0 54.12 0 82 0 C82 0.66 82 1.32 82 2 C82.99 2 83.98 2 85 2 C85 2.66 85 3.32 85 4 C84.01 4 83.02 4 82 4 C82 5.65 82 7.3 82 9 C82.99 9.33 83.98 9.66 85 10 C84.01 10 83.02 10 82 10 C82 11.65 82 13.3 82 15 C82.99 15.33 83.98 15.66 85 16 C84.01 16 83.02 16 82 16 C82 17.65 82 19.3 82 21 C83.485 21.495 83.485 21.495 85 22 C84.01 22 83.02 22 82 22 C82 23.65 82 25.3 82 27 C83.485 27.495 83.485 27.495 85 28 C84.01 28 83.02 28 82 28 C82 29.65 82 31.3 82 33 C83.485 33.495 83.485 33.495 85 34 C84.01 34 83.02 34 82 34 C82 35.65 82 37.3 82 39 C83.485 39.495 83.485 39.495 85 40 C84.01 40 83.02 40 82 40 C82 41.65 82 43.3 82 45 C83.485 45.495 83.485 45.495 85 46 C84.01 46 83.02 46 82 46 C82 47.65 82 49.3 82 51 C83.485 51.495 83.485 51.495 85 52 C84.01 52 83.02 52 82 52 C82 53.65 82 55.3 82 57 C79.4374282 57.02710123 76.87514635 57.04688771 74.3125 57.0625 C73.59126953 57.07087891 72.87003906 57.07925781 72.12695312 57.08789062 C68.26624636 57.10551942 64.76732521 56.79956615 61 56 C60.67 56.33 60.34 56.66 60 57 C57.75183935 57.10004903 55.50038093 57.12966884 53.25 57.125 C51.40148438 57.12886719 51.40148438 57.12886719 49.515625 57.1328125 C46.52894924 57.01998253 43.91111651 56.59300521 41 56 C40.67 56.33 40.34 56.66 40 57 C37.75183935 57.10004903 35.50038093 57.12966884 33.25 57.125 C31.40148438 57.12886719 31.40148438 57.12886719 29.515625 57.1328125 C26.52894924 57.01998253 23.91111651 56.59300521 21 56 C20.67 56.33 20.34 56.66 20 57 C13.4 57 6.8 57 0 57 C0 38.19 0 19.38 0 0 Z " fill="#FDFDFD" transform="translate(9,87)"/>
<path d="M0 0 C2.5 0.125 2.5 0.125 3.5 1.125 C5.66480797 1.2239294 7.83293785 1.254711 10 1.25 C11.1859375 1.25257812 12.371875 1.25515625 13.59375 1.2578125 C16.39259422 1.45710219 16.39259422 1.45710219 17.5 0.125 C20 0 20 0 22.5 0.125 C22.83 0.455 23.16 0.785 23.5 1.125 C25.66480797 1.2239294 27.83293785 1.254711 30 1.25 C31.1859375 1.25257812 32.371875 1.25515625 33.59375 1.2578125 C36.39259422 1.45710219 36.39259422 1.45710219 37.5 0.125 C40 0 40 0 42.5 0.125 C42.83 0.455 43.16 0.785 43.5 1.125 C45.66480797 1.2239294 47.83293785 1.254711 50 1.25 C51.1859375 1.25257812 52.371875 1.25515625 53.59375 1.2578125 C56.39259422 1.45710219 56.39259422 1.45710219 57.5 0.125 C60 0 60 0 62.5 0.125 C62.83 0.455 63.16 0.785 63.5 1.125 C69.77 1.455 76.04 1.785 82.5 2.125 C82.5 22.915 82.5 43.705 82.5 65.125 C53.74579959 66.27516802 53.74579959 66.27516802 39.43725586 66.25439453 C37.79765281 66.25575729 36.15805007 66.25754203 34.51844788 66.25970459 C30.15481175 66.26417486 25.79119986 66.26253347 21.42756343 66.2593255 C16.80510705 66.25674735 12.1826524 66.25915427 7.56019592 66.26071167 C-0.19302737 66.26251757 -7.94624106 66.26016876 -15.69946289 66.25537109 C-24.59440985 66.24992963 -33.48933386 66.25169674 -42.38428026 66.2571975 C-50.09719951 66.26177176 -57.81011196 66.26235835 -65.52303213 66.25975883 C-70.09645966 66.2582198 -74.6698765 66.2579356 -79.2433033 66.26129532 C-83.54704776 66.26423764 -87.85076336 66.262085 -92.15450478 66.25640106 C-93.71023766 66.25510693 -95.26597308 66.25540835 -96.82170486 66.25766373 C-110.08467916 66.27508123 -123.22434561 65.67815227 -136.5 65.125 C-136.5 44.335 -136.5 23.545 -136.5 2.125 C-126.91066406 2.06441406 -117.32132813 2.00382812 -107.44140625 1.94140625 C-101.38476126 1.90093563 -95.32811968 1.86021548 -89.27148438 1.81835938 C-79.64739609 1.75189621 -70.0233085 1.68648393 -60.39916992 1.62768555 C-53.39124256 1.58486615 -46.38334811 1.53859392 -39.37547153 1.48812145 C-35.66258741 1.46150235 -31.9497099 1.43664892 -28.2367878 1.41592598 C-24.09864563 1.39276522 -19.96059627 1.36189796 -15.82250977 1.33032227 C-14.58245682 1.3245668 -13.34240387 1.31881134 -12.06477356 1.31288147 C-10.94431641 1.30309265 -9.82385925 1.29330383 -8.66944885 1.28321838 C-7.19964994 1.27353956 -7.19964994 1.27353956 -5.70015812 1.2636652 C-2.9829787 1.09241468 -2.81867789 0.14093389 0 0 Z M-133.5 5.125 C-133.5 23.935 -133.5 42.745 -133.5 62.125 C-120.91902144 62.44280402 -120.91902144 62.44280402 -108.5 61.125 C-108.005 61.62 -108.005 61.62 -107.5 62.125 C-105.25183935 62.22504903 -103.00038093 62.25466884 -100.75 62.25 C-99.51765625 62.25257813 -98.2853125 62.25515625 -97.015625 62.2578125 C-94.02894924 62.14498253 -91.41111651 61.71800521 -88.5 61.125 C-88.17 61.455 -87.84 61.785 -87.5 62.125 C-85.25183935 62.22504903 -83.00038093 62.25466884 -80.75 62.25 C-79.51765625 62.25257813 -78.2853125 62.25515625 -77.015625 62.2578125 C-74.02894924 62.14498253 -71.41111651 61.71800521 -68.5 61.125 C-68.17 61.455 -67.84 61.785 -67.5 62.125 C-64.80345146 62.19819621 -62.13308542 62.21742537 -59.4375 62.1875 C-58.67888672 62.18298828 -57.92027344 62.17847656 -57.13867188 62.17382812 C-55.25908129 62.1620068 -53.37953101 62.14407078 -51.5 62.125 C-51.5 60.475 -51.5 58.825 -51.5 57.125 C-50.51 57.125 -49.52 57.125 -48.5 57.125 C-48.5 58.775 -48.5 60.425 -48.5 62.125 C-44.43751511 62.15409769 -40.37505714 62.17183174 -36.3125 62.1875 C-35.16201172 62.19587891 -34.01152344 62.20425781 -32.82617188 62.21289062 C-31.71435547 62.21611328 -30.60253906 62.21933594 -29.45703125 62.22265625 C-27.92526245 62.23051147 -27.92526245 62.23051147 -26.36254883 62.23852539 C-23.49056092 62.20076821 -23.49056092 62.20076821 -20.69018555 61.55639648 C-19.96742432 61.41403564 -19.24466309 61.2716748 -18.5 61.125 C-18.17 61.455 -17.84 61.785 -17.5 62.125 C-15.25183935 62.22504903 -13.00038093 62.25466884 -10.75 62.25 C-9.51765625 62.25257813 -8.2853125 62.25515625 -7.015625 62.2578125 C-4.02894924 62.14498253 -1.41111651 61.71800521 1.5 61.125 C1.83 61.455 2.16 61.785 2.5 62.125 C4.74816065 62.22504903 6.99961907 62.25466884 9.25 62.25 C10.48234375 62.25257813 11.7146875 62.25515625 12.984375 62.2578125 C15.97105076 62.14498253 18.58888349 61.71800521 21.5 61.125 C21.83 61.455 22.16 61.785 22.5 62.125 C24.74816065 62.22504903 26.99961907 62.25466884 29.25 62.25 C30.48234375 62.25257813 31.7146875 62.25515625 32.984375 62.2578125 C35.97105076 62.14498253 38.58888349 61.71800521 41.5 61.125 C41.83 61.455 42.16 61.785 42.5 62.125 C44.74816065 62.22504903 46.99961907 62.25466884 49.25 62.25 C50.48234375 62.25257813 51.7146875 62.25515625 52.984375 62.2578125 C55.97105076 62.14498253 58.58888349 61.71800521 61.5 61.125 C61.83 61.455 62.16 61.785 62.5 62.125 C67.78 62.125 73.06 62.125 78.5 62.125 C78.5 43.315 78.5 24.505 78.5 5.125 C36.59 5.125 -5.32 5.125 -48.5 5.125 C-48.5 5.785 -48.5 6.445 -48.5 7.125 C-49.49 7.125 -50.48 7.125 -51.5 7.125 C-51.5 6.465 -51.5 5.805 -51.5 5.125 C-78.56 5.125 -105.62 5.125 -133.5 5.125 Z " fill="#020902" transform="translate(142.5,81.875)"/>
<path d="M0 0 C43.89 0 87.78 0 133 0 C133 0.99 133 1.98 133 3 C118.15 3 103.3 3 88 3 C88 3.66 88 4.32 88 5 C87.01 5 86.02 5 85 5 C85 4.34 85 3.68 85 3 C57.94 3 30.88 3 3 3 C3 21.81 3 40.62 3 60 C9.6 60 16.2 60 23 60 C23 60.99 23 61.98 23 63 C15.41 63 7.82 63 0 63 C0 42.21 0 21.42 0 0 Z " fill="#000000" transform="translate(6,84)"/>
<path d="M0 0 C2.5 0.125 2.5 0.125 3.5 1.125 C5.66480797 1.2239294 7.83293785 1.254711 10 1.25 C11.1859375 1.25257812 12.371875 1.25515625 13.59375 1.2578125 C16.39259422 1.45710219 16.39259422 1.45710219 17.5 0.125 C20 0 20 0 22.5 0.125 C22.83 0.455 23.16 0.785 23.5 1.125 C25.66480797 1.2239294 27.83293785 1.254711 30 1.25 C31.1859375 1.25257812 32.371875 1.25515625 33.59375 1.2578125 C36.39259422 1.45710219 36.39259422 1.45710219 37.5 0.125 C40 0 40 0 42.5 0.125 C42.995 0.62 42.995 0.62 43.5 1.125 C45.66480797 1.2239294 47.83293785 1.254711 50 1.25 C51.1859375 1.25257812 52.371875 1.25515625 53.59375 1.2578125 C56.39259422 1.45710219 56.39259422 1.45710219 57.5 0.125 C60 0 60 0 62.5 0.125 C62.995 0.62 62.995 0.62 63.5 1.125 C69.77 1.455 76.04 1.785 82.5 2.125 C82.5 22.915 82.5 43.705 82.5 65.125 C72.105 65.62 72.105 65.62 61.5 66.125 C61.5 64.805 61.5 63.485 61.5 62.125 C67.11 62.125 72.72 62.125 78.5 62.125 C78.5 43.315 78.5 24.505 78.5 5.125 C68.105 5.62 68.105 5.62 57.5 6.125 C52.43556362 6.19785268 47.38718461 6.24435936 42.32421875 6.22265625 C40.37114555 6.22053383 40.37114555 6.22053383 38.37861633 6.21836853 C35.00049737 6.21464133 31.62242493 6.2049016 28.24432373 6.19366455 C24.76380034 6.183233 21.28326906 6.17882553 17.80273438 6.17382812 C11.03513774 6.16326492 4.26757113 6.14631496 -2.5 6.125 C-2.88218767 4.46885343 -3.21395102 2.80042976 -3.5 1.125 C-2.5 0.125 -2.5 0.125 0 0 Z " fill="#080908" transform="translate(142.5,81.875)"/>
<path d="M0 0 C2.5 0.125 2.5 0.125 3.5 1.125 C5.66480797 1.2239294 7.83293785 1.254711 10 1.25 C11.1859375 1.25257812 12.371875 1.25515625 13.59375 1.2578125 C16.39259422 1.45710219 16.39259422 1.45710219 17.5 0.125 C20 0 20 0 22.5 0.125 C22.83 0.455 23.16 0.785 23.5 1.125 C25.66480797 1.2239294 27.83293785 1.254711 30 1.25 C31.1859375 1.25257812 32.371875 1.25515625 33.59375 1.2578125 C36.39259422 1.45710219 36.39259422 1.45710219 37.5 0.125 C40 0 40 0 42.5 0.125 C42.995 0.62 42.995 0.62 43.5 1.125 C45.66480797 1.2239294 47.83293785 1.254711 50 1.25 C51.1859375 1.25257812 52.371875 1.25515625 53.59375 1.2578125 C56.39259422 1.45710219 56.39259422 1.45710219 57.5 0.125 C59.16617115 0.08436168 60.83388095 0.082279 62.5 0.125 C62.5 1.775 62.5 3.425 62.5 5.125 C58.74361695 5.99824991 55.27743868 6.24663671 51.42456055 6.23852539 C50.22369308 6.23844986 49.02282562 6.23837433 47.78556824 6.23829651 C46.49894791 6.23313522 45.21232758 6.22797394 43.88671875 6.22265625 C42.54865064 6.22078956 41.21058185 6.21936684 39.87251282 6.21836853 C36.3626413 6.21456314 32.85281161 6.20474988 29.34295654 6.19366455 C25.75663824 6.18340777 22.17031314 6.17886179 18.58398438 6.17382812 C11.55597247 6.16312572 4.52798825 6.14607321 -2.5 6.125 C-2.88218767 4.46885343 -3.21395102 2.80042976 -3.5 1.125 C-2.5 0.125 -2.5 0.125 0 0 Z " fill="#000200" transform="translate(142.5,81.875)"/>
<path d="M0 0 C2.5 0.125 2.5 0.125 3.5 1.125 C5.66480797 1.2239294 7.83293785 1.254711 10 1.25 C11.1859375 1.25257812 12.371875 1.25515625 13.59375 1.2578125 C16.39259422 1.45710219 16.39259422 1.45710219 17.5 0.125 C19.16617115 0.08436168 20.83388095 0.082279 22.5 0.125 C22.5 1.775 22.5 3.425 22.5 5.125 C19.14908229 5.87863052 16.06890188 6.24479937 12.63671875 6.22265625 C11.30737305 6.21782227 11.30737305 6.21782227 9.95117188 6.21289062 C9.03916016 6.20451172 8.12714844 6.19613281 7.1875 6.1875 C6.25615234 6.18298828 5.32480469 6.17847656 4.36523438 6.17382812 C2.07675627 6.16209234 -0.21158808 6.14567363 -2.5 6.125 C-2.88218767 4.46885343 -3.21395102 2.80042976 -3.5 1.125 C-2.5 0.125 -2.5 0.125 0 0 Z " fill="#000200" transform="translate(142.5,81.875)"/>
<path d="M0 0 C0.70125 0.14179688 1.4025 0.28359375 2.125 0.4296875 C5.47297933 1.0938247 8.58800272 1.13235344 12 1.125 C13.19625 1.12757813 14.3925 1.13015625 15.625 1.1328125 C18.55327693 1.01757938 21.15786976 0.67823563 24 0 C25 2 25 2 24 6 C16.08 6 8.16 6 0 6 C-0.33 4.35 -0.66 2.7 -1 1 C-0.67 0.67 -0.34 0.34 0 0 Z " fill="#000900" transform="translate(30,142)"/>
<path d="M0 0 C4.95 0 9.9 0 15 0 C15.33 1.32 15.66 2.64 16 4 C10.72 4 5.44 4 0 4 C0 2.68 0 1.36 0 0 Z " fill="#B0B0B0" transform="translate(24,129)"/>
<path d="M0 0 C4.95 0 9.9 0 15 0 C15 0.99 15 1.98 15 3 C10.05 3.33 5.1 3.66 0 4 C0 2.68 0 1.36 0 0 Z " fill="#000900" transform="translate(54,144)"/>
<path d="M0 0 C0.99 -0.33 1.98 -0.66 3 -1 C3.99 -0.01 4.98 0.98 6 2 C2.47320901 4.35119399 0.97120515 4.21443452 -3.1875 4.125 C-4.27417969 4.10695313 -5.36085938 4.08890625 -6.48046875 4.0703125 C-7.72763672 4.03550781 -7.72763672 4.03550781 -9 4 C-8.1875 2.0625 -8.1875 2.0625 -7 0 C-3.75370153 -1.08209949 -3.12563502 -0.78140875 0 0 Z " fill="#B0B0B0" transform="translate(124,114)"/>
<path d="M0 0 C1.79158489 -0.02696365 3.58328473 -0.04637917 5.375 -0.0625 C6.37273437 -0.07410156 7.37046875 -0.08570313 8.3984375 -0.09765625 C11 0 11 0 13 1 C12.67 1.99 12.34 2.98 12 4 C7.38 4 2.76 4 -2 4 C-1.01 3.67 -0.02 3.34 1 3 C0.67 2.01 0.34 1.02 0 0 Z " fill="#BEBEBE" transform="translate(67,129)"/>
<path d="M0 0 C0.86625 0.2784375 0.86625 0.2784375 1.75 0.5625 C4.23698179 1.04607979 5.58585878 0.62300419 8 0 C8.99 0.33 9.98 0.66 11 1 C11 1.99 11 2.98 11 4 C6.71 4 2.42 4 -2 4 C-1.34 3.67 -0.68 3.34 0 3 C0 2.01 0 1.02 0 0 Z " fill="#B7B7B7" transform="translate(138,93)"/>
<path d="M0 0 C2.125 0.375 2.125 0.375 4 1 C4 2.65 4 4.3 4 6 C2.35 6.33 0.7 6.66 -1 7 C-1.625 4.625 -1.625 4.625 -2 2 C-1.34 1.34 -0.68 0.68 0 0 Z " fill="#B5B5B5" transform="translate(201,112)"/>
<path d="M0 0 C2.125 0.375 2.125 0.375 4 1 C4 2.65 4 4.3 4 6 C2.35 6.33 0.7 6.66 -1 7 C-1.625 4.625 -1.625 4.625 -2 2 C-1.34 1.34 -0.68 0.68 0 0 Z " fill="#B5B5B5" transform="translate(181,112)"/>
<path d="M0 0 C2.125 0.375 2.125 0.375 4 1 C4 2.65 4 4.3 4 6 C2.35 6.33 0.7 6.66 -1 7 C-1.625 4.625 -1.625 4.625 -2 2 C-1.34 1.34 -0.68 0.68 0 0 Z " fill="#B5B5B5" transform="translate(161,112)"/>
<path d="M0 0 C2.125 0.375 2.125 0.375 4 1 C4 2.65 4 4.3 4 6 C2.35 6.33 0.7 6.66 -1 7 C-1.625 4.625 -1.625 4.625 -2 2 C-1.34 1.34 -0.68 0.68 0 0 Z " fill="#B5B5B5" transform="translate(141,112)"/>
<path d="M0 0 C1.2065625 0.0309375 1.2065625 0.0309375 2.4375 0.0625 C2.4375 1.7125 2.4375 3.3625 2.4375 5.0625 C0.7875 5.3925 -0.8625 5.7225 -2.5625 6.0625 C-2.94468767 4.40635343 -3.27645102 2.73792976 -3.5625 1.0625 C-2.5625 0.0625 -2.5625 0.0625 0 0 Z " fill="#087908" transform="translate(202.5625,81.9375)"/>
<path d="M0 0 C1.2065625 0.0309375 1.2065625 0.0309375 2.4375 0.0625 C2.4375 1.7125 2.4375 3.3625 2.4375 5.0625 C0.7875 5.3925 -0.8625 5.7225 -2.5625 6.0625 C-2.94468767 4.40635343 -3.27645102 2.73792976 -3.5625 1.0625 C-2.5625 0.0625 -2.5625 0.0625 0 0 Z " fill="#087908" transform="translate(182.5625,81.9375)"/>
<path d="M0 0 C1.2065625 0.0309375 1.2065625 0.0309375 2.4375 0.0625 C2.4375 1.7125 2.4375 3.3625 2.4375 5.0625 C0.7875 5.3925 -0.8625 5.7225 -2.5625 6.0625 C-2.94468767 4.40635343 -3.27645102 2.73792976 -3.5625 1.0625 C-2.5625 0.0625 -2.5625 0.0625 0 0 Z " fill="#087908" transform="translate(162.5625,81.9375)"/>
<path d="M0 0 C1.2065625 0.0309375 1.2065625 0.0309375 2.4375 0.0625 C2.4375 1.7125 2.4375 3.3625 2.4375 5.0625 C0.7875 5.3925 -0.8625 5.7225 -2.5625 6.0625 C-2.94468767 4.40635343 -3.27645102 2.73792976 -3.5625 1.0625 C-2.5625 0.0625 -2.5625 0.0625 0 0 Z " fill="#087908" transform="translate(142.5625,81.9375)"/>
<path d="M0 0 C1.65 0.33 3.3 0.66 5 1 C4.67 2.65 4.34 4.3 4 6 C2.35 5.67 0.7 5.34 -1 5 C-0.67 3.35 -0.34 1.7 0 0 Z " fill="#118311" transform="translate(200,142)"/>
<path d="M0 0 C1.65 0.33 3.3 0.66 5 1 C4.67 2.65 4.34 4.3 4 6 C2.35 5.67 0.7 5.34 -1 5 C-0.67 3.35 -0.34 1.7 0 0 Z " fill="#118311" transform="translate(180,142)"/>
<path d="M0 0 C1.65 0.33 3.3 0.66 5 1 C4.67 2.65 4.34 4.3 4 6 C2.35 5.67 0.7 5.34 -1 5 C-0.67 3.35 -0.34 1.7 0 0 Z " fill="#118311" transform="translate(160,142)"/>
<path d="M0 0 C1.65 0.33 3.3 0.66 5 1 C4.67 2.65 4.34 4.3 4 6 C2.35 5.67 0.7 5.34 -1 5 C-0.67 3.35 -0.34 1.7 0 0 Z " fill="#118311" transform="translate(140,142)"/>
<path d="M0 0 C1.65 0.33 3.3 0.66 5 1 C4.67 2.65 4.34 4.3 4 6 C2.35 5.67 0.7 5.34 -1 5 C-0.67 3.35 -0.34 1.7 0 0 Z " fill="#118311" transform="translate(120,142)"/>
<path d="M0 0 C1.65 0.33 3.3 0.66 5 1 C4.67 2.65 4.34 4.3 4 6 C2.35 5.67 0.7 5.34 -1 5 C-0.67 3.35 -0.34 1.7 0 0 Z " fill="#118311" transform="translate(70,142)"/>
<path d="M0 0 C1.65 0.33 3.3 0.66 5 1 C4.67 2.65 4.34 4.3 4 6 C2.35 5.67 0.7 5.34 -1 5 C-0.67 3.35 -0.34 1.7 0 0 Z " fill="#118311" transform="translate(50,142)"/>
<path d="M0 0 C1.65 0.33 3.3 0.66 5 1 C4.67 2.65 4.34 4.3 4 6 C2.35 5.67 0.7 5.34 -1 5 C-0.67 3.35 -0.34 1.7 0 0 Z " fill="#118311" transform="translate(30,142)"/>
<path d="M0 0 C0.99 0 1.98 0 3 0 C2.67 0.99 2.34 1.98 2 3 C-1.63 3 -5.26 3 -9 3 C-8.34 2.67 -7.68 2.34 -7 2 C-7 1.34 -7 0.68 -7 0 C-2.25 -1.125 -2.25 -1.125 0 0 Z " fill="#B1B1B1" transform="translate(186,94)"/>
<path d="M0 0 C2.31 0.33 4.62 0.66 7 1 C7 1.99 7 2.98 7 4 C7.66 4.33 8.32 4.66 9 5 C8.360625 4.814375 7.72125 4.62875 7.0625 4.4375 C6.0415625 4.2209375 6.0415625 4.2209375 5 4 C4.67 4.33 4.34 4.66 4 5 C2.33382885 5.04063832 0.66611905 5.042721 -1 5 C-0.67 3.35 -0.34 1.7 0 0 Z " fill="#C0C0C0" transform="translate(48,128)"/>
<path d="M0 0 C0.33 0.99 0.66 1.98 1 3 C1.66 3 2.32 3 3 3 C2.67 2.01 2.34 1.02 2 0 C2.598125 0.185625 3.19625 0.37125 3.8125 0.5625 C6.16408762 1.22093687 6.16408762 1.22093687 9 0 C9 1.32 9 2.64 9 4 C6.03 4 3.06 4 0 4 C0 2.68 0 1.36 0 0 Z " fill="#B5B5B5" transform="translate(196,93)"/>
<path d="M0 0 C2.64 0 5.28 0 8 0 C8.33 1.32 8.66 2.64 9 4 C7.35 4 5.7 4 4 4 C4 3.34 4 2.68 4 2 C3.34 2 2.68 2 2 2 C2 2.66 2 3.32 2 4 C1.34 4 0.68 4 0 4 C0 2.68 0 1.36 0 0 Z " fill="#BDBDBD" transform="translate(138,133)"/>
<path d="M0 0 C1.98 0.66 3.96 1.32 6 2 C6 1.34 6 0.68 6 0 C6.66 0 7.32 0 8 0 C8 1.32 8 2.64 8 4 C5.36 4 2.72 4 0 4 C0 2.68 0 1.36 0 0 Z " fill="#BCBCBC" transform="translate(178,133)"/>
<path d="M0 0 C2.475 0.99 2.475 0.99 5 2 C3.75 3.5625 3.75 3.5625 2 5 C-0.1875 4.6875 -0.1875 4.6875 -2 4 C-1.34 2.68 -0.68 1.36 0 0 Z " fill="#BDBDBD" transform="translate(125,113)"/>
<path d="M0 0 C2.31 0.33 4.62 0.66 7 1 C7.33 1.99 7.66 2.98 8 4 C7.34 4 6.68 4 6 4 C6 3.34 6 2.68 6 2 C5.01 2 4.02 2 3 2 C3 2.66 3 3.32 3 4 C2.01 4 1.02 4 0 4 C0 2.68 0 1.36 0 0 Z " fill="#B8B8B8" transform="translate(158,133)"/>
</svg>
