<?xml version="1.0" encoding="UTF-8"?>
<svg version="1.1" xmlns="http://www.w3.org/2000/svg" width="297" height="295">
<path d="M0 0 C91.08 0 182.16 0 276 0 C276.33 39.6 276.66 79.2 277 120 C278.98 121.65 280.96 123.3 283 125 C285.8565269 129.79159351 286.42956032 133.46199092 285.57421875 138.8515625 C284.68231269 142.18862598 283.26704599 144.41808651 281 147 C279.35656515 147.72204164 277.69111099 148.39803169 276 149 C275.99091542 156.88420711 276.02817329 164.76721939 276.09765625 172.65112305 C276.11916522 175.33325163 276.12592938 178.01481626 276.12011719 180.69702148 C276.11726275 184.55265936 276.15255588 188.40635025 276.1953125 192.26171875 C276.1816716 194.06040657 276.1816716 194.06040657 276.16775513 195.89543152 C276.06958676 201.67764105 276.06958676 201.67764105 278.32098389 206.78408813 C280.10286594 208.29099758 280.10286594 208.29099758 283 210 C285.8565269 214.79159351 286.42956032 218.46199092 285.57421875 223.8515625 C284.68231269 227.18862598 283.26704599 229.41808651 281 232 C279.35 232.66 277.7 233.32 276 234 C276 247.86 276 261.72 276 276 C185.25 276 94.5 276 1 276 C1 262.14 1 248.28 1 234 C-0.32 233.34 -1.64 232.68 -3 232 C-6.3195809 228.30103843 -7.86414293 225.76614196 -8.25 220.75 C-7.89572401 215.43586017 -6.38057727 211.63159132 -2.9375 207.5625 C-1 206 -1 206 1 206 C1 187.19 1 168.38 1 149 C-0.32 148.34 -1.64 147.68 -3 147 C-6.3195809 143.30103843 -7.86414293 140.76614196 -8.25 135.75 C-7.89572401 130.43586017 -6.38057727 126.63159132 -2.9375 122.5625 C-1 121 -1 121 1 121 C1 105.16 1 89.32 1 73 C-0.32 72.34 -1.64 71.68 -3 71 C-6.29342789 67.33018035 -7.82634881 64.77124213 -8.3125 59.8125 C-7.93592607 55.21829802 -6.65447126 51.76869376 -4 48 C-3.32646484 47.6589624 -2.65292969 47.3179248 -1.95898438 46.96655273 C1.23157196 43.76366997 0.6033152 40.08516794 0.609375 35.73828125 C0.62591125 34.83248825 0.64244751 33.92669525 0.65948486 32.99345398 C0.7080787 30.09973448 0.72936085 27.20654087 0.75 24.3125 C0.77815019 22.35088484 0.80807627 20.38929429 0.83984375 18.42773438 C0.91384065 13.61853287 0.96334561 8.80962526 1 4 C0.34 4 -0.32 4 -1 4 C-0.67 2.68 -0.34 1.36 0 0 Z M15 14 C15 24.23 15 34.46 15 45 C16.98 46.65 18.96 48.3 21 50 C23.60400746 54.26110311 23.68190373 59.14351493 23 64 C21.69434281 67.49969969 20.06149997 70.29423764 16.88775635 72.40437317 C14.81032008 73.83454019 14.81032008 73.83454019 14.51898193 76.14506531 C14.52786438 76.97335342 14.53674683 77.80164154 14.54589844 78.6550293 C14.54620056 79.59577805 14.54650269 80.53652679 14.54681396 81.50578308 C14.56745911 82.51836685 14.58810425 83.53095062 14.609375 84.57421875 C14.61503479 85.61318802 14.62069458 86.65215729 14.62652588 87.72261047 C14.64893673 91.04470681 14.6991431 94.36572904 14.75 97.6875 C14.77005885 99.93813548 14.78831069 102.18878784 14.8046875 104.43945312 C14.8488168 109.9600026 14.91577579 115.47992457 15 121 C15.79921875 121.2784375 16.5984375 121.556875 17.421875 121.84375 C20 123 20 123 21.25 125.5 C21.4975 126.325 21.745 127.15 22 128 C22.33 128.66 22.66 129.32 23 130 C23.59106487 135.68331608 23.27243416 140.14777003 20 145 C19.14932449 145.59814514 18.29864899 146.19629028 17.42219543 146.81256104 C14.78507057 148.77257014 14.78507057 148.77257014 14.39872742 151.6449585 C14.40983047 152.64867493 14.42093353 153.65239136 14.43237305 154.68652344 C14.4327507 155.82740417 14.43312836 156.96828491 14.43351746 158.14373779 C14.4722271 159.98297821 14.4722271 159.98297821 14.51171875 161.859375 C14.51879349 163.11888977 14.52586823 164.37840454 14.53315735 165.67608643 C14.55640124 169.01735356 14.60128188 172.35690324 14.65667725 175.69769287 C14.70791791 179.10950916 14.73068144 182.5215032 14.75585938 185.93359375 C14.8110056 192.62286982 14.89469265 199.31133577 15 206 C15.79921875 206.2784375 16.5984375 206.556875 17.421875 206.84375 C20 208 20 208 21.25 210.5 C21.4975 211.325 21.745 212.15 22 213 C22.33 213.66 22.66 214.32 23 215 C23.59106487 220.68331608 23.27243416 225.14777003 20 230 C17.525 231.98 17.525 231.98 15 234 C15 243.24 15 252.48 15 262 C96.84 262 178.68 262 263 262 C263 252.76 263 243.52 263 234 C261.35 233.34 259.7 232.68 258 232 C256.75 229.5 256.75 229.5 256 227 C255.67 226.34 255.34 225.68 255 225 C254.2341498 218.13245802 254.89634989 213.58552376 259 208 C260.04556061 207.33232857 260.04556061 207.33232857 261.11224365 206.65116882 C263.23836061 205.13246843 263.23836061 205.13246843 263.48101807 202.51325989 C263.47213562 201.52508774 263.46325317 200.53691559 263.45410156 199.51879883 C263.45379944 198.39786331 263.45349731 197.2769278 263.45318604 196.12202454 C263.43254089 194.91257675 263.41189575 193.70312897 263.390625 192.45703125 C263.38213531 190.59893074 263.38213531 190.59893074 263.37347412 188.70329285 C263.35486224 185.41335722 263.31893668 182.12420519 263.2746582 178.83453369 C263.23370629 175.47637521 263.2154634 172.11810195 263.1953125 168.75976562 C263.15116388 162.17286987 263.08418959 155.58649904 263 149 C261.80117188 148.56494141 261.80117188 148.56494141 260.578125 148.12109375 C258 147 258 147 256.75 145.0625 C254.87490491 139.9059885 254.47604599 135.46658685 255 130 C256.5 127 256.5 127 258 125 C258 124.34 258 123.68 258 123 C260.475 122.01 260.475 122.01 263 121 C263 85.69 263 50.38 263 14 C181.16 14 99.32 14 15 14 Z " fill="#010101" transform="translate(9,8)"/>
<path d="M0 0 C4.62 0 9.24 0 14 0 C14 9.24 14 18.48 14 28 C95.84 28 177.68 28 262 28 C262 18.76 262 9.52 262 0 C266.29 0 270.58 0 275 0 C275 13.86 275 27.72 275 42 C184.25 42 93.5 42 0 42 C0 28.14 0 14.28 0 0 Z " fill="#000101" transform="translate(10,242)"/>
<path d="M0 0 C4.3295696 4.55744169 5.40553225 8.45035207 5.35546875 14.578125 C4.75132935 18.69423956 2.66717915 21.86700365 0 25 C-0.99 25.66 -1.98 26.32 -3 27 C-3.47517866 29.09247425 -3.47517866 29.09247425 -3.43237305 31.54150391 C-3.45216721 32.48232819 -3.47196136 33.42315247 -3.49235535 34.39248657 C-3.50194023 35.91910416 -3.50194023 35.91910416 -3.51171875 37.4765625 C-3.52966995 38.51694672 -3.54762115 39.55733093 -3.56611633 40.62924194 C-3.62041682 43.96111971 -3.65417853 47.29285266 -3.6875 50.625 C-3.72065561 52.88022858 -3.75514361 55.13543799 -3.79101562 57.390625 C-3.87615434 62.92695346 -3.94442022 68.46330021 -4 74 C-3.22269531 74.26683594 -2.44539063 74.53367187 -1.64453125 74.80859375 C1.48670949 76.21927089 2.71838461 77.90325045 4.2734375 80.9375 C6.02355537 85.90557652 5.56393491 90.42691841 3.8125 95.3125 C2 98 2 98 -0.57206726 99.81256104 C-3.20898717 101.77414142 -3.20898717 101.77414142 -3.63923645 104.6449585 C-3.64589828 105.64867493 -3.65256012 106.65239136 -3.65942383 107.68652344 C-3.67906693 108.82740417 -3.69871002 109.96828491 -3.71894836 111.14373779 C-3.71304939 112.98297821 -3.71304939 112.98297821 -3.70703125 114.859375 C-3.72215256 116.11888977 -3.73727386 117.37840454 -3.75285339 118.67608643 C-3.78855092 122.01702314 -3.80289202 125.35666424 -3.80688477 128.69769287 C-3.81622057 132.10982782 -3.85363663 135.52164302 -3.88867188 138.93359375 C-3.95165096 145.62240283 -3.98648352 152.31091802 -4 159 C-3.22269531 159.26683594 -2.44539063 159.53367188 -1.64453125 159.80859375 C1.48670949 161.21927089 2.71838461 162.90325045 4.2734375 165.9375 C6.02355537 170.90557652 5.56393491 175.42691841 3.8125 180.3125 C1.16047205 184.2448173 -1.49694559 186.49898186 -6 188 C-11.24639308 188.42970458 -16.22212973 188.38893513 -21 186 C-24.82011947 182.38693308 -26.84162578 179.0588648 -27.25 173.75 C-26.89572401 168.43586017 -25.38057727 164.63159132 -21.9375 160.5625 C-20 159 -20 159 -18 159 C-18 140.19 -18 121.38 -18 102 C-19.32 101.34 -20.64 100.68 -22 100 C-25.3195809 96.30103843 -26.86414293 93.76614196 -27.25 88.75 C-26.89572401 83.43586017 -25.38057727 79.63159132 -21.9375 75.5625 C-20 74 -20 74 -18 74 C-18 58.16 -18 42.32 -18 26 C-19.32 25.34 -20.64 24.68 -22 24 C-25.29342789 20.33018035 -26.82634881 17.77124213 -27.3125 12.8125 C-26.86100647 7.30427895 -24.99644959 2.93406054 -21 -0.9375 C-14.09587144 -4.6053183 -6.65845681 -3.71337014 0 0 Z " fill="#048B4A" transform="translate(28,55)"/>
<path d="M0 0 C4.30385093 2.3549373 6.19563203 4.8978692 8.625 9.0625 C9.99597904 14.54641615 9.10256977 19.26057724 6.5625 24.25 C4.17514197 26.96893553 2.64348404 27.62680204 -0.6875 28.8125 C-0.69658458 36.69670711 -0.65932671 44.57971939 -0.58984375 52.46362305 C-0.56833478 55.14575163 -0.56157062 57.82731626 -0.56738281 60.50952148 C-0.57023725 64.36515936 -0.53494412 68.21885025 -0.4921875 72.07421875 C-0.50128143 73.27334396 -0.51037537 74.47246918 -0.51974487 75.70793152 C-0.61791324 81.49014105 -0.61791324 81.49014105 1.63348389 86.59658813 C3.41536594 88.10349758 3.41536594 88.10349758 6.3125 89.8125 C9.16848665 94.60318729 9.75101522 98.2792533 8.87890625 103.66796875 C7.57918069 108.58899862 5.46459698 111.13479589 1.125 113.6875 C-4.85233581 115.45130401 -9.50277066 115.421359 -15.5 113.75 C-19.3675939 111.39910959 -21.33258499 109.06852715 -22.6875 104.8125 C-23.808413 98.31966432 -22.76594246 93.8163436 -19.07421875 88.40625 C-17.6875 86.8125 -17.6875 86.8125 -14.6875 84.8125 C-14.21014442 82.35268574 -14.21014442 82.35268574 -14.25512695 79.44482422 C-14.23533279 78.32381317 -14.21553864 77.20280212 -14.19514465 76.04782104 C-14.18555977 74.22590744 -14.18555977 74.22590744 -14.17578125 72.3671875 C-14.15783005 71.12703888 -14.13987885 69.88689026 -14.12138367 68.60916138 C-14.07630026 65.31133932 -14.04405106 62.01371493 -14.01794434 58.71569824 C-13.98817269 55.35069195 -13.94163089 51.98592267 -13.89648438 48.62109375 C-13.81131922 42.01833821 -13.74306371 35.41556736 -13.6875 28.8125 C-14.46480469 28.544375 -15.24210937 28.27625 -16.04296875 28 C-19.15603935 26.60210715 -20.41465609 24.95929623 -21.95703125 21.9375 C-23.77692442 16.64326533 -23.62195178 11.00202916 -21.1875 5.9375 C-16.27014019 -1.41247597 -7.96247831 -2.56418793 0 0 Z " fill="#048A4A" transform="translate(285.6875,128.1875)"/>
<path d="M0 0 C4.62 0 9.24 0 14 0 C14 18.81 14 37.62 14 57 C15.65 57.66 17.3 58.32 19 59 C22.47497375 63.60199227 23.61414955 67.10016885 23.3203125 72.859375 C22.63351152 77.44921571 20.861786 80.20284795 17.5 83.3125 C12.02600292 87.00744803 6.02759126 86.58222909 -0.25 85.375 C-4.75435991 83.12282004 -7.39026635 79.82920095 -9 75 C-9.50323424 68.4579549 -8.21488848 63.61759548 -3.9375 58.5625 C-2 57 -2 57 0 57 C0 38.19 0 19.38 0 0 Z " fill="#048A4A" transform="translate(10,157)"/>
<path d="M0 0 C1.15790039 -0.00315216 2.31580078 -0.00630432 3.50878906 -0.009552 C4.76916992 -0.00752777 6.02955078 -0.00550354 7.328125 -0.00341797 C8.61170898 -0.00437469 9.89529297 -0.00533142 11.21777344 -0.00631714 C13.93816324 -0.00779378 16.65852025 -0.00564066 19.37890625 -0.00097656 C22.87297169 0.00472073 26.36696033 0.00144154 29.86102295 -0.00454903 C33.18339653 -0.00902301 36.50574923 -0.00589432 39.828125 -0.00341797 C41.08850586 -0.0054422 42.34888672 -0.00746643 43.64746094 -0.009552 C44.80536133 -0.00639984 45.96326172 -0.00324768 47.15625 0 C48.18137695 0.00079559 49.20650391 0.00159119 50.26269531 0.00241089 C52.578125 0.12939453 52.578125 0.12939453 53.578125 1.12939453 C53.67787532 3.64075558 53.71694683 6.11842868 53.703125 8.62939453 C53.70892578 9.68320313 53.70892578 9.68320313 53.71484375 10.75830078 C53.70473878 16.00278075 53.70473878 16.00278075 52.578125 17.12939453 C50.73694471 17.22320756 48.89214859 17.24683407 47.04858398 17.24291992 C45.86743515 17.24284439 44.68628632 17.24276886 43.46934509 17.24269104 C42.1839534 17.23752975 40.89856171 17.23236847 39.57421875 17.22705078 C38.26606705 17.22563583 36.95791534 17.22422089 35.61012268 17.22276306 C32.12649641 17.21893863 28.64291161 17.209109 25.15930176 17.19805908 C21.60685792 17.18784335 18.05440741 17.1832651 14.50195312 17.17822266 C7.52732668 17.16748665 0.55272783 17.15041113 -6.421875 17.12939453 C-6.44872179 14.48349439 -6.46863857 11.83786358 -6.484375 9.19189453 C-6.49275391 8.43714844 -6.50113281 7.68240234 -6.50976562 6.90478516 C-6.51839941 4.9794514 -6.47411833 3.05403872 -6.421875 1.12939453 C-4.69119801 -0.60128246 -2.35698696 0.00182924 0 0 Z " fill="#010101" transform="translate(124.421875,135.87060546875)"/>
<path d="M0 0 C3.57586036 3.1551709 5.74203659 6.42828932 6.4765625 11.12109375 C6.66047244 16.07830269 5.95443121 19.67963648 3.125 23.875 C-1.92045245 28.54204352 -5.79890568 29.12557988 -12.44140625 29.01953125 C-16.1690336 28.79814728 -18.56217401 28.1803455 -21.24609375 25.51171875 C-24.37585934 21.93864359 -25.75998476 19.37019812 -26.125 14.625 C-25.7485055 8.97758245 -24.213881 4.7675458 -19.9375 1 C-13.79619552 -3.26131331 -6.83202707 -2.6734019 0 0 Z " fill="#05894A" transform="translate(26.875,129.125)"/>
<path d="M0 0 C4.30385093 2.3549373 6.19563203 4.8978692 8.625 9.0625 C9.98952027 14.52058106 9.12974887 19.23637718 6.5625 24.1875 C3.51619772 27.74151933 1.56259217 29.56132692 -3.20703125 30.09375 C-9.10031062 30.2872366 -13.66318309 29.99114947 -18.6875 26.8125 C-22.444611 22.0920272 -23.35466181 18.24976462 -23.0625 12.2421875 C-22.47094702 8.40941716 -21.36870578 5.64391339 -18.6875 2.8125 C-12.67325305 -1.58403193 -7.11862351 -2.29243808 0 0 Z " fill="#048B4A" transform="translate(285.6875,128.1875)"/>
<path d="M0 0 C4.62 0 9.24 0 14 0 C14 18.48 14 36.96 14 56 C9.38 56 4.76 56 0 56 C0 37.52 0 19.04 0 0 Z " fill="#010201" transform="translate(10,157)"/>
<path d="M0 0 C4.29 0.33 8.58 0.66 13 1 C13 19.15 13 37.3 13 56 C8.71 56 4.42 56 0 56 C0 37.52 0 19.04 0 0 Z " fill="#010201" transform="translate(272,157)"/>
<path d="M0 0 C4.62 0 9.24 0 14 0 C14 15.18 14 30.36 14 46 C9.38 46 4.76 46 0 46 C0 30.82 0 15.64 0 0 Z " fill="#010302" transform="translate(10,82)"/>
<path d="M0 0 C0.66 0 1.32 0 2 0 C2 1.98 2 3.96 2 6 C0.02 6.99 0.02 6.99 -2 8 C-2.08086147 9.79093191 -2.13912702 11.58289628 -2.1875 13.375 C-2.22230469 14.37273437 -2.25710938 15.37046875 -2.29296875 16.3984375 C-2.19628906 17.25695312 -2.09960938 18.11546875 -2 19 C-1.01 19.66 -0.02 20.32 1 21 C1 22.32 1 23.64 1 25 C0.34 25 -0.32 25 -1 25 C-4.39397711 20.1211579 -5.69368301 16.48900011 -5.46484375 10.51171875 C-4.70879926 6.42653716 -2.81177742 3.05035247 0 0 Z " fill="#0F834E" transform="translate(268,215)"/>
<path d="M0 0 C4.02039141 1.8426794 6.03740944 3.04601809 7.78125 7.23828125 C5.90625 6.92578125 5.90625 6.92578125 3.78125 6.23828125 C3.12125 5.24828125 2.46125 4.25828125 1.78125 3.23828125 C-1.78644552 2.50221626 -1.78644552 2.50221626 -5.21875 2.23828125 C-5.21875 1.57828125 -5.21875 0.91828125 -5.21875 0.23828125 C-5.84523438 0.46644531 -6.47171875 0.69460937 -7.1171875 0.9296875 C-7.93445312 1.21714844 -8.75171875 1.50460938 -9.59375 1.80078125 C-10.81191406 2.23583984 -10.81191406 2.23583984 -12.0546875 2.6796875 C-14.21875 3.23828125 -14.21875 3.23828125 -16.21875 2.23828125 C-10.82519558 -0.9978514 -5.96705072 -2.04854734 0 0 Z " fill="#0F7145" transform="translate(23.21875,212.76171875)"/>
<path d="M0 0 C9.67557348 0.21033855 9.67557348 0.21033855 13.5625 3.375 C16 6 16 6 17 9 C15.02 9 13.04 9 11 9 C10.855625 8.38125 10.71125 7.7625 10.5625 7.125 C10.06847775 4.96741678 10.06847775 4.96741678 9 3 C7.02 3.33 5.04 3.66 3 4 C3 3.01 3 2.02 3 1 C2.01 0.67 1.02 0.34 0 0 Z " fill="#0E814C" transform="translate(15,52)"/>
<path d="M0 0 C0.33 0 0.66 0 1 0 C1.16435547 1.48113281 1.16435547 1.48113281 1.33203125 2.9921875 C1.49058594 4.27351563 1.64914063 5.55484375 1.8125 6.875 C1.96332031 8.15117188 2.11414063 9.42734375 2.26953125 10.7421875 C2.66848082 14.27770316 2.66848082 14.27770316 6 16 C6 16.66 6 17.32 6 18 C6.99 18 7.98 18 9 18 C9.33 18.99 9.66 19.98 10 21 C4.96627156 19.56179187 3.01044111 17.09754485 0 13 C-1.49084832 8.52745503 -1.49084832 4.47254497 0 0 Z " fill="#107949" transform="translate(2,61)"/>
<path d="M0 0 C2.77160662 2.39366027 4.07263207 4.44508961 5 8 C4.88752197 16.11247803 4.88752197 16.11247803 2 19 C0.79422572 14.05632546 1.3709322 10.79137588 3 6 C2.01 5.67 1.02 5.34 0 5 C0 3.35 0 1.7 0 0 Z " fill="#0A7E4C" transform="translate(290,217)"/>
<path d="M0 0 C-0.99 0.495 -0.99 0.495 -2 1 C-2.33 1.66 -2.66 2.32 -3 3 C-3 2.34 -3 1.68 -3 1 C-6.42232972 -0.14077657 -9.08673217 -0.09815117 -12.6875 -0.0625 C-13.86699219 -0.05347656 -15.04648437 -0.04445312 -16.26171875 -0.03515625 C-17.61716797 -0.01775391 -17.61716797 -0.01775391 -19 0 C-13.44970269 -5.55029731 -6.17246291 -3.02324714 0 0 Z " fill="#0F6F43" transform="translate(289,130)"/>
<path d="M0 0 C0.66 0.33 1.32 0.66 2 1 C2.34649648 6.77494139 2.29726646 10.99303982 -1 16 C-1.99 16.66 -2.98 17.32 -4 18 C-4 16.68 -4 15.36 -4 14 C-3.01 14 -2.02 14 -1 14 C-0.67 9.38 -0.34 4.76 0 0 Z " fill="#107B4A" transform="translate(31,222)"/>
<path d="M0 0 C0.33 0 0.66 0 1 0 C1.10957031 0.77085937 1.21914063 1.54171875 1.33203125 2.3359375 C1.49058594 3.33882812 1.64914062 4.34171875 1.8125 5.375 C1.96332031 6.37273437 2.11414063 7.37046875 2.26953125 8.3984375 C2.78772298 11.3287364 2.78772298 11.3287364 6 13 C6 14.32 6 15.64 6 17 C5.34 17 4.68 17 4 17 C-0.0333905 11.20200116 -0.50604984 6.98629919 0 0 Z " fill="#19794C" transform="translate(263,223)"/>
<path d="M0 0 C2.50298979 3.75448468 2.12834335 5.39835025 1.55859375 9.703125 C0.72621565 13.12577059 -0.82071491 15.25831876 -3 18 C-3.33 17.34 -3.66 16.68 -4 16 C-3.26320515 14.35895693 -2.52401263 12.7189246 -1.76953125 11.0859375 C-0.4473498 7.50195327 -0.24914899 3.78878291 0 0 Z " fill="#12774B" transform="translate(293,137)"/>
<path d="M0 0 C0.33 0 0.66 0 1 0 C1.54330269 6.65545792 0.77304004 10.45834744 -3 16 C-3.625 14.1875 -3.625 14.1875 -4 12 C-3.34 11.01 -2.68 10.02 -2 9 C-1.58483202 6.98341096 -1.58483202 6.98341096 -1.4375 4.875 C-1 1 -1 1 0 0 Z " fill="#107E4C" transform="translate(32,63)"/>
<path d="M0 0 C2.21642742 0.49253943 4.1690824 1.07514773 6.25 2 C9.84166274 3.30605918 13.19962955 3.61352165 17 4 C17 4.33 17 4.66 17 5 C6.01505646 5.38393977 6.01505646 5.38393977 2 3 C1.34 2.01 0.68 1.02 0 0 Z " fill="#127A4C" transform="translate(5,153)"/>
<path d="M0 0 C1.2375 0.2475 1.2375 0.2475 2.5 0.5 C6.42165906 1.06023701 10.04034874 1.06491232 14 1 C14.99 1 15.98 1 17 1 C16.67 1.66 16.34 2.32 16 3 C14.27119018 3.05449838 12.54187288 3.09301688 10.8125 3.125 C9.84957031 3.14820313 8.88664062 3.17140625 7.89453125 3.1953125 C4.87187222 2.9913544 2.73230015 2.26874632 0 1 C0 0.67 0 0.34 0 0 Z " fill="#14784B" transform="translate(269,155)"/>
<path d="M0 0 C2 1 2 1 3.125 4.0625 C3.41375 5.031875 3.7025 6.00125 4 7 C2.68 7 1.36 7 0 7 C-0.38133299 5.0085944 -0.71325582 3.00720923 -1 1 C-0.67 0.67 -0.34 0.34 0 0 Z " fill="#0E864E" transform="translate(267,148)"/>
<path d="M0 0 C1.32 1.32 2.64 2.64 4 4 C3.67 4.66 3.34 5.32 3 6 C2.34 5.67 1.68 5.34 1 5 C0.67 5.66 0.34 6.32 0 7 C-1.125 2.25 -1.125 2.25 0 0 Z " fill="#0D834E" transform="translate(289,131)"/>
<path d="M0 0 C3.3 0 6.6 0 10 0 C9.67 0.99 9.34 1.98 9 3 C4.545 2.01 4.545 2.01 0 1 C0 0.67 0 0.34 0 0 Z " fill="#107E4B" transform="translate(276,213)"/>
</svg>
