<svg xmlns="http://www.w3.org/2000/svg" xmlns:xlink="http://www.w3.org/1999/xlink" width="202.9" height="106" viewBox="0 0 202.9 106"><defs><clipPath id="clip"><use xlink:href="#fill"/></clipPath><clipPath id="clip-2"><use xlink:href="#fill-2"/></clipPath><clipPath id="clip-3"><use xlink:href="#fill-3"/></clipPath></defs><g id="Default" transform="translate(-542 -149.868)"><rect id="Rectangle_1592" width="202" height="106" fill="#000" class="svgGridBG" data-name="Rectangle 1592" transform="translate(542.45 149.868)"/><line id="Line_78" y1="105.737" fill="#9ad5e9" stroke="#707070" stroke-width=".1" class="svgGrid" data-name="Line 78" opacity="1" transform="translate(554.145 150)"/><line id="Line_79" y1="105.737" fill="#9ad5e9" stroke="#707070" stroke-width=".1" class="svgGrid" data-name="Line 79" opacity="1" transform="translate(565.576 150)"/><line id="Line_80" y1="105.737" fill="#9ad5e9" stroke="#707070" stroke-width=".1" class="svgGrid" data-name="Line 80" opacity="1" transform="translate(577.007 150)"/><line id="Line_81" y1="105.737" fill="#9ad5e9" stroke="#707070" stroke-width=".1" class="svgGrid" data-name="Line 81" opacity="1" transform="translate(588.438 150)"/><line id="Line_82" y1="105.737" fill="#9ad5e9" stroke="#707070" stroke-width=".1" class="svgGrid" data-name="Line 82" opacity="1" transform="translate(599.87 150)"/><line id="Line_83" y1="105.737" fill="#9ad5e9" stroke="#707070" stroke-width=".1" class="svgGrid" data-name="Line 83" opacity="1" transform="translate(611.3 150)"/><line id="Line_84" y1="105.737" fill="#9ad5e9" stroke="#707070" stroke-width=".1" class="svgGrid" data-name="Line 84" opacity="1" transform="translate(622.732 150)"/><line id="Line_85" y1="105.737" fill="#9ad5e9" stroke="#707070" stroke-width=".1" class="svgGrid" data-name="Line 85" opacity="1" transform="translate(635.591 150)"/><line id="Line_86" y1="105.737" fill="#9ad5e9" stroke="#707070" stroke-width=".1" class="svgGrid" data-name="Line 86" opacity="1" transform="translate(647.022 150)"/><line id="Line_87" y1="105.737" fill="#9ad5e9" stroke="#707070" stroke-width=".1" class="svgGrid" data-name="Line 87" opacity="1" transform="translate(658.453 150)"/><line id="Line_88" y1="105.737" fill="#9ad5e9" stroke="#707070" stroke-width=".1" class="svgGrid" data-name="Line 88" opacity="1" transform="translate(669.884 150)"/><line id="Line_89" y1="105.737" fill="#9ad5e9" stroke="#707070" stroke-width=".1" class="svgGrid" data-name="Line 89" opacity="1" transform="translate(681.315 150)"/><line id="Line_90" y1="105.737" fill="#9ad5e9" stroke="#707070" stroke-width=".1" class="svgGrid" data-name="Line 90" opacity="1" transform="translate(692.746 150)"/><line id="Line_91" y1="105.737" fill="#9ad5e9" stroke="#707070" stroke-width=".1" class="svgGrid" data-name="Line 91" opacity="1" transform="translate(704.177 150)"/><line id="Line_92" y1="105.737" fill="#9ad5e9" stroke="#707070" stroke-width=".1" class="svgGrid" data-name="Line 92" opacity="1" transform="translate(715.608 150)"/><line id="Line_93" y1="105.737" fill="#9ad5e9" stroke="#707070" stroke-width=".1" class="svgGrid" data-name="Line 93" opacity="1" transform="translate(727.039 150)"/><line id="Line_94" y1="105.737" fill="#9ad5e9" stroke="#707070" stroke-width=".1" class="svgGrid" data-name="Line 94" opacity="1" transform="translate(738.47 150)"/><line id="Line_95" x2="202.9" fill="#9ad5e9" stroke="#707070" stroke-width=".1" class="svgGrid" data-name="Line 95" opacity="1" transform="translate(542 172.148)"/><line id="Line_96" x2="202.9" fill="#9ad5e9" stroke="#707070" stroke-width=".1" class="svgGrid" data-name="Line 96" opacity="1" transform="translate(542 183.579)"/><line id="Line_97" x2="202.9" fill="#9ad5e9" stroke="#707070" stroke-width=".1" class="svgGrid" data-name="Line 97" opacity="1" transform="translate(542 195.01)"/><line id="Line_98" x2="202.9" fill="#9ad5e9" stroke="#707070" stroke-width=".1" class="svgGrid" data-name="Line 98" opacity="1" transform="translate(542 206.441)"/><line id="Line_99" x2="202.9" fill="#9ad5e9" stroke="#707070" stroke-width=".1" class="svgGrid" data-name="Line 99" opacity="1" transform="translate(542 217.872)"/><line id="Line_100" x2="202.9" fill="#9ad5e9" stroke="#707070" stroke-width=".1" class="svgGrid" data-name="Line 100" opacity="1" transform="translate(542 229.303)"/><line id="Line_101" x2="202.9" fill="#9ad5e9" stroke="#707070" stroke-width=".1" class="svgGrid" data-name="Line 101" opacity="1" transform="translate(542 240.734)"/><line id="Line_102" x2="202.9" fill="#9ad5e9" stroke="#707070" stroke-width=".1" class="svgGrid" data-name="Line 102" opacity="1" transform="translate(542 252.165)"/><rect id="Rectangle_1589" width="47" height="73" fill="#000" stroke="#F38518" class="svgPanel" data-name="Rectangle 1589" rx="4" transform="translate(552.45 172.868)"/><path id="Rectangle_1599" fill="#bbb" stroke="#F38518" d="M0,0H202a0,0,0,0,1,0,0V6a3,3,0,0,1-3,3H3A3,3,0,0,1,0,6V0A0,0,0,0,1,0,0Z" class="svgNav" data-name="Rectangle 1599" transform="translate(542.45 153.868)"/><rect id="Rectangle_1593" width="47" height="64" fill="#000" stroke="#F38518" class="svgPanel" data-name="Rectangle 1593" rx="4" transform="translate(689.45 172.868)"/><rect id="Rectangle_1598" width="202" height="7" fill="#000" class="svgHeader" data-name="Rectangle 1598" transform="translate(542.45 149.868)"/><g id="Rectangle_1594" fill="#fff" stroke="#bbb" stroke-width="1" class="svgText" data-name="Rectangle 1594" transform="translate(559.45 183.868)"><rect width="24" height="3" stroke="none"/><rect width="23" height="2" x=".5" y=".5" fill="none"/></g><g id="Rectangle_1601" fill="#fff" stroke="#bbb" stroke-width="1" class="svgText" data-name="Rectangle 1601" transform="translate(694.45 182.868)"><rect width="36" height="3" stroke="none"/><rect width="35" height="2" x=".5" y=".5" fill="none"/></g><g id="Rectangle_1602" fill="#fff" stroke="#bbb" stroke-width="1" class="svgText" data-name="Rectangle 1602" transform="translate(694.45 199.868)"><rect width="36" height="3" stroke="none"/><rect width="35" height="2" x=".5" y=".5" fill="none"/></g><g id="Rectangle_1604" fill="#fff" stroke="#bbb" stroke-width="1" class="svgText" data-name="Rectangle 1604" transform="translate(694.45 216.868)"><rect width="36" height="3" stroke="none"/><rect width="35" height="2" x=".5" y=".5" fill="none"/></g><g id="Rectangle_1600" fill="#fff" stroke="#bbb" stroke-width="1" class="svgText" data-name="Rectangle 1600" transform="translate(694.89 178.578)"><rect id="fill" width="12.86" height=".714" stroke="none"/><path fill="none" d="M0,0.21443802118301392h12.859884262084961M12.359884262084961,0v0.7144380211830139M12.859884262084961,0.5h-12.859884262084961M0.5,0.7144380211830139v-0.7144380211830139" clip-path="url(#clip)"/></g><g id="Rectangle_1606" fill="#fff" stroke="#bbb" stroke-width="1" class="svgText" data-name="Rectangle 1606" transform="translate(630.59 152.858)"><rect width="27.149" height="2.143" stroke="none"/><rect width="26.149" height="1.143" x=".5" y=".5" fill="none"/></g><g id="Rectangle_1603" fill="#fff" stroke="#bbb" stroke-width="1" class="svgText" data-name="Rectangle 1603" transform="translate(694.89 195.724)"><rect id="fill-2" width="12.86" height=".714" stroke="none"/><path fill="none" d="M0,0.21443802118301392h12.859884262084961M12.359884262084961,0v0.7144380211830139M12.859884262084961,0.5h-12.859884262084961M0.5,0.7144380211830139v-0.7144380211830139" clip-path="url(#clip-2)"/></g><g id="Rectangle_1605" fill="#fff" stroke="#bbb" stroke-width="1" class="svgText" data-name="Rectangle 1605" transform="translate(694.89 212.871)"><rect id="fill-3" width="12.86" height=".714" stroke="none"/><path fill="none" d="M0,0.21443802118301392h12.859884262084961M12.359884262084961,0v0.7144380211830139M12.859884262084961,0.5h-12.859884262084961M0.5,0.7144380211830139v-0.7144380211830139" clip-path="url(#clip-3)"/></g><g id="Rectangle_1595" fill="#fff" stroke="#bbb" stroke-width="1" class="svgText" data-name="Rectangle 1595" transform="translate(559.45 198.868)"><rect width="24" height="3" stroke="none"/><rect width="23" height="2" x=".5" y=".5" fill="none"/></g><g id="Rectangle_1596" fill="#fff" stroke="#bbb" stroke-width="1" class="svgText" data-name="Rectangle 1596" transform="translate(559.45 212.868)"><rect width="24" height="3" stroke="none"/><rect width="23" height="2" x=".5" y=".5" fill="none"/></g><g id="Rectangle_1597" fill="#fff" stroke="#bbb" stroke-width="1" class="svgText" data-name="Rectangle 1597" transform="translate(559.45 226.868)"><rect width="24" height="3" stroke="none"/><rect width="23" height="2" x=".5" y=".5" fill="none"/></g><g id="chevron-down" transform="translate(587.949 185.477)"><path id="chevron-down-2" fill="none" stroke="#F38518" stroke-linecap="round" stroke-linejoin="round" stroke-width="1" d="M6,9l1.881,1.881L9.762,9" class="svgChev" data-name="chevron-down" transform="translate(-6 -9)"/></g><g id="chevron-down-3" data-name="chevron-down" transform="translate(587.949 199.766)"><path id="chevron-down-4" fill="none" stroke="#F38518" stroke-linecap="round" stroke-linejoin="round" stroke-width="1" d="M6,9l1.881,1.881L9.762,9" class="svgChev" data-name="chevron-down" transform="translate(-6 -9)"/></g><g id="chevron-down-5" data-name="chevron-down" transform="translate(587.949 214.055)"><path id="chevron-down-6" fill="none" stroke="#F38518" stroke-linecap="round" stroke-linejoin="round" stroke-width="1" d="M6,9l1.881,1.881L9.762,9" class="svgChev" data-name="chevron-down" transform="translate(-6 -9)"/></g><g id="chevron-down-7" data-name="chevron-down" transform="translate(587.949 228.343)"><path id="chevron-down-8" fill="none" stroke="#F38518" stroke-linecap="round" stroke-linejoin="round" stroke-width="1" d="M6,9l1.881,1.881L9.762,9" class="svgChev" data-name="chevron-down" transform="translate(-6 -9)"/></g></g></svg>